HeavyItalic.ufo
<glyph name="exclam" format="1">
  <advance width="356"/>
  <unicode hex="0021"/>
  <outline>
    <contour>
      <point x="195" y="700" type="line"/>
      <point x="409" y="700" type="line"/>
      <point x="291" y="240" type="line"/>
      <point x="150" y="240" type="line"/>
    </contour>
    <contour>
      <point x="84" y="68" type="curve" smooth="yes"/>
      <point x="94" y="124"/>
      <point x="145" y="164"/>
      <point x="207" y="164" type="curve" smooth="yes"/>
      <point x="269" y="164"/>
      <point x="306" y="124"/>
      <point x="296" y="68" type="curve" smooth="yes"/>
      <point x="286" y="12"/>
      <point x="235" y="-27"/>
      <point x="173" y="-27" type="curve" smooth="yes"/>
      <point x="111" y="-27"/>
      <point x="74" y="12"/>
    </contour>
  </outline>
</glyph>
<glyph name="numbersign" format="1">
  <advance width="686"/>
  <unicode hex="0023"/>
  <outline>
    <contour>
      <point x="146" y="404" type="line"/>
      <point x="171" y="542" type="line"/>
      <point x="747" y="542" type="line"/>
      <point x="722" y="404" type="line"/>
      <point x="563" y="404" type="line" smooth="yes"/>
      <point x="531" y="412" type="line" smooth="yes"/>
      <point x="323" y="412" type="line" smooth="yes"/>
      <point x="291" y="404" type="line" smooth="yes"/>
    </contour>
    <contour>
      <point x="64" y="164" type="line"/>
      <point x="88" y="302" type="line"/>
      <point x="232" y="302" type="line" smooth="yes"/>
      <point x="268" y="294" type="line" smooth="yes"/>
      <point x="507" y="294" type="line" smooth="yes"/>
      <point x="541" y="302" type="line" smooth="yes"/>
      <point x="664" y="302" type="line"/>
      <point x="640" y="164" type="line"/>
    </contour>
    <contour>
      <point x="603" y="700" type="line"/>
      <point x="751" y="700" type="line"/>
      <point x="458" y="0" type="line"/>
      <point x="310" y="0" type="line"/>
      <point x="403" y="223" type="line" smooth="yes"/>
      <point x="422" y="251" type="line" smooth="yes"/>
      <point x="508" y="454" type="line" smooth="yes"/>
      <point x="514" y="490" type="line" smooth="yes"/>
    </contour>
    <contour>
      <point x="351" y="700" type="line"/>
      <point x="500" y="700" type="line"/>
      <point x="412" y="490" type="line" smooth="yes"/>
      <point x="388" y="453" type="line" smooth="yes"/>
      <point x="305" y="254" type="line" smooth="yes"/>
      <point x="302" y="226" type="line" smooth="yes"/>
      <point x="207" y="0" type="line"/>
      <point x="58" y="0" type="line"/>
    </contour>
  </outline>
</glyph>
<glyph name="dollar" format="1">
  <advance width="634"/>
  <unicode hex="0024"/>
  <outline>
    <contour>
      <point x="407" y="818" type="line"/>
      <point x="546" y="818" type="line"/>
      <point x="505" y="628" type="line"/>
      <point x="382" y="628" type="line"/>
    </contour>
    <contour>
      <point x="283" y="66" type="line"/>
      <point x="406" y="66" type="line"/>
      <point x="382" y="-112" type="line"/>
      <point x="243" y="-112" type="line"/>
    </contour>
    <contour>
      <point x="537" y="482" type="line"/>
      <point x="517" y="540"/>
      <point x="481" y="572"/>
      <point x="437" y="572" type="curve" smooth="yes"/>
      <point x="389" y="572"/>
      <point x="364" y="546"/>
      <point x="359" y="518" type="curve" smooth="yes"/>
      <point x="349" y="464"/>
      <point x="423" y="451"/>
      <point x="502" y="419" type="curve" smooth="yes"/>
      <point x="598" y="383"/>
      <point x="662" y="316"/>
      <point x="641" y="198" type="curve" smooth="yes"/>
      <point x="617" y="62"/>
      <point x="492" y="-10"/>
      <point x="320" y="-10" type="curve" smooth="yes"/>
      <point x="188" y="-10"/>
      <point x="83" y="73"/>
      <point x="55" y="163" type="curve"/>
      <point x="205" y="258" type="line"/>
      <point x="241" y="178"/>
      <point x="281" y="142"/>
      <point x="351" y="142" type="curve" smooth="yes"/>
      <point x="403" y="142"/>
      <point x="429" y="160"/>
      <point x="436" y="198" type="curve" smooth="yes"/>
      <point x="444" y="244"/>
      <point x="389" y="260"/>
      <point x="313" y="292" type="curve" smooth="yes"/>
      <point x="248" y="318"/>
      <point x="136" y="378"/>
      <point x="160" y="516" type="curve" smooth="yes"/>
      <point x="178" y="620"/>
      <point x="301" y="710"/>
      <point x="455" y="710" type="curve" smooth="yes"/>
      <point x="609" y="710"/>
      <point x="663" y="640"/>
      <point x="695" y="563" type="curve"/>
    </contour>
  </outline>
</glyph>
<glyph name="quotesingle" format="1">
  <advance width="313"/>
  <unicode hex="0027"/>
  <outline>
    <contour>
      <point x="221" y="700" type="line"/>
      <point x="401" y="700" type="line"/>
      <point x="234" y="376" type="line"/>
      <point x="122" y="376" type="line"/>
    </contour>
  </outline>
</glyph>
<glyph name="asterisk" format="1">
  <advance width="592"/>
  <unicode hex="002A"/>
  <outline>
    <contour>
      <point x="613" y="605" type="line"/>
      <point x="636" y="454" type="line"/>
      <point x="382" y="412" type="line"/>
      <point x="370" y="492" type="line"/>
    </contour>
    <contour>
      <point x="559" y="299" type="line"/>
      <point x="413" y="206" type="line"/>
      <point x="338" y="428" type="line"/>
      <point x="413" y="476" type="line"/>
    </contour>
    <contour>
      <point x="251" y="206" type="line"/>
      <point x="139" y="299" type="line"/>
      <point x="347" y="476" type="line"/>
      <point x="404" y="428" type="line"/>
    </contour>
    <contour>
      <point x="116" y="454" type="line"/>
      <point x="193" y="605" type="line"/>
      <point x="396" y="492" type="line"/>
      <point x="356" y="412" type="line"/>
    </contour>
    <contour>
      <point x="339" y="700" type="line"/>
      <point x="499" y="700" type="line"/>
      <point x="418" y="452" type="line"/>
      <point x="334" y="452" type="line"/>
    </contour>
  </outline>
</glyph>
<glyph name="plus" format="1">
  <advance width="692"/>
  <unicode hex="002B"/>
  <outline>
    <contour>
      <point x="99" y="190" type="line"/>
      <point x="128" y="356" type="line"/>
      <point x="691" y="356" type="line"/>
      <point x="662" y="190" type="line"/>
    </contour>
    <contour>
      <point x="353" y="552" type="line"/>
      <point x="533" y="552" type="line"/>
      <point x="435" y="-6" type="line"/>
      <point x="255" y="-6" type="line"/>
    </contour>
  </outline>
</glyph>
<glyph name="comma" format="1">
  <advance width="328"/>
  <unicode hex="002C"/>
  <outline>
    <contour>
      <point x="131" y="110" type="line"/>
      <point x="299" y="77" type="line"/>
      <point x="123" y="-173" type="line"/>
      <point x="-2" y="-149" type="line"/>
    </contour>
  </outline>
</glyph>
<glyph name="period" format="1">
  <advance width="329"/>
  <unicode hex="002E"/>
  <outline>
    <contour>
      <point x="71" y="76" type="curve" smooth="yes"/>
      <point x="81" y="132"/>
      <point x="134" y="180"/>
      <point x="196" y="180" type="curve" smooth="yes"/>
      <point x="258" y="180"/>
      <point x="294" y="132"/>
      <point x="284" y="76" type="curve" smooth="yes"/>
      <point x="274" y="20"/>
      <point x="221" y="-27"/>
      <point x="159" y="-27" type="curve" smooth="yes"/>
      <point x="97" y="-27"/>
      <point x="61" y="20"/>
    </contour>
  </outline>
</glyph>
<glyph name="three" format="1">
  <advance width="643"/>
  <unicode hex="0033"/>
  <outline>
    <contour>
      <point x="341" y="336" type="curve"/>
      <point x="356" y="420" type="line"/>
      <point x="430" y="420"/>
      <point x="488" y="458"/>
      <point x="496" y="504" type="curve" smooth="yes"/>
      <point x="502" y="538"/>
      <point x="483" y="562"/>
      <point x="435" y="562" type="curve" smooth="yes"/>
      <point x="387" y="562"/>
      <point x="346" y="530"/>
      <point x="338" y="486" type="curve"/>
      <point x="160" y="486" type="line"/>
      <point x="183" y="615"/>
      <point x="302" y="714"/>
      <point x="462" y="714" type="curve" smooth="yes"/>
      <point x="631" y="714"/>
      <point x="710" y="629"/>
      <point x="690" y="518" type="curve" smooth="yes"/>
      <point x="667" y="390"/>
      <point x="517" y="336"/>
    </contour>
    <contour>
      <point x="325" y="-18" type="curve" smooth="yes"/>
      <point x="145" y="-18"/>
      <point x="62" y="105"/>
      <point x="85" y="234" type="curve"/>
      <point x="277" y="234" type="line"/>
      <point x="265" y="164"/>
      <point x="308" y="135"/>
      <point x="360" y="135" type="curve" smooth="yes"/>
      <point x="412" y="135"/>
      <point x="454" y="156"/>
      <point x="464" y="212" type="curve" smooth="yes"/>
      <point x="473" y="262"/>
      <point x="441" y="300"/>
      <point x="335" y="300" type="curve"/>
      <point x="352" y="396" type="line"/>
      <point x="552" y="396"/>
      <point x="678" y="337"/>
      <point x="653" y="194" type="curve" smooth="yes"/>
      <point x="631" y="71"/>
      <point x="511" y="-18"/>
    </contour>
  </outline>
</glyph>
<glyph name="five" format="1">
  <advance width="669"/>
  <unicode hex="0035"/>
  <outline>
    <contour>
      <point x="669" y="222" type="curve" smooth="yes"/>
      <point x="639" y="54"/>
      <point x="469" y="-14"/>
      <point x="334" y="-14" type="curve" smooth="yes"/>
      <point x="205" y="-14"/>
      <point x="120" y="20"/>
      <point x="57" y="60" type="curve"/>
      <point x="150" y="226" type="line"/>
      <point x="206" y="182"/>
      <point x="273" y="164"/>
      <point x="317" y="164" type="curve" smooth="yes"/>
      <point x="397" y="164"/>
      <point x="448" y="186"/>
      <point x="459" y="246" type="curve" smooth="yes"/>
      <point x="470" y="306"/>
      <point x="407" y="325"/>
      <point x="345" y="325" type="curve" smooth="yes"/>
      <point x="295" y="325"/>
      <point x="211" y="318"/>
      <point x="134" y="286" type="curve"/>
      <point x="289" y="376" type="line"/>
      <point x="353" y="434"/>
      <point x="419" y="449"/>
      <point x="495" y="449" type="curve" smooth="yes"/>
      <point x="603" y="449"/>
      <point x="695" y="370"/>
    </contour>
    <contour>
      <point x="410" y="532" type="line"/>
      <point x="341" y="368" type="line"/>
      <point x="134" y="286" type="line"/>
      <point x="307" y="700" type="line"/>
      <point x="735" y="700" type="line"/>
      <point x="706" y="532" type="line"/>
    </contour>
  </outline>
</glyph>
<glyph name="seven" format="1">
  <advance width="626"/>
  <unicode hex="0037"/>
  <outline>
    <contour>
      <point x="121" y="518" type="line"/>
      <point x="153" y="700" type="line"/>
      <point x="749" y="700" type="line"/>
      <point x="286" y="0" type="line"/>
      <point x="76" y="0" type="line"/>
      <point x="432" y="518" type="line"/>
    </contour>
  </outline>
</glyph>
<glyph name="eight" format="1">
  <advance width="651"/>
  <unicode hex="0038"/>
  <outline>
    <contour>
      <point x="170" y="531" type="curve" smooth="yes"/>
      <point x="192" y="655"/>
      <point x="319" y="718"/>
      <point x="453" y="718" type="curve" smooth="yes"/>
      <point x="587" y="718"/>
      <point x="692" y="655"/>
      <point x="670" y="531" type="curve" smooth="yes"/>
      <point x="646" y="397"/>
      <point x="501" y="338"/>
      <point x="386" y="338" type="curve" smooth="yes"/>
      <point x="271" y="338"/>
      <point x="146" y="397"/>
    </contour>
    <contour>
      <point x="348" y="512" type="curve" smooth="yes"/>
      <point x="341" y="470"/>
      <point x="364" y="442"/>
      <point x="404" y="442" type="curve" smooth="yes"/>
      <point x="444" y="442"/>
      <point x="477" y="470"/>
      <point x="484" y="512" type="curve" smooth="yes"/>
      <point x="491" y="554"/>
      <point x="469" y="582"/>
      <point x="429" y="582" type="curve" smooth="yes"/>
      <point x="389" y="582"/>
      <point x="355" y="554"/>
    </contour>
    <contour>
      <point x="85" y="190" type="curve" smooth="yes"/>
      <point x="112" y="344"/>
      <point x="281" y="398"/>
      <point x="396" y="398" type="curve" smooth="yes"/>
      <point x="511" y="398"/>
      <point x="662" y="344"/>
      <point x="635" y="190" type="curve" smooth="yes"/>
      <point x="611" y="56"/>
      <point x="465" y="-18"/>
      <point x="323" y="-18" type="curve" smooth="yes"/>
      <point x="181" y="-18"/>
      <point x="61" y="56"/>
    </contour>
    <contour>
      <point x="285" y="220" type="curve" smooth="yes"/>
      <point x="275" y="166"/>
      <point x="304" y="138"/>
      <point x="350" y="138" type="curve" smooth="yes"/>
      <point x="396" y="138"/>
      <point x="435" y="166"/>
      <point x="445" y="220" type="curve" smooth="yes"/>
      <point x="453" y="264"/>
      <point x="425" y="298"/>
      <point x="379" y="298" type="curve" smooth="yes"/>
      <point x="333" y="298"/>
      <point x="293" y="264"/>
    </contour>
  </outline>
</glyph>
<glyph name="less" format="1">
  <advance width="640"/>
  <unicode hex="003C"/>
  <outline>
    <contour>
      <point x="354" y="270" type="line"/>
      <point x="604" y="164" type="line"/>
      <point x="574" y="-5" type="line"/>
      <point x="101" y="206" type="line"/>
      <point x="122" y="324" type="line"/>
      <point x="670" y="536" type="line"/>
      <point x="640" y="368" type="line"/>
    </contour>
  </outline>
</glyph>
<glyph name="question" format="1">
  <advance width="648"/>
  <unicode hex="003F"/>
  <outline>
    <contour>
      <point x="212" y="64" type="curve" smooth="yes"/>
      <point x="220" y="112"/>
      <point x="273" y="156"/>
      <point x="335" y="156" type="curve" smooth="yes"/>
      <point x="397" y="156"/>
      <point x="432" y="112"/>
      <point x="424" y="64" type="curve" smooth="yes"/>
      <point x="416" y="16"/>
      <point x="364" y="-27"/>
      <point x="302" y="-27" type="curve" smooth="yes"/>
      <point x="240" y="-27"/>
      <point x="204" y="16"/>
    </contour>
    <contour>
      <point x="285" y="390" type="line"/>
      <point x="456" y="390" type="line"/>
      <point x="414" y="210" type="line"/>
      <point x="273" y="210" type="line"/>
    </contour>
    <contour>
      <point x="510" y="500" type="curve" smooth="yes"/>
      <point x="519" y="550"/>
      <point x="488" y="578"/>
      <point x="422" y="578" type="curve" smooth="yes"/>
      <point x="364" y="578"/>
      <point x="294" y="548"/>
      <point x="244" y="490" type="curve"/>
      <point x="148" y="588" type="line"/>
      <point x="241" y="674"/>
      <point x="338" y="722"/>
      <point x="457" y="722" type="curve" smooth="yes"/>
      <point x="591" y="722"/>
      <point x="709" y="644"/>
      <point x="684" y="500" type="curve" smooth="yes"/>
      <point x="656" y="340"/>
      <point x="463" y="274"/>
      <point x="348" y="274" type="curve"/>
      <point x="319" y="390" type="line"/>
      <point x="439" y="390"/>
      <point x="502" y="456"/>
    </contour>
  </outline>
</glyph>
<glyph name="at" format="1">
  <advance width="770"/>
  <unicode hex="0040"/>
  <outline>
    <contour>
      <point x="387" y="320" type="curve" smooth="yes"/>
      <point x="380" y="280"/>
      <point x="390" y="258"/>
      <point x="410" y="258" type="curve" smooth="yes"/>
      <point x="440" y="258"/>
      <point x="480" y="305"/>
      <point x="490" y="362" type="curve" smooth="yes"/>
      <point x="498" y="406"/>
      <point x="488" y="425"/>
      <point x="466" y="425" type="curve" smooth="yes"/>
      <point x="431" y="425"/>
      <point x="397" y="374"/>
    </contour>
    <contour>
      <point x="251" y="311" type="curve" smooth="yes"/>
      <point x="276" y="450"/>
      <point x="372" y="530"/>
      <point x="448" y="530" type="curve" smooth="yes"/>
      <point x="516" y="530"/>
      <point x="554" y="460"/>
      <point x="538" y="372" type="curve" smooth="yes"/>
      <point x="513" y="233"/>
      <point x="433" y="152"/>
      <point x="355" y="152" type="curve" smooth="yes"/>
      <point x="273" y="152"/>
      <point x="234" y="212"/>
    </contour>
    <contour>
      <point x="66" y="320" type="curve" smooth="yes"/>
      <point x="106" y="548"/>
      <point x="311" y="727"/>
      <point x="543" y="727" type="curve" smooth="yes"/>
      <point x="755" y="727"/>
      <point x="859" y="558"/>
      <point x="829" y="390" type="curve" smooth="yes"/>
      <point x="798" y="212"/>
      <point x="682" y="137"/>
      <point x="582" y="137" type="curve" smooth="yes"/>
      <point x="512" y="137"/>
      <point x="464" y="194"/>
      <point x="486" y="260" type="curve"/>
      <point x="479" y="302" type="line"/>
      <point x="540" y="520" type="line"/>
      <point x="670" y="520" type="line"/>
      <point x="609" y="312" type="line" smooth="yes"/>
      <point x="607" y="305"/>
      <point x="603" y="293"/>
      <point x="602" y="285" type="curve" smooth="yes"/>
      <point x="598" y="261"/>
      <point x="602" y="248"/>
      <point x="618" y="248" type="curve" smooth="yes"/>
      <point x="640" y="248"/>
      <point x="681" y="274"/>
      <point x="701" y="390" type="curve" smooth="yes"/>
      <point x="723" y="514"/>
      <point x="668" y="618"/>
      <point x="524" y="618" type="curve" smooth="yes"/>
      <point x="352" y="618"/>
      <point x="225" y="494"/>
      <point x="194" y="320" type="curve" smooth="yes"/>
      <point x="168" y="174"/>
      <point x="226" y="76"/>
      <point x="391" y="76" type="curve" smooth="yes"/>
      <point x="461" y="76"/>
      <point x="523" y="90"/>
      <point x="584" y="117" type="curve"/>
      <point x="612" y="20" type="line"/>
      <point x="546" y="-13"/>
      <point x="457" y="-32"/>
      <point x="359" y="-32" type="curve" smooth="yes"/>
      <point x="129" y="-32"/>
      <point x="31" y="121"/>
    </contour>
  </outline>
</glyph>
<glyph name="F" format="1">
  <advance width="569"/>
  <unicode hex="0046"/>
  <outline>
    <contour>
      <point x="298" y="534" type="line"/>
      <point x="327" y="700" type="line"/>
      <point x="641" y="700" type="line"/>
      <point x="612" y="534" type="line"/>
    </contour>
    <contour>
      <point x="250" y="262" type="line"/>
      <point x="277" y="416" type="line"/>
      <point x="581" y="416" type="line"/>
      <point x="554" y="262" type="line"/>
    </contour>
    <contour>
      <point x="195" y="700" type="line"/>
      <point x="381" y="700" type="line"/>
      <point x="258" y="0" type="line"/>
      <point x="72" y="0" type="line"/>
    </contour>
  </outline>
</glyph>
<glyph name="G" format="1">
  <advance width="826"/>
  <unicode hex="0047"/>
  <outline>
    <contour>
      <point x="468" y="246" type="line"/>
      <point x="494" y="392" type="line"/>
      <point x="857" y="392" type="line"/>
      <point x="732" y="246" type="line"/>
    </contour>
    <contour>
      <point x="857" y="392" type="line"/>
      <point x="832" y="162"/>
      <point x="665" y="-26"/>
      <point x="419" y="-26" type="curve" smooth="yes"/>
      <point x="191" y="-26"/>
      <point x="54" y="124"/>
      <point x="94" y="350" type="curve" smooth="yes"/>
      <point x="134" y="576"/>
      <point x="331" y="718"/>
      <point x="559" y="718" type="curve" smooth="yes"/>
      <point x="713" y="718"/>
      <point x="800" y="644"/>
      <point x="851" y="547" type="curve"/>
      <point x="658" y="462" type="line"/>
      <point x="639" y="512"/>
      <point x="603" y="552"/>
      <point x="529" y="552" type="curve" smooth="yes"/>
      <point x="421" y="552"/>
      <point x="321" y="480"/>
      <point x="298" y="350" type="curve" smooth="yes"/>
      <point x="275" y="220"/>
      <point x="341" y="140"/>
      <point x="457" y="140" type="curve" smooth="yes"/>
      <point x="609" y="140"/>
      <point x="663" y="256"/>
      <point x="687" y="390" type="curve"/>
    </contour>
  </outline>
</glyph>
<glyph name="L" format="1">
  <advance width="551"/>
  <unicode hex="004C"/>
  <outline>
    <contour>
      <point x="204" y="0" type="line"/>
      <point x="233" y="166" type="line"/>
      <point x="579" y="166" type="line"/>
      <point x="550" y="0" type="line"/>
    </contour>
    <contour>
      <point x="195" y="700" type="line"/>
      <point x="389" y="700" type="line"/>
      <point x="266" y="0" type="line"/>
      <point x="72" y="0" type="line"/>
    </contour>
  </outline>
</glyph>
<glyph name="M" format="1">
  <advance width="915"/>
  <unicode hex="004D"/>
  <outline>
    <contour>
      <point x="703" y="480" type="line"/>
      <point x="892" y="735" type="line"/>
      <point x="884" y="0" type="line"/>
      <point x="676" y="0" type="line"/>
    </contour>
    <contour>
      <point x="284" y="735" type="line"/>
      <point x="383" y="480" type="line"/>
      <point x="238" y="0" type="line"/>
      <point x="32" y="0" type="line"/>
    </contour>
    <contour>
      <point x="892" y="735" type="line"/>
      <point x="848" y="490" type="line"/>
      <point x="469" y="65" type="line"/>
      <point x="240" y="490" type="line"/>
      <point x="284" y="735" type="line"/>
      <point x="517" y="332" type="line"/>
    </contour>
  </outline>
</glyph>
<glyph name="P" format="1">
  <advance width="645"/>
  <unicode hex="0050"/>
  <outline>
    <contour>
      <point x="195" y="700" type="line"/>
      <point x="389" y="700" type="line"/>
      <point x="266" y="0" type="line"/>
      <point x="72" y="0" type="line"/>
    </contour>
    <contour>
      <point x="292" y="542" type="line"/>
      <point x="319" y="700" type="line"/>
      <point x="454" y="700" type="line" smooth="yes"/>
      <point x="646" y="700"/>
      <point x="722" y="612"/>
      <point x="696" y="466" type="curve" smooth="yes"/>
      <point x="670" y="320"/>
      <point x="564" y="231"/>
      <point x="372" y="231" type="curve" smooth="yes"/>
      <point x="237" y="231" type="line"/>
      <point x="264" y="388" type="line"/>
      <point x="399" y="388" type="line" smooth="yes"/>
      <point x="461" y="388"/>
      <point x="500" y="416"/>
      <point x="509" y="466" type="curve" smooth="yes"/>
      <point x="518" y="516"/>
      <point x="489" y="542"/>
      <point x="427" y="542" type="curve" smooth="yes"/>
    </contour>
  </outline>
</glyph>
<glyph name="R" format="1">
  <advance width="673"/>
  <unicode hex="0052"/>
  <outline>
    <contour>
      <point x="316" y="308" type="line"/>
      <point x="516" y="308" type="line"/>
      <point x="672" y="0" type="line"/>
      <point x="445" y="0" type="line"/>
    </contour>
    <contour>
      <point x="195" y="700" type="line"/>
      <point x="389" y="700" type="line"/>
      <point x="266" y="0" type="line"/>
      <point x="72" y="0" type="line"/>
    </contour>
    <contour>
      <point x="291" y="536" type="line"/>
      <point x="319" y="700" type="line"/>
      <point x="471" y="700" type="line" smooth="yes"/>
      <point x="663" y="700"/>
      <point x="736" y="604"/>
      <point x="712" y="466" type="curve" smooth="yes"/>
      <point x="688" y="328"/>
      <point x="581" y="231"/>
      <point x="389" y="231" type="curve" smooth="yes"/>
      <point x="237" y="231" type="line"/>
      <point x="263" y="380" type="line"/>
      <point x="398" y="380" type="line" smooth="yes"/>
      <point x="460" y="380"/>
      <point x="499" y="408"/>
      <point x="508" y="458" type="curve" smooth="yes"/>
      <point x="517" y="508"/>
      <point x="488" y="536"/>
      <point x="426" y="536" type="curve" smooth="yes"/>
    </contour>
  </outline>
</glyph>
<glyph name="W" format="1">
  <advance width="1087"/>
  <unicode hex="0057"/>
  <outline>
    <contour>
      <point x="421" y="180" type="line"/>
      <point x="306" y="-44" type="line"/>
      <point x="125" y="700" type="line"/>
      <point x="358" y="700" type="line"/>
    </contour>
    <contour>
      <point x="766" y="-44" type="line"/>
      <point x="730" y="180" type="line"/>
      <point x="975" y="700" type="line"/>
      <point x="1209" y="700" type="line"/>
    </contour>
    <contour>
      <point x="306" y="-44" type="line"/>
      <point x="330" y="206" type="line"/>
      <point x="674" y="735" type="line"/>
      <point x="828" y="206" type="line"/>
      <point x="766" y="-44" type="line"/>
      <point x="604" y="342" type="line"/>
    </contour>
  </outline>
</glyph>
<glyph name="X" format="1">
  <advance width="725"/>
  <unicode hex="0058"/>
  <outline>
    <contour>
      <point x="589" y="700" type="line"/>
      <point x="832" y="700" type="line"/>
      <point x="549" y="356" type="line"/>
      <point x="724" y="0" type="line"/>
      <point x="482" y="0" type="line"/>
      <point x="402" y="214" type="line"/>
      <point x="244" y="0" type="line"/>
      <point x="2" y="0" type="line"/>
      <point x="309" y="356" type="line"/>
      <point x="149" y="700" type="line"/>
      <point x="392" y="700" type="line"/>
      <point x="457" y="514" type="line"/>
    </contour>
  </outline>
</glyph>
<glyph name="bracketleft" format="1">
  <advance width="381"/>
  <unicode hex="005B"/>
  <outline>
    <contour>
      <point x="371" y="632" type="line"/>
      <point x="247" y="-72" type="line"/>
      <point x="348" y="-72" type="line"/>
      <point x="322" y="-220" type="line"/>
      <point x="49" y="-220" type="line"/>
      <point x="226" y="780" type="line"/>
      <point x="499" y="780" type="line"/>
      <point x="472" y="632" type="line"/>
    </contour>
  </outline>
</glyph>
<glyph name="bracketright" format="1">
  <advance width="381"/>
  <unicode hex="005D"/>
  <outline>
    <contour>
      <point x="108" y="-72" type="line"/>
      <point x="232" y="632" type="line"/>
      <point x="131" y="632" type="line"/>
      <point x="158" y="780" type="line"/>
      <point x="432" y="780" type="line"/>
      <point x="255" y="-220" type="line"/>
      <point x="-19" y="-220" type="line"/>
      <point x="7" y="-72" type="line"/>
    </contour>
  </outline>
</glyph>
<glyph name="asciicircum" format="1">
  <advance width="510"/>
  <unicode hex="005E"/>
  <outline>
    <contour>
      <point x="355" y="568" type="line"/>
      <point x="264" y="444" type="line"/>
      <point x="110" y="444" type="line"/>
      <point x="327" y="710" type="line"/>
      <point x="433" y="710" type="line"/>
      <point x="556" y="444" type="line"/>
      <point x="402" y="444" type="line"/>
    </contour>
  </outline>
</glyph>
<glyph name="grave" format="1">
  <advance width="375"/>
  <unicode hex="0060"/>
  <outline>
    <contour>
      <point x="161" y="652" type="line"/>
      <point x="299" y="708" type="line"/>
      <point x="421" y="548" type="line"/>
      <point x="315" y="502" type="line"/>
    </contour>
  </outline>
</glyph>
<glyph name="a" format="1">
  <advance width="630"/>
  <unicode hex="0061"/>
  <outline>
    <contour>
      <point x="485" y="460" type="line"/>
      <point x="659" y="460" type="line"/>
      <point x="578" y="0" type="line"/>
      <point x="404" y="0" type="line"/>
    </contour>
    <contour>
      <point x="72" y="230" type="curve" smooth="yes"/>
      <point x="100" y="388"/>
      <point x="221" y="470"/>
      <point x="329" y="470" type="curve" smooth="yes"/>
      <point x="444" y="470"/>
      <point x="515" y="379"/>
      <point x="489" y="230" type="curve" smooth="yes"/>
      <point x="463" y="81"/>
      <point x="360" y="-10"/>
      <point x="245" y="-10" type="curve" smooth="yes"/>
      <point x="137" y="-10"/>
      <point x="44" y="72"/>
    </contour>
    <contour>
      <point x="254" y="230" type="curve" smooth="yes"/>
      <point x="243" y="168"/>
      <point x="280" y="126"/>
      <point x="332" y="126" type="curve" smooth="yes"/>
      <point x="378" y="126"/>
      <point x="433" y="164"/>
      <point x="445" y="230" type="curve" smooth="yes"/>
      <point x="457" y="296"/>
      <point x="414" y="334"/>
      <point x="368" y="334" type="curve" smooth="yes"/>
      <point x="316" y="334"/>
      <point x="265" y="292"/>
    </contour>
  </outline>
</glyph>
<glyph name="p" format="1">
  <advance width="630"/>
  <unicode hex="0070"/>
  <outline>
    <contour>
      <point x="189" y="-220" type="line"/>
      <point x="15" y="-220" type="line"/>
      <point x="135" y="460" type="line"/>
      <point x="309" y="460" type="line"/>
    </contour>
    <contour>
      <point x="641" y="230" type="curve" smooth="yes"/>
      <point x="612" y="64"/>
      <point x="489" y="-18"/>
      <point x="381" y="-18" type="curve" smooth="yes"/>
      <point x="257" y="-18"/>
      <point x="207" y="81"/>
      <point x="233" y="230" type="curve" smooth="yes"/>
      <point x="259" y="379"/>
      <point x="344" y="478"/>
      <point x="468" y="478" type="curve" smooth="yes"/>
      <point x="576" y="478"/>
      <point x="670" y="396"/>
    </contour>
    <contour>
      <point x="459" y="230" type="curve" smooth="yes"/>
      <point x="470" y="292"/>
      <point x="431" y="326"/>
      <point x="379" y="326" type="curve" smooth="yes"/>
      <point x="333" y="326"/>
      <point x="281" y="296"/>
      <point x="269" y="230" type="curve" smooth="yes"/>
      <point x="257" y="164"/>
      <point x="300" y="134"/>
      <point x="346" y="134" type="curve" smooth="yes"/>
      <point x="398" y="134"/>
      <point x="448" y="168"/>
    </contour>
  </outline>
</glyph>
<glyph name="s" format="1">
  <advance width="469"/>
  <unicode hex="0073"/>
  <outline>
    <contour>
      <point x="112" y="178" type="line"/>
      <point x="184" y="120"/>
      <point x="236" y="104"/>
      <point x="262" y="104" type="curve" smooth="yes"/>
      <point x="285" y="104"/>
      <point x="298" y="115"/>
      <point x="301" y="131" type="curve" smooth="yes"/>
      <point x="306" y="159"/>
      <point x="263" y="171"/>
      <point x="215" y="189" type="curve" smooth="yes"/>
      <point x="153" y="213"/>
      <point x="96" y="248"/>
      <point x="112" y="337" type="curve" smooth="yes"/>
      <point x="126" y="416"/>
      <point x="207" y="470"/>
      <point x="313" y="470" type="curve" smooth="yes"/>
      <point x="394" y="470"/>
      <point x="456" y="444"/>
      <point x="507" y="408" type="curve"/>
      <point x="436" y="294" type="line"/>
      <point x="397" y="330"/>
      <point x="349" y="354"/>
      <point x="312" y="354" type="curve" smooth="yes"/>
      <point x="282" y="354"/>
      <point x="270" y="342"/>
      <point x="268" y="330" type="curve" smooth="yes"/>
      <point x="263" y="301"/>
      <point x="312" y="294"/>
      <point x="368" y="272" type="curve" smooth="yes"/>
      <point x="429" y="248"/>
      <point x="485" y="218"/>
      <point x="470" y="130" type="curve" smooth="yes"/>
      <point x="452" y="28"/>
      <point x="378" y="-22"/>
      <point x="264" y="-22" type="curve" smooth="yes"/>
      <point x="164" y="-22"/>
      <point x="88" y="10"/>
      <point x="28" y="62" type="curve"/>
    </contour>
  </outline>
</glyph>
<glyph name="v" format="1">
  <advance width="553"/>
  <unicode hex="0076"/>
  <outline>
    <contour>
      <point x="77" y="460" type="line"/>
      <point x="261" y="460" type="line"/>
      <point x="317" y="226" type="line"/>
      <point x="455" y="460" type="line"/>
      <point x="639" y="460" type="line"/>
      <point x="266" y="-60" type="line"/>
    </contour>
  </outline>
</glyph>
<glyph name="w" format="1">
  <advance width="785"/>
  <unicode hex="0077"/>
  <outline>
    <contour>
      <point x="699" y="460" type="line"/>
      <point x="877" y="460" type="line"/>
      <point x="543" y="-26" type="line"/>
      <point x="545" y="200" type="line"/>
    </contour>
    <contour>
      <point x="411" y="278" type="line"/>
      <point x="479" y="495" type="line"/>
      <point x="592" y="184" type="line"/>
      <point x="543" y="-26" type="line"/>
    </contour>
    <contour>
      <point x="479" y="495" type="line"/>
      <point x="471" y="278" type="line"/>
      <point x="233" y="-26" type="line"/>
      <point x="258" y="184" type="line"/>
    </contour>
    <contour>
      <point x="69" y="460" type="line"/>
      <point x="249" y="460" type="line"/>
      <point x="311" y="200" type="line"/>
      <point x="233" y="-26" type="line"/>
    </contour>
  </outline>
</glyph>
<glyph name="x" format="1">
  <advance width="566"/>
  <unicode hex="0078"/>
  <outline>
    <contour>
      <point x="445" y="460" type="line"/>
      <point x="637" y="460" type="line"/>
      <point x="416" y="236" type="line"/>
      <point x="566" y="0" type="line"/>
      <point x="374" y="0" type="line"/>
      <point x="308" y="122" type="line"/>
      <point x="200" y="0" type="line"/>
      <point x="0" y="0" type="line"/>
      <point x="238" y="236" type="line"/>
      <point x="91" y="460" type="line"/>
      <point x="291" y="460" type="line"/>
      <point x="348" y="352" type="line"/>
    </contour>
  </outline>
</glyph>
<glyph name="y" format="1">
  <advance width="545"/>
  <unicode hex="0079"/>
  <outline>
    <contour>
      <point x="639" y="460" type="line"/>
      <point x="219" y="-220" type="line"/>
      <point x="47" y="-220" type="line"/>
      <point x="199" y="28" type="line"/>
      <point x="69" y="460" type="line"/>
      <point x="257" y="460" type="line"/>
      <point x="342" y="88" type="line"/>
      <point x="250" y="88" type="line"/>
      <point x="463" y="460" type="line"/>
    </contour>
  </outline>
</glyph>
<glyph name="z" format="1">
  <advance width="541"/>
  <unicode hex="007A"/>
  <outline>
    <contour>
      <point x="297" y="304" type="line"/>
      <point x="116" y="304" type="line"/>
      <point x="143" y="460" type="line"/>
      <point x="607" y="460" type="line"/>
      <point x="342" y="156" type="line"/>
      <point x="518" y="156" type="line"/>
      <point x="490" y="0" type="line"/>
      <point x="15" y="0" type="line"/>
    </contour>
  </outline>
</glyph>
<glyph name="braceleft" format="1">
  <advance width="424"/>
  <unicode hex="007B"/>
  <outline>
    <contour>
      <point x="397" y="595" type="curve" smooth="yes"/>
      <point x="378" y="490" type="line" smooth="yes"/>
      <point x="362" y="401"/>
      <point x="337" y="280"/>
      <point x="187" y="280" type="curve"/>
      <point x="191" y="300" type="line"/>
      <point x="341" y="300"/>
      <point x="324" y="179"/>
      <point x="308" y="90" type="curve" smooth="yes"/>
      <point x="289" y="-15" type="line" smooth="yes"/>
      <point x="284" y="-41"/>
      <point x="299" y="-65"/>
      <point x="329" y="-65" type="curve" smooth="yes"/>
      <point x="363" y="-65" type="line"/>
      <point x="339" y="-200" type="line"/>
      <point x="239" y="-200" type="line" smooth="yes"/>
      <point x="146" y="-200"/>
      <point x="70" y="-159"/>
      <point x="87" y="-60" type="curve" smooth="yes"/>
      <point x="119" y="118" type="line" smooth="yes"/>
      <point x="132" y="194"/>
      <point x="118" y="218"/>
      <point x="74" y="228" type="curve"/>
      <point x="96" y="352" type="line"/>
      <point x="144" y="362"/>
      <point x="166" y="386"/>
      <point x="179" y="462" type="curve" smooth="yes"/>
      <point x="211" y="640" type="line" smooth="yes"/>
      <point x="228" y="739"/>
      <point x="319" y="780"/>
      <point x="412" y="780" type="curve" smooth="yes"/>
      <point x="512" y="780" type="line"/>
      <point x="488" y="645" type="line"/>
      <point x="454" y="645" type="line" smooth="yes"/>
      <point x="424" y="645"/>
      <point x="402" y="621"/>
    </contour>
  </outline>
</glyph>
<glyph name="bar" format="1">
  <advance width="376"/>
  <unicode hex="007C"/>
  <outline>
    <contour>
      <point x="238" y="785" type="line"/>
      <point x="414" y="785" type="line"/>
      <point x="238" y="-215" type="line"/>
      <point x="62" y="-215" type="line"/>
    </contour>
  </outline>
</glyph>
<glyph name="brokenbar" format="1">
  <advance width="376"/>
  <unicode hex="00A6"/>
  <outline>
    <contour>
      <point x="223" y="695" type="line"/>
      <point x="399" y="695" type="line"/>
      <point x="350" y="422" type="line"/>
      <point x="174" y="422" type="line"/>
    </contour>
    <contour>
      <point x="325" y="278" type="line"/>
      <point x="277" y="5" type="line"/>
      <point x="101" y="5" type="line"/>
      <point x="149" y="278" type="line"/>
    </contour>
  </outline>
</glyph>
<glyph name="guillemotleft" format="1">
  <advance width="550"/>
  <unicode hex="00AB"/>
  <outline>
    <contour>
      <point x="175" y="235" type="line"/>
      <point x="69" y="255" type="line"/>
      <point x="289" y="514" type="line"/>
      <point x="382" y="445" type="line"/>
    </contour>
    <contour>
      <point x="69" y="255" type="line"/>
      <point x="184" y="285" type="line"/>
      <point x="315" y="65" type="line"/>
      <point x="197" y="-4" type="line"/>
    </contour>
    <contour>
      <point x="392" y="235" type="line"/>
      <point x="285" y="255" type="line"/>
      <point x="505" y="514" type="line"/>
      <point x="599" y="445" type="line"/>
    </contour>
    <contour>
      <point x="285" y="255" type="line"/>
      <point x="401" y="285" type="line"/>
      <point x="532" y="65" type="line"/>
      <point x="413" y="-4" type="line"/>
    </contour>
  </outline>
</glyph>
<glyph name="logicalnot" format="1">
  <advance width="659"/>
  <unicode hex="00AC"/>
  <outline>
    <contour>
      <point x="112" y="264" type="line"/>
      <point x="138" y="412" type="line"/>
      <point x="668" y="412" type="line"/>
      <point x="642" y="264" type="line"/>
    </contour>
    <contour>
      <point x="546" y="375" type="line"/>
      <point x="661" y="375" type="line"/>
      <point x="626" y="175" type="line"/>
      <point x="511" y="175" type="line"/>
    </contour>
  </outline>
</glyph>
<glyph name="registered" format="1">
  <advance width="800"/>
  <unicode hex="00AE"/>
  <outline>
    <contour>
      <point x="442" y="319" type="line"/>
      <point x="546" y="319" type="line"/>
      <point x="625" y="150" type="line"/>
      <point x="489" y="150" type="line"/>
    </contour>
    <contour>
      <point x="349" y="570" type="line"/>
      <point x="465" y="570" type="line"/>
      <point x="390" y="150" type="line"/>
      <point x="274" y="150" type="line"/>
    </contour>
    <contour>
      <point x="405" y="472" type="line"/>
      <point x="423" y="570" type="line"/>
      <point x="513" y="570" type="line" smooth="yes"/>
      <point x="629" y="570"/>
      <point x="672" y="512"/>
      <point x="659" y="438" type="curve" smooth="yes"/>
      <point x="645" y="356"/>
      <point x="580" y="297"/>
      <point x="464" y="297" type="curve" smooth="yes"/>
      <point x="374" y="297" type="line"/>
      <point x="390" y="386" type="line"/>
      <point x="470" y="386" type="line" smooth="yes"/>
      <point x="507" y="386"/>
      <point x="531" y="400"/>
      <point x="536" y="430" type="curve" smooth="yes"/>
      <point x="541" y="460"/>
      <point x="522" y="472"/>
      <point x="485" y="472" type="curve" smooth="yes"/>
    </contour>
    <contour>
      <point x="157" y="350" type="curve" smooth="yes"/>
      <point x="126" y="172"/>
      <point x="234" y="40"/>
      <point x="407" y="40" type="curve" smooth="yes"/>
      <point x="580" y="40"/>
      <point x="736" y="172"/>
      <point x="767" y="350" type="curve" smooth="yes"/>
      <point x="798" y="528"/>
      <point x="689" y="660"/>
      <point x="516" y="660" type="curve" smooth="yes"/>
      <point x="343" y="660"/>
      <point x="188" y="528"/>
    </contour>
    <contour>
      <point x="102" y="350" type="curve" smooth="yes"/>
      <point x="139" y="559"/>
      <point x="321" y="710"/>
      <point x="525" y="710" type="curve" smooth="yes"/>
      <point x="729" y="710"/>
      <point x="859" y="559"/>
      <point x="822" y="350" type="curve" smooth="yes"/>
      <point x="785" y="141"/>
      <point x="602" y="-10"/>
      <point x="398" y="-10" type="curve" smooth="yes"/>
      <point x="194" y="-10"/>
      <point x="65" y="141"/>
    </contour>
  </outline>
</glyph>
<glyph name="macron" format="1">
  <advance width="538"/>
  <unicode hex="00AF"/>
  <outline>
    <contour>
      <point x="179" y="564" type="line"/>
      <point x="206" y="712" type="line"/>
      <point x="584" y="712" type="line"/>
      <point x="557" y="564" type="line"/>
    </contour>
  </outline>
</glyph>
<glyph name="degree" format="1">
  <advance width="302"/>
  <unicode hex="00B0"/>
  <outline>
    <contour>
      <point x="121" y="596" type="curve" smooth="yes"/>
      <point x="134" y="669"/>
      <point x="199" y="720"/>
      <point x="277" y="720" type="curve" smooth="yes"/>
      <point x="355" y="720"/>
      <point x="404" y="669"/>
      <point x="391" y="596" type="curve" smooth="yes"/>
      <point x="378" y="523"/>
      <point x="311" y="472"/>
      <point x="233" y="472" type="curve" smooth="yes"/>
      <point x="155" y="472"/>
      <point x="108" y="523"/>
    </contour>
    <contour>
      <point x="205" y="596" type="curve" smooth="yes"/>
      <point x="199" y="564"/>
      <point x="218" y="544"/>
      <point x="246" y="544" type="curve" smooth="yes"/>
      <point x="274" y="544"/>
      <point x="300" y="564"/>
      <point x="306" y="596" type="curve" smooth="yes"/>
      <point x="312" y="628"/>
      <point x="292" y="648"/>
      <point x="264" y="648" type="curve" smooth="yes"/>
      <point x="236" y="648"/>
      <point x="211" y="628"/>
    </contour>
  </outline>
</glyph>
<glyph name="plusminus" format="1">
  <advance width="639"/>
  <unicode hex="00B1"/>
  <outline>
    <contour>
      <point x="66" y="8" type="line"/>
      <point x="92" y="153" type="line"/>
      <point x="601" y="153" type="line"/>
      <point x="575" y="8" type="line"/>
    </contour>
    <contour>
      <point x="123" y="328" type="line"/>
      <point x="150" y="482" type="line"/>
      <point x="659" y="482" type="line"/>
      <point x="632" y="328" type="line"/>
    </contour>
    <contour>
      <point x="341" y="620" type="line"/>
      <point x="516" y="620" type="line"/>
      <point x="441" y="190" type="line"/>
      <point x="266" y="190" type="line"/>
    </contour>
  </outline>
</glyph>
<glyph name="uni00B2" format="1">
  <advance width="427"/>
  <unicode hex="00B2"/>
  <outline>
    <contour>
      <point x="75" y="282" type="line"/>
      <point x="292" y="470" type="line" smooth="yes"/>
      <point x="335" y="508"/>
      <point x="360" y="532"/>
      <point x="366" y="566" type="curve" smooth="yes"/>
      <point x="370" y="590"/>
      <point x="358" y="612"/>
      <point x="324" y="612" type="curve" smooth="yes"/>
      <point x="290" y="612"/>
      <point x="261" y="584"/>
      <point x="254" y="544" type="curve"/>
      <point x="140" y="544" type="line"/>
      <point x="156" y="633"/>
      <point x="230" y="712"/>
      <point x="346" y="712" type="curve" smooth="yes"/>
      <point x="454" y="712"/>
      <point x="499" y="641"/>
      <point x="487" y="573" type="curve" smooth="yes"/>
      <point x="479" y="527"/>
      <point x="447" y="491"/>
      <point x="405" y="461" type="curve" smooth="yes"/>
      <point x="306" y="388" type="line"/>
      <point x="467" y="388" type="line"/>
      <point x="449" y="282" type="line"/>
    </contour>
  </outline>
</glyph>
<glyph name="uni00B3" format="1">
  <advance width="381"/>
  <unicode hex="00B3"/>
  <outline>
    <contour>
      <point x="243" y="482" type="curve"/>
      <point x="252" y="532" type="line"/>
      <point x="296" y="532"/>
      <point x="332" y="556"/>
      <point x="337" y="584" type="curve" smooth="yes"/>
      <point x="341" y="604"/>
      <point x="328" y="617"/>
      <point x="299" y="617" type="curve" smooth="yes"/>
      <point x="269" y="617"/>
      <point x="247" y="600"/>
      <point x="242" y="572" type="curve"/>
      <point x="135" y="572" type="line"/>
      <point x="149" y="649"/>
      <point x="220" y="708"/>
      <point x="316" y="708" type="curve" smooth="yes"/>
      <point x="417" y="708"/>
      <point x="464" y="657"/>
      <point x="452" y="591" type="curve" smooth="yes"/>
      <point x="439" y="515"/>
      <point x="349" y="482"/>
    </contour>
    <contour>
      <point x="233" y="269" type="curve" smooth="yes"/>
      <point x="125" y="269"/>
      <point x="76" y="343"/>
      <point x="90" y="420" type="curve"/>
      <point x="204" y="420" type="line"/>
      <point x="197" y="378"/>
      <point x="224" y="361"/>
      <point x="255" y="361" type="curve" smooth="yes"/>
      <point x="286" y="361"/>
      <point x="312" y="372"/>
      <point x="318" y="406" type="curve" smooth="yes"/>
      <point x="323" y="436"/>
      <point x="303" y="460"/>
      <point x="239" y="460" type="curve"/>
      <point x="249" y="517" type="line"/>
      <point x="369" y="517"/>
      <point x="445" y="482"/>
      <point x="430" y="396" type="curve" smooth="yes"/>
      <point x="417" y="322"/>
      <point x="345" y="269"/>
    </contour>
  </outline>
</glyph>
<glyph name="paragraph" format="1">
  <advance width="699"/>
  <unicode hex="00B6"/>
  <outline>
    <contour>
      <point x="393" y="598" type="line"/>
      <point x="411" y="700" type="line"/>
      <point x="651" y="700" type="line"/>
      <point x="633" y="598" type="line"/>
    </contour>
    <contour>
      <point x="611" y="700" type="line"/>
      <point x="763" y="700" type="line"/>
      <point x="601" y="-220" type="line"/>
      <point x="449" y="-220" type="line"/>
    </contour>
    <contour>
      <point x="411" y="700" type="line"/>
      <point x="562" y="700" type="line"/>
      <point x="400" y="-220" type="line"/>
      <point x="249" y="-220" type="line"/>
    </contour>
    <contour>
      <point x="336" y="270" type="line"/>
      <point x="211" y="270"/>
      <point x="121" y="346"/>
      <point x="146" y="485" type="curve" smooth="yes"/>
      <point x="171" y="624"/>
      <point x="286" y="700"/>
      <point x="411" y="700" type="curve"/>
    </contour>
  </outline>
</glyph>
<glyph name="periodcentered" format="1">
  <advance width="329"/>
  <unicode hex="00B7"/>
  <outline>
    <contour>
      <point x="107" y="276" type="curve" smooth="yes"/>
      <point x="117" y="332"/>
      <point x="169" y="380"/>
      <point x="231" y="380" type="curve" smooth="yes"/>
      <point x="293" y="380"/>
      <point x="330" y="332"/>
      <point x="320" y="276" type="curve" smooth="yes"/>
      <point x="310" y="220"/>
      <point x="257" y="173"/>
      <point x="195" y="173" type="curve" smooth="yes"/>
      <point x="133" y="173"/>
      <point x="97" y="220"/>
    </contour>
  </outline>
</glyph>
<glyph name="cedilla" format="1">
  <advance width="406"/>
  <unicode hex="00B8"/>
  <outline>
    <contour>
      <point x="193" y="74" type="line"/>
      <point x="317" y="70" type="line"/>
      <point x="172" y="-86" type="line"/>
      <point x="69" y="-128" type="line"/>
    </contour>
    <contour>
      <point x="327" y="-155" type="curve"/>
      <point x="219" y="-144" type="line"/>
      <point x="224" y="-117"/>
      <point x="191" y="-113"/>
      <point x="161" y="-113" type="curve" smooth="yes"/>
      <point x="151" y="-113"/>
      <point x="111" y="-114"/>
      <point x="69" y="-128" type="curve"/>
      <point x="149" y="-82" type="line"/>
      <point x="182" y="-54"/>
      <point x="209" y="-50"/>
      <point x="247" y="-50" type="curve" smooth="yes"/>
      <point x="289" y="-50"/>
      <point x="340" y="-84"/>
    </contour>
    <contour>
      <point x="327" y="-155" type="line"/>
      <point x="314" y="-231"/>
      <point x="234" y="-269"/>
      <point x="168" y="-269" type="curve" smooth="yes"/>
      <point x="106" y="-269"/>
      <point x="61" y="-259"/>
      <point x="14" y="-229" type="curve"/>
      <point x="77" y="-152" type="line"/>
      <point x="102" y="-171"/>
      <point x="140" y="-178"/>
      <point x="158" y="-178" type="curve" smooth="yes"/>
      <point x="192" y="-178"/>
      <point x="215" y="-168"/>
      <point x="219" y="-144" type="curve"/>
    </contour>
  </outline>
</glyph>
<glyph name="uni00B9" format="1">
  <advance width="486"/>
  <unicode hex="00B9"/>
  <outline>
    <contour>
      <point x="227" y="560" type="line"/>
      <point x="244" y="660" type="line"/>
      <point x="472" y="702" type="line"/>
      <point x="396" y="274" type="line"/>
      <point x="284" y="274" type="line"/>
      <point x="339" y="586" type="line"/>
    </contour>
  </outline>
</glyph>
<glyph name="guillemotright" format="1">
  <advance width="550"/>
  <unicode hex="00BB"/>
  <outline>
    <contour>
      <point x="464" y="275" type="line"/>
      <point x="572" y="255" type="line"/>
      <point x="352" y="-4" type="line"/>
      <point x="257" y="65" type="line"/>
    </contour>
    <contour>
      <point x="572" y="255" type="line"/>
      <point x="456" y="225" type="line"/>
      <point x="324" y="445" type="line"/>
      <point x="444" y="514" type="line"/>
    </contour>
    <contour>
      <point x="248" y="275" type="line"/>
      <point x="355" y="255" type="line"/>
      <point x="135" y="-4" type="line"/>
      <point x="41" y="65" type="line"/>
    </contour>
    <contour>
      <point x="355" y="255" type="line"/>
      <point x="240" y="225" type="line"/>
      <point x="108" y="445" type="line"/>
      <point x="227" y="514" type="line"/>
    </contour>
  </outline>
</glyph>
<glyph name="onehalf" format="1">
  <advance width="916"/>
  <unicode hex="00BD"/>
  <outline>
    <contour>
      <point x="757" y="700" type="line"/>
      <point x="863" y="700" type="line"/>
      <point x="220" y="0" type="line"/>
      <point x="114" y="0" type="line"/>
    </contour>
    <contour>
      <point x="121" y="560" type="line"/>
      <point x="138" y="660" type="line"/>
      <point x="366" y="702" type="line"/>
      <point x="290" y="274" type="line"/>
      <point x="178" y="274" type="line"/>
      <point x="233" y="586" type="line"/>
    </contour>
    <contour>
      <point x="510" y="2" type="line"/>
      <point x="728" y="190" type="line" smooth="yes"/>
      <point x="771" y="228"/>
      <point x="794" y="252"/>
      <point x="800" y="286" type="curve" smooth="yes"/>
      <point x="804" y="310"/>
      <point x="793" y="332"/>
      <point x="759" y="332" type="curve" smooth="yes"/>
      <point x="725" y="332"/>
      <point x="697" y="304"/>
      <point x="690" y="264" type="curve"/>
      <point x="575" y="264" type="line"/>
      <point x="591" y="353"/>
      <point x="664" y="432"/>
      <point x="780" y="432" type="curve" smooth="yes"/>
      <point x="888" y="432"/>
      <point x="935" y="361"/>
      <point x="923" y="293" type="curve" smooth="yes"/>
      <point x="915" y="247"/>
      <point x="883" y="211"/>
      <point x="841" y="181" type="curve" smooth="yes"/>
      <point x="741" y="108" type="line"/>
      <point x="903" y="108" type="line"/>
      <point x="884" y="2" type="line"/>
    </contour>
  </outline>
</glyph>
<glyph name="threequarters" format="1">
  <advance width="897"/>
  <unicode hex="00BE"/>
  <outline>
    <contour>
      <point x="820" y="700" type="line"/>
      <point x="925" y="700" type="line"/>
      <point x="282" y="0" type="line"/>
      <point x="177" y="0" type="line"/>
    </contour>
    <contour>
      <point x="252" y="482" type="curve"/>
      <point x="261" y="532" type="line"/>
      <point x="305" y="532"/>
      <point x="340" y="556"/>
      <point x="345" y="584" type="curve" smooth="yes"/>
      <point x="349" y="604"/>
      <point x="338" y="617"/>
      <point x="309" y="617" type="curve" smooth="yes"/>
      <point x="279" y="617"/>
      <point x="256" y="600"/>
      <point x="251" y="572" type="curve"/>
      <point x="143" y="572" type="line"/>
      <point x="157" y="649"/>
      <point x="229" y="708"/>
      <point x="325" y="708" type="curve" smooth="yes"/>
      <point x="426" y="708"/>
      <point x="474" y="657"/>
      <point x="462" y="591" type="curve" smooth="yes"/>
      <point x="449" y="515"/>
      <point x="358" y="482"/>
    </contour>
    <contour>
      <point x="242" y="269" type="curve" smooth="yes"/>
      <point x="134" y="269"/>
      <point x="84" y="343"/>
      <point x="98" y="420" type="curve"/>
      <point x="214" y="420" type="line"/>
      <point x="207" y="378"/>
      <point x="233" y="361"/>
      <point x="264" y="361" type="curve" smooth="yes"/>
      <point x="295" y="361"/>
      <point x="320" y="372"/>
      <point x="326" y="406" type="curve" smooth="yes"/>
      <point x="331" y="436"/>
      <point x="312" y="460"/>
      <point x="248" y="460" type="curve"/>
      <point x="258" y="517" type="line"/>
      <point x="378" y="517"/>
      <point x="455" y="482"/>
      <point x="440" y="396" type="curve" smooth="yes"/>
      <point x="427" y="322"/>
      <point x="354" y="269"/>
    </contour>
    <contour>
      <point x="477" y="72" type="line"/>
      <point x="587" y="154" type="line"/>
      <point x="774" y="154" type="line" smooth="yes"/>
      <point x="787" y="170" type="line" smooth="yes"/>
      <point x="900" y="170" type="line"/>
      <point x="883" y="72" type="line"/>
    </contour>
    <contour>
      <point x="601" y="110" type="line"/>
      <point x="477" y="72" type="line"/>
      <point x="786" y="420" type="line"/>
      <point x="878" y="420" type="line"/>
      <point x="804" y="0" type="line"/>
      <point x="682" y="0" type="line"/>
      <point x="699" y="94" type="line" smooth="yes"/>
      <point x="714" y="100" type="line" smooth="yes"/>
      <point x="743" y="264" type="line"/>
    </contour>
  </outline>
</glyph>
<glyph name="Agrave" format="1">
  <advance width="757"/>
  <unicode hex="00C0"/>
  <outline>
    <contour>
      <point x="215" y="112" type="line"/>
      <point x="247" y="256" type="line"/>
      <point x="606" y="256" type="line"/>
      <point x="585" y="112" type="line"/>
    </contour>
    <contour>
      <point x="452" y="412" type="line"/>
      <point x="323" y="203" type="line"/>
      <point x="327" y="159" type="line"/>
      <point x="218" y="0" type="line"/>
      <point x="-4" y="0" type="line"/>
      <point x="511" y="747" type="line"/>
      <point x="760" y="0" type="line"/>
      <point x="540" y="0" type="line"/>
      <point x="487" y="152" type="line"/>
      <point x="507" y="202" type="line"/>
    </contour>
    <contour>
      <point x="377" y="957" type="line"/>
      <point x="515" y="1014" type="line"/>
      <point x="636" y="854" type="line"/>
      <point x="530" y="807" type="line"/>
    </contour>
  </outline>
</glyph>
<glyph name="Adieresis" format="1">
  <advance width="757"/>
  <unicode hex="00C4"/>
  <outline>
    <contour>
      <point x="215" y="112" type="line"/>
      <point x="247" y="256" type="line"/>
      <point x="606" y="256" type="line"/>
      <point x="585" y="112" type="line"/>
    </contour>
    <contour>
      <point x="452" y="412" type="line"/>
      <point x="323" y="203" type="line"/>
      <point x="327" y="159" type="line"/>
      <point x="218" y="0" type="line"/>
      <point x="-4" y="0" type="line"/>
      <point x="511" y="747" type="line"/>
      <point x="760" y="0" type="line"/>
      <point x="540" y="0" type="line"/>
      <point x="487" y="152" type="line"/>
      <point x="507" y="202" type="line"/>
    </contour>
    <contour>
      <point x="580" y="827" type="curve" smooth="yes"/>
      <point x="589" y="881"/>
      <point x="640" y="917"/>
      <point x="694" y="917" type="curve" smooth="yes"/>
      <point x="748" y="917"/>
      <point x="785" y="881"/>
      <point x="776" y="827" type="curve" smooth="yes"/>
      <point x="767" y="773"/>
      <point x="716" y="737"/>
      <point x="662" y="737" type="curve" smooth="yes"/>
      <point x="608" y="737"/>
      <point x="571" y="773"/>
    </contour>
    <contour>
      <point x="269" y="832" type="curve" smooth="yes"/>
      <point x="278" y="886"/>
      <point x="329" y="922"/>
      <point x="383" y="922" type="curve" smooth="yes"/>
      <point x="437" y="922"/>
      <point x="474" y="886"/>
      <point x="465" y="832" type="curve" smooth="yes"/>
      <point x="456" y="778"/>
      <point x="405" y="742"/>
      <point x="351" y="742" type="curve" smooth="yes"/>
      <point x="297" y="742"/>
      <point x="260" y="778"/>
    </contour>
  </outline>
</glyph>
<glyph name="Aring" format="1">
  <advance width="757"/>
  <unicode hex="00C5"/>
  <outline>
    <contour>
      <point x="215" y="112" type="line"/>
      <point x="247" y="256" type="line"/>
      <point x="606" y="256" type="line"/>
      <point x="585" y="112" type="line"/>
    </contour>
    <contour>
      <point x="452" y="412" type="line"/>
      <point x="323" y="203" type="line"/>
      <point x="327" y="159" type="line"/>
      <point x="218" y="0" type="line"/>
      <point x="-4" y="0" type="line"/>
      <point x="511" y="747" type="line"/>
      <point x="760" y="0" type="line"/>
      <point x="540" y="0" type="line"/>
      <point x="487" y="152" type="line"/>
      <point x="507" y="202" type="line"/>
    </contour>
    <contour>
      <point x="388" y="801" type="curve" smooth="yes"/>
      <point x="401" y="873"/>
      <point x="465" y="922"/>
      <point x="540" y="922" type="curve" smooth="yes"/>
      <point x="615" y="922"/>
      <point x="665" y="873"/>
      <point x="652" y="801" type="curve" smooth="yes"/>
      <point x="639" y="729"/>
      <point x="573" y="681"/>
      <point x="498" y="681" type="curve" smooth="yes"/>
      <point x="423" y="681"/>
      <point x="375" y="729"/>
    </contour>
    <contour>
      <point x="475" y="801" type="curve" smooth="yes"/>
      <point x="470" y="772"/>
      <point x="486" y="756"/>
      <point x="511" y="756" type="curve" smooth="yes"/>
      <point x="536" y="756"/>
      <point x="560" y="772"/>
      <point x="565" y="801" type="curve" smooth="yes"/>
      <point x="570" y="830"/>
      <point x="552" y="848"/>
      <point x="527" y="848" type="curve" smooth="yes"/>
      <point x="502" y="848"/>
      <point x="480" y="830"/>
    </contour>
  </outline>
</glyph>
<glyph name="AE" format="1">
  <advance width="1122"/>
  <unicode hex="00C6"/>
  <outline>
    <contour>
      <point x="309" y="132" type="line"/>
      <point x="349" y="310" type="line"/>
      <point x="649" y="310" type="line"/>
      <point x="617" y="132" type="line"/>
    </contour>
    <contour>
      <point x="562" y="700" type="line"/>
      <point x="746" y="660" type="line"/>
      <point x="266" y="0" type="line"/>
      <point x="17" y="0" type="line"/>
    </contour>
    <contour>
      <point x="658" y="0" type="line"/>
      <point x="686" y="158" type="line"/>
      <point x="1080" y="158" type="line"/>
      <point x="1052" y="0" type="line"/>
    </contour>
    <contour>
      <point x="762" y="542" type="line"/>
      <point x="562" y="700" type="line"/>
      <point x="1176" y="700" type="line"/>
      <point x="1148" y="542" type="line"/>
    </contour>
    <contour>
      <point x="709" y="288" type="line"/>
      <point x="736" y="440" type="line"/>
      <point x="1110" y="440" type="line"/>
      <point x="1083" y="288" type="line"/>
    </contour>
    <contour>
      <point x="691" y="700" type="line"/>
      <point x="902" y="700" type="line"/>
      <point x="778" y="0" type="line"/>
      <point x="568" y="0" type="line"/>
    </contour>
  </outline>
</glyph>
<glyph name="Ccedilla" format="1">
  <advance width="705"/>
  <unicode hex="00C7"/>
  <outline>
    <contour>
      <point x="307" y="350" type="curve" smooth="yes"/>
      <point x="286" y="232"/>
      <point x="363" y="166"/>
      <point x="469" y="166" type="curve" smooth="yes"/>
      <point x="568" y="166"/>
      <point x="636" y="210"/>
      <point x="689" y="256" type="curve"/>
      <point x="652" y="50" type="line"/>
      <point x="589" y="10"/>
      <point x="525" y="-18"/>
      <point x="423" y="-18" type="curve" smooth="yes"/>
      <point x="189" y="-18"/>
      <point x="55" y="129"/>
      <point x="94" y="350" type="curve" smooth="yes"/>
      <point x="133" y="571"/>
      <point x="319" y="718"/>
      <point x="553" y="718" type="curve" smooth="yes"/>
      <point x="655" y="718"/>
      <point x="710" y="690"/>
      <point x="758" y="650" type="curve"/>
      <point x="722" y="444" type="line"/>
      <point x="685" y="490"/>
      <point x="633" y="534"/>
      <point x="534" y="534" type="curve" smooth="yes"/>
      <point x="428" y="534"/>
      <point x="328" y="468"/>
    </contour>
    <contour>
      <point x="366" y="61" type="line"/>
      <point x="490" y="56" type="line"/>
      <point x="345" y="-100" type="line"/>
      <point x="242" y="-142" type="line"/>
    </contour>
    <contour>
      <point x="500" y="-169" type="curve"/>
      <point x="393" y="-158" type="line"/>
      <point x="398" y="-131"/>
      <point x="364" y="-126"/>
      <point x="334" y="-126" type="curve" smooth="yes"/>
      <point x="324" y="-126"/>
      <point x="284" y="-128"/>
      <point x="242" y="-142" type="curve"/>
      <point x="322" y="-96" type="line"/>
      <point x="354" y="-68"/>
      <point x="383" y="-64"/>
      <point x="421" y="-64" type="curve" smooth="yes"/>
      <point x="463" y="-64"/>
      <point x="513" y="-98"/>
    </contour>
    <contour>
      <point x="500" y="-169" type="line"/>
      <point x="487" y="-245"/>
      <point x="407" y="-282"/>
      <point x="341" y="-282" type="curve" smooth="yes"/>
      <point x="279" y="-282"/>
      <point x="234" y="-273"/>
      <point x="187" y="-243" type="curve"/>
      <point x="250" y="-165" type="line"/>
      <point x="274" y="-184"/>
      <point x="313" y="-191"/>
      <point x="331" y="-191" type="curve" smooth="yes"/>
      <point x="365" y="-191"/>
      <point x="389" y="-182"/>
      <point x="393" y="-158" type="curve"/>
    </contour>
  </outline>
</glyph>
<glyph name="Egrave" format="1">
  <advance width="619"/>
  <unicode hex="00C8"/>
  <outline>
    <contour>
      <point x="204" y="0" type="line"/>
      <point x="232" y="158" type="line"/>
      <point x="585" y="158" type="line"/>
      <point x="558" y="0" type="line"/>
    </contour>
    <contour>
      <point x="300" y="542" type="line"/>
      <point x="327" y="700" type="line"/>
      <point x="681" y="700" type="line"/>
      <point x="653" y="542" type="line"/>
    </contour>
    <contour>
      <point x="255" y="288" type="line"/>
      <point x="282" y="440" type="line"/>
      <point x="615" y="440" type="line"/>
      <point x="588" y="288" type="line"/>
    </contour>
    <contour>
      <point x="195" y="700" type="line"/>
      <point x="382" y="700" type="line"/>
      <point x="258" y="0" type="line"/>
      <point x="72" y="0" type="line"/>
    </contour>
    <contour>
      <point x="309" y="936" type="line"/>
      <point x="446" y="992" type="line"/>
      <point x="568" y="832" type="line"/>
      <point x="462" y="786" type="line"/>
    </contour>
  </outline>
</glyph>
<glyph name="Eacute" format="1">
  <advance width="619"/>
  <unicode hex="00C9"/>
  <outline>
    <contour>
      <point x="204" y="0" type="line"/>
      <point x="232" y="158" type="line"/>
      <point x="585" y="158" type="line"/>
      <point x="558" y="0" type="line"/>
    </contour>
    <contour>
      <point x="300" y="542" type="line"/>
      <point x="327" y="700" type="line"/>
      <point x="681" y="700" type="line"/>
      <point x="653" y="542" type="line"/>
    </contour>
    <contour>
      <point x="255" y="288" type="line"/>
      <point x="282" y="440" type="line"/>
      <point x="615" y="440" type="line"/>
      <point x="588" y="288" type="line"/>
    </contour>
    <contour>
      <point x="195" y="700" type="line"/>
      <point x="382" y="700" type="line"/>
      <point x="258" y="0" type="line"/>
      <point x="72" y="0" type="line"/>
    </contour>
    <contour>
      <point x="647" y="936" type="line"/>
      <point x="440" y="786" type="line"/>
      <point x="351" y="832" type="line"/>
      <point x="529" y="992" type="line"/>
    </contour>
  </outline>
</glyph>
<glyph name="Edieresis" format="1">
  <advance width="619"/>
  <unicode hex="00CB"/>
  <outline>
    <contour>
      <point x="204" y="0" type="line"/>
      <point x="232" y="158" type="line"/>
      <point x="585" y="158" type="line"/>
      <point x="558" y="0" type="line"/>
    </contour>
    <contour>
      <point x="300" y="542" type="line"/>
      <point x="327" y="700" type="line"/>
      <point x="681" y="700" type="line"/>
      <point x="653" y="542" type="line"/>
    </contour>
    <contour>
      <point x="255" y="288" type="line"/>
      <point x="282" y="440" type="line"/>
      <point x="615" y="440" type="line"/>
      <point x="588" y="288" type="line"/>
    </contour>
    <contour>
      <point x="195" y="700" type="line"/>
      <point x="382" y="700" type="line"/>
      <point x="258" y="0" type="line"/>
      <point x="72" y="0" type="line"/>
    </contour>
    <contour>
      <point x="499" y="868" type="curve" smooth="yes"/>
      <point x="508" y="922"/>
      <point x="558" y="958"/>
      <point x="612" y="958" type="curve" smooth="yes"/>
      <point x="666" y="958"/>
      <point x="704" y="922"/>
      <point x="695" y="868" type="curve" smooth="yes"/>
      <point x="686" y="814"/>
      <point x="635" y="778"/>
      <point x="581" y="778" type="curve" smooth="yes"/>
      <point x="527" y="778"/>
      <point x="490" y="814"/>
    </contour>
    <contour>
      <point x="242" y="868" type="curve" smooth="yes"/>
      <point x="251" y="922"/>
      <point x="301" y="958"/>
      <point x="355" y="958" type="curve" smooth="yes"/>
      <point x="409" y="958"/>
      <point x="447" y="922"/>
      <point x="438" y="868" type="curve" smooth="yes"/>
      <point x="429" y="814"/>
      <point x="378" y="778"/>
      <point x="324" y="778" type="curve" smooth="yes"/>
      <point x="270" y="778"/>
      <point x="233" y="814"/>
    </contour>
  </outline>
</glyph>
<glyph name="Icircumflex" format="1">
  <advance width="342"/>
  <unicode hex="00CE"/>
  <outline>
    <contour>
      <point x="195" y="700" type="line"/>
      <point x="394" y="700" type="line"/>
      <point x="270" y="0" type="line"/>
      <point x="72" y="0" type="line"/>
    </contour>
    <contour>
      <point x="319" y="890" type="line"/>
      <point x="193" y="794" type="line"/>
      <point x="150" y="834" type="line"/>
      <point x="334" y="974" type="line"/>
      <point x="470" y="834" type="line"/>
      <point x="413" y="794" type="line"/>
    </contour>
  </outline>
</glyph>
<glyph name="Idieresis" format="1">
  <advance width="342"/>
  <unicode hex="00CF"/>
  <outline>
    <contour>
      <point x="195" y="700" type="line"/>
      <point x="394" y="700" type="line"/>
      <point x="270" y="0" type="line"/>
      <point x="72" y="0" type="line"/>
    </contour>
    <contour>
      <point x="355" y="868" type="curve" smooth="yes"/>
      <point x="364" y="922"/>
      <point x="415" y="958"/>
      <point x="469" y="958" type="curve" smooth="yes"/>
      <point x="523" y="958"/>
      <point x="560" y="922"/>
      <point x="551" y="868" type="curve" smooth="yes"/>
      <point x="542" y="814"/>
      <point x="491" y="778"/>
      <point x="437" y="778" type="curve" smooth="yes"/>
      <point x="383" y="778"/>
      <point x="346" y="814"/>
    </contour>
    <contour>
      <point x="98" y="868" type="curve" smooth="yes"/>
      <point x="107" y="922"/>
      <point x="158" y="958"/>
      <point x="212" y="958" type="curve" smooth="yes"/>
      <point x="266" y="958"/>
      <point x="303" y="922"/>
      <point x="294" y="868" type="curve" smooth="yes"/>
      <point x="285" y="814"/>
      <point x="234" y="778"/>
      <point x="180" y="778" type="curve" smooth="yes"/>
      <point x="126" y="778"/>
      <point x="89" y="814"/>
    </contour>
  </outline>
</glyph>
<glyph name="Eth" format="1">
  <advance width="749"/>
  <unicode hex="00D0"/>
  <outline>
    <contour>
      <point x="297" y="530" type="line"/>
      <point x="327" y="700" type="line"/>
      <point x="458" y="700" type="line" smooth="yes"/>
      <point x="694" y="700"/>
      <point x="817" y="568"/>
      <point x="779" y="350" type="curve"/>
      <point x="576" y="350" type="line"/>
      <point x="602" y="496"/>
      <point x="513" y="530"/>
      <point x="420" y="530" type="curve" smooth="yes"/>
    </contour>
    <contour>
      <point x="334" y="0" type="curve" smooth="yes"/>
      <point x="204" y="0" type="line"/>
      <point x="234" y="170" type="line"/>
      <point x="356" y="170" type="line" smooth="yes"/>
      <point x="449" y="170"/>
      <point x="550" y="204"/>
      <point x="576" y="350" type="curve"/>
      <point x="779" y="350" type="line"/>
      <point x="741" y="132"/>
      <point x="570" y="0"/>
    </contour>
    <contour>
      <point x="195" y="700" type="line"/>
      <point x="397" y="700" type="line"/>
      <point x="274" y="0" type="line"/>
      <point x="72" y="0" type="line"/>
    </contour>
    <contour>
      <point x="59" y="300" type="line"/>
      <point x="78" y="408" type="line"/>
      <point x="443" y="408" type="line"/>
      <point x="424" y="300" type="line"/>
    </contour>
  </outline>
</glyph>
<glyph name="Ocircumflex" format="1">
  <advance width="830"/>
  <unicode hex="00D4"/>
  <outline>
    <contour>
      <point x="300" y="350" type="curve" smooth="yes"/>
      <point x="280" y="236"/>
      <point x="335" y="159"/>
      <point x="443" y="159" type="curve" smooth="yes"/>
      <point x="551" y="159"/>
      <point x="634" y="236"/>
      <point x="654" y="350" type="curve" smooth="yes"/>
      <point x="674" y="464"/>
      <point x="622" y="541"/>
      <point x="510" y="541" type="curve" smooth="yes"/>
      <point x="402" y="541"/>
      <point x="320" y="464"/>
    </contour>
    <contour>
      <point x="94" y="350" type="curve" smooth="yes"/>
      <point x="133" y="570"/>
      <point x="326" y="718"/>
      <point x="542" y="718" type="curve" smooth="yes"/>
      <point x="762" y="718"/>
      <point x="900" y="570"/>
      <point x="861" y="350" type="curve" smooth="yes"/>
      <point x="822" y="130"/>
      <point x="634" y="-26"/>
      <point x="410" y="-26" type="curve" smooth="yes"/>
      <point x="186" y="-26"/>
      <point x="55" y="130"/>
    </contour>
    <contour>
      <point x="584" y="890" type="line"/>
      <point x="458" y="794" type="line"/>
      <point x="415" y="834" type="line"/>
      <point x="599" y="974" type="line"/>
      <point x="735" y="834" type="line"/>
      <point x="678" y="794" type="line"/>
    </contour>
  </outline>
</glyph>
<glyph name="Otilde" format="1">
  <advance width="830"/>
  <unicode hex="00D5"/>
  <outline>
    <contour>
      <point x="300" y="350" type="curve" smooth="yes"/>
      <point x="280" y="236"/>
      <point x="335" y="159"/>
      <point x="443" y="159" type="curve" smooth="yes"/>
      <point x="551" y="159"/>
      <point x="634" y="236"/>
      <point x="654" y="350" type="curve" smooth="yes"/>
      <point x="674" y="464"/>
      <point x="622" y="541"/>
      <point x="510" y="541" type="curve" smooth="yes"/>
      <point x="402" y="541"/>
      <point x="320" y="464"/>
    </contour>
    <contour>
      <point x="94" y="350" type="curve" smooth="yes"/>
      <point x="133" y="570"/>
      <point x="326" y="718"/>
      <point x="542" y="718" type="curve" smooth="yes"/>
      <point x="762" y="718"/>
      <point x="900" y="570"/>
      <point x="861" y="350" type="curve" smooth="yes"/>
      <point x="822" y="130"/>
      <point x="634" y="-26"/>
      <point x="410" y="-26" type="curve" smooth="yes"/>
      <point x="186" y="-26"/>
      <point x="55" y="130"/>
    </contour>
    <contour>
      <point x="405" y="852" type="line"/>
      <point x="424" y="901"/>
      <point x="478" y="934"/>
      <point x="523" y="934" type="curve" smooth="yes"/>
      <point x="588" y="934"/>
      <point x="585" y="888"/>
      <point x="639" y="888" type="curve" smooth="yes"/>
      <point x="658" y="888"/>
      <point x="677" y="904"/>
      <point x="703" y="936" type="curve"/>
      <point x="742" y="892" type="line"/>
      <point x="719" y="855"/>
      <point x="673" y="820"/>
      <point x="623" y="820" type="curve" smooth="yes"/>
      <point x="568" y="820"/>
      <point x="555" y="866"/>
      <point x="510" y="866" type="curve" smooth="yes"/>
      <point x="469" y="866"/>
      <point x="454" y="831"/>
      <point x="451" y="816" type="curve"/>
    </contour>
  </outline>
</glyph>
<glyph name="Odieresis" format="1">
  <advance width="830"/>
  <unicode hex="00D6"/>
  <outline>
    <contour>
      <point x="300" y="350" type="curve" smooth="yes"/>
      <point x="280" y="236"/>
      <point x="335" y="159"/>
      <point x="443" y="159" type="curve" smooth="yes"/>
      <point x="551" y="159"/>
      <point x="634" y="236"/>
      <point x="654" y="350" type="curve" smooth="yes"/>
      <point x="674" y="464"/>
      <point x="622" y="541"/>
      <point x="510" y="541" type="curve" smooth="yes"/>
      <point x="402" y="541"/>
      <point x="320" y="464"/>
    </contour>
    <contour>
      <point x="94" y="350" type="curve" smooth="yes"/>
      <point x="133" y="570"/>
      <point x="326" y="718"/>
      <point x="542" y="718" type="curve" smooth="yes"/>
      <point x="762" y="718"/>
      <point x="900" y="570"/>
      <point x="861" y="350" type="curve" smooth="yes"/>
      <point x="822" y="130"/>
      <point x="634" y="-26"/>
      <point x="410" y="-26" type="curve" smooth="yes"/>
      <point x="186" y="-26"/>
      <point x="55" y="130"/>
    </contour>
    <contour>
      <point x="599" y="868" type="curve" smooth="yes"/>
      <point x="608" y="922"/>
      <point x="658" y="958"/>
      <point x="712" y="958" type="curve" smooth="yes"/>
      <point x="766" y="958"/>
      <point x="804" y="922"/>
      <point x="795" y="868" type="curve" smooth="yes"/>
      <point x="786" y="814"/>
      <point x="735" y="778"/>
      <point x="681" y="778" type="curve" smooth="yes"/>
      <point x="627" y="778"/>
      <point x="590" y="814"/>
    </contour>
    <contour>
      <point x="342" y="868" type="curve" smooth="yes"/>
      <point x="351" y="922"/>
      <point x="401" y="958"/>
      <point x="455" y="958" type="curve" smooth="yes"/>
      <point x="509" y="958"/>
      <point x="547" y="922"/>
      <point x="538" y="868" type="curve" smooth="yes"/>
      <point x="529" y="814"/>
      <point x="478" y="778"/>
      <point x="424" y="778" type="curve" smooth="yes"/>
      <point x="370" y="778"/>
      <point x="333" y="814"/>
    </contour>
  </outline>
</glyph>
<glyph name="multiply" format="1">
  <advance width="596"/>
  <unicode hex="00D7"/>
  <outline>
    <contour>
      <point x="145" y="-2" type="line"/>
      <point x="59" y="102" type="line"/>
      <point x="242" y="255" type="line"/>
      <point x="112" y="408" type="line"/>
      <point x="236" y="512" type="line"/>
      <point x="361" y="356" type="line"/>
      <point x="541" y="512" type="line"/>
      <point x="627" y="408" type="line"/>
      <point x="443" y="255" type="line"/>
      <point x="574" y="102" type="line"/>
      <point x="450" y="-2" type="line"/>
      <point x="325" y="154" type="line"/>
    </contour>
  </outline>
</glyph>
<glyph name="Oslash" format="1">
  <advance width="790"/>
  <unicode hex="00D8"/>
  <outline>
    <contour>
      <point x="300" y="350" type="curve" smooth="yes"/>
      <point x="279" y="232"/>
      <point x="335" y="159"/>
      <point x="443" y="159" type="curve" smooth="yes"/>
      <point x="551" y="159"/>
      <point x="633" y="232"/>
      <point x="654" y="350" type="curve" smooth="yes"/>
      <point x="675" y="468"/>
      <point x="618" y="541"/>
      <point x="510" y="541" type="curve" smooth="yes"/>
      <point x="402" y="541"/>
      <point x="321" y="468"/>
    </contour>
    <contour>
      <point x="94" y="350" type="curve" smooth="yes"/>
      <point x="133" y="570"/>
      <point x="322" y="718"/>
      <point x="542" y="718" type="curve" smooth="yes"/>
      <point x="762" y="718"/>
      <point x="900" y="570"/>
      <point x="861" y="350" type="curve" smooth="yes"/>
      <point x="822" y="130"/>
      <point x="630" y="-26"/>
      <point x="410" y="-26" type="curve" smooth="yes"/>
      <point x="190" y="-26"/>
      <point x="55" y="130"/>
    </contour>
    <contour>
      <point x="834" y="758" type="line"/>
      <point x="899" y="702" type="line"/>
      <point x="116" y="-58" type="line"/>
      <point x="52" y="-2" type="line"/>
    </contour>
  </outline>
</glyph>
<glyph name="Uacute" format="1">
  <advance width="723"/>
  <unicode hex="00DA"/>
  <outline>
    <contour>
      <point x="190" y="700" type="line"/>
      <point x="385" y="700" type="line"/>
      <point x="305" y="246" type="line" smooth="yes"/>
      <point x="294" y="182"/>
      <point x="318" y="139"/>
      <point x="386" y="139" type="curve" smooth="yes"/>
      <point x="454" y="139"/>
      <point x="494" y="182"/>
      <point x="505" y="246" type="curve" smooth="yes"/>
      <point x="585" y="700" type="line"/>
      <point x="780" y="700" type="line"/>
      <point x="697" y="230" type="line" smooth="yes"/>
      <point x="664" y="42"/>
      <point x="517" y="-34"/>
      <point x="355" y="-34" type="curve" smooth="yes"/>
      <point x="193" y="-34"/>
      <point x="74" y="42"/>
      <point x="107" y="230" type="curve" smooth="yes"/>
    </contour>
    <contour>
      <point x="696" y="928" type="line"/>
      <point x="490" y="778" type="line"/>
      <point x="400" y="824" type="line"/>
      <point x="578" y="984" type="line"/>
    </contour>
  </outline>
</glyph>
<glyph name="Ucircumflex" format="1">
  <advance width="723"/>
  <unicode hex="00DB"/>
  <outline>
    <contour>
      <point x="190" y="700" type="line"/>
      <point x="385" y="700" type="line"/>
      <point x="305" y="246" type="line" smooth="yes"/>
      <point x="294" y="182"/>
      <point x="318" y="139"/>
      <point x="386" y="139" type="curve" smooth="yes"/>
      <point x="454" y="139"/>
      <point x="494" y="182"/>
      <point x="505" y="246" type="curve" smooth="yes"/>
      <point x="585" y="700" type="line"/>
      <point x="780" y="700" type="line"/>
      <point x="697" y="230" type="line" smooth="yes"/>
      <point x="664" y="42"/>
      <point x="517" y="-34"/>
      <point x="355" y="-34" type="curve" smooth="yes"/>
      <point x="193" y="-34"/>
      <point x="74" y="42"/>
      <point x="107" y="230" type="curve" smooth="yes"/>
    </contour>
    <contour>
      <point x="513" y="861" type="line"/>
      <point x="414" y="778" type="line"/>
      <point x="304" y="859" type="line"/>
      <point x="538" y="999" type="line"/>
      <point x="722" y="859" type="line"/>
      <point x="585" y="778" type="line"/>
    </contour>
  </outline>
</glyph>
<glyph name="Udieresis" format="1">
  <advance width="723"/>
  <unicode hex="00DC"/>
  <outline>
    <contour>
      <point x="190" y="700" type="line"/>
      <point x="385" y="700" type="line"/>
      <point x="305" y="246" type="line" smooth="yes"/>
      <point x="294" y="182"/>
      <point x="318" y="139"/>
      <point x="386" y="139" type="curve" smooth="yes"/>
      <point x="454" y="139"/>
      <point x="494" y="182"/>
      <point x="505" y="246" type="curve" smooth="yes"/>
      <point x="585" y="700" type="line"/>
      <point x="780" y="700" type="line"/>
      <point x="697" y="230" type="line" smooth="yes"/>
      <point x="664" y="42"/>
      <point x="517" y="-34"/>
      <point x="355" y="-34" type="curve" smooth="yes"/>
      <point x="193" y="-34"/>
      <point x="74" y="42"/>
      <point x="107" y="230" type="curve" smooth="yes"/>
    </contour>
    <contour>
      <point x="570" y="868" type="curve" smooth="yes"/>
      <point x="579" y="922"/>
      <point x="630" y="958"/>
      <point x="684" y="958" type="curve" smooth="yes"/>
      <point x="738" y="958"/>
      <point x="775" y="922"/>
      <point x="766" y="868" type="curve" smooth="yes"/>
      <point x="757" y="814"/>
      <point x="706" y="778"/>
      <point x="652" y="778" type="curve" smooth="yes"/>
      <point x="598" y="778"/>
      <point x="561" y="814"/>
    </contour>
    <contour>
      <point x="263" y="868" type="curve" smooth="yes"/>
      <point x="272" y="922"/>
      <point x="323" y="958"/>
      <point x="377" y="958" type="curve" smooth="yes"/>
      <point x="431" y="958"/>
      <point x="468" y="922"/>
      <point x="459" y="868" type="curve" smooth="yes"/>
      <point x="450" y="814"/>
      <point x="399" y="778"/>
      <point x="345" y="778" type="curve" smooth="yes"/>
      <point x="291" y="778"/>
      <point x="254" y="814"/>
    </contour>
  </outline>
</glyph>
<glyph name="Yacute" format="1">
  <advance width="690"/>
  <unicode hex="00DD"/>
  <outline>
    <contour>
      <point x="309" y="360" type="line"/>
      <point x="508" y="360" type="line"/>
      <point x="444" y="0" type="line"/>
      <point x="246" y="0" type="line"/>
    </contour>
    <contour>
      <point x="591" y="700" type="line"/>
      <point x="817" y="700" type="line"/>
      <point x="365" y="111" type="line"/>
      <point x="120" y="700" type="line"/>
      <point x="345" y="700" type="line"/>
      <point x="425" y="456" type="line"/>
    </contour>
    <contour>
      <point x="679" y="928" type="line"/>
      <point x="473" y="778" type="line"/>
      <point x="383" y="824" type="line"/>
      <point x="562" y="984" type="line"/>
    </contour>
  </outline>
</glyph>
<glyph name="Thorn" format="1">
  <advance width="631"/>
  <unicode hex="00DE"/>
  <outline>
    <contour>
      <point x="344" y="124" type="curve"/>
      <point x="371" y="272" type="line"/>
      <point x="444" y="272"/>
      <point x="486" y="292"/>
      <point x="497" y="354" type="curve" smooth="yes"/>
      <point x="508" y="416"/>
      <point x="472" y="436"/>
      <point x="399" y="436" type="curve"/>
      <point x="426" y="584" type="line"/>
      <point x="618" y="584"/>
      <point x="694" y="500"/>
      <point x="668" y="354" type="curve" smooth="yes"/>
      <point x="642" y="208"/>
      <point x="536" y="124"/>
    </contour>
    <contour>
      <point x="210" y="124" type="line"/>
      <point x="236" y="272" type="line"/>
      <point x="371" y="272" type="line"/>
      <point x="344" y="124" type="line"/>
    </contour>
    <contour>
      <point x="265" y="436" type="line"/>
      <point x="291" y="584" type="line"/>
      <point x="426" y="584" type="line"/>
      <point x="399" y="436" type="line"/>
    </contour>
    <contour>
      <point x="203" y="700" type="line"/>
      <point x="370" y="700" type="line"/>
      <point x="246" y="0" type="line"/>
      <point x="80" y="0" type="line"/>
    </contour>
  </outline>
</glyph>
<glyph name="germandbls" format="1">
  <advance width="598"/>
  <unicode hex="00DF"/>
  <outline>
    <contour>
      <point x="154" y="606" type="line"/>
      <point x="315" y="582" type="line"/>
      <point x="212" y="0" type="line"/>
      <point x="48" y="0" type="line"/>
    </contour>
    <contour>
      <point x="345" y="408" type="curve"/>
      <point x="363" y="512" type="line"/>
      <point x="441" y="512"/>
      <point x="463" y="540"/>
      <point x="470" y="580" type="curve" smooth="yes"/>
      <point x="477" y="622"/>
      <point x="452" y="642"/>
      <point x="402" y="642" type="curve" smooth="yes"/>
      <point x="350" y="642"/>
      <point x="321" y="618"/>
      <point x="315" y="582" type="curve"/>
      <point x="154" y="606" type="line"/>
      <point x="176" y="732"/>
      <point x="300" y="798"/>
      <point x="430" y="798" type="curve" smooth="yes"/>
      <point x="590" y="798"/>
      <point x="659" y="715"/>
      <point x="640" y="606" type="curve" smooth="yes"/>
      <point x="619" y="487"/>
      <point x="517" y="408"/>
    </contour>
    <contour>
      <point x="310" y="146" type="line"/>
      <point x="390" y="146"/>
      <point x="441" y="194"/>
      <point x="453" y="260" type="curve" smooth="yes"/>
      <point x="462" y="314"/>
      <point x="445" y="356"/>
      <point x="335" y="356" type="curve"/>
      <point x="356" y="476" type="line"/>
      <point x="528" y="476"/>
      <point x="648" y="381"/>
      <point x="621" y="225" type="curve" smooth="yes"/>
      <point x="594" y="69"/>
      <point x="467" y="-10"/>
      <point x="283" y="-10" type="curve"/>
    </contour>
  </outline>
</glyph>
<glyph name="atilde" format="1">
  <advance width="630"/>
  <unicode hex="00E3"/>
  <outline>
    <contour>
      <point x="485" y="460" type="line"/>
      <point x="659" y="460" type="line"/>
      <point x="578" y="0" type="line"/>
      <point x="404" y="0" type="line"/>
    </contour>
    <contour>
      <point x="72" y="230" type="curve" smooth="yes"/>
      <point x="100" y="388"/>
      <point x="221" y="470"/>
      <point x="329" y="470" type="curve" smooth="yes"/>
      <point x="444" y="470"/>
      <point x="515" y="379"/>
      <point x="489" y="230" type="curve" smooth="yes"/>
      <point x="463" y="81"/>
      <point x="360" y="-10"/>
      <point x="245" y="-10" type="curve" smooth="yes"/>
      <point x="137" y="-10"/>
      <point x="44" y="72"/>
    </contour>
    <contour>
      <point x="254" y="230" type="curve" smooth="yes"/>
      <point x="243" y="168"/>
      <point x="280" y="126"/>
      <point x="332" y="126" type="curve" smooth="yes"/>
      <point x="378" y="126"/>
      <point x="433" y="164"/>
      <point x="445" y="230" type="curve" smooth="yes"/>
      <point x="457" y="296"/>
      <point x="414" y="334"/>
      <point x="368" y="334" type="curve" smooth="yes"/>
      <point x="316" y="334"/>
      <point x="265" y="292"/>
    </contour>
    <contour>
      <point x="232" y="604" type="line"/>
      <point x="251" y="653"/>
      <point x="304" y="702"/>
      <point x="374" y="702" type="curve" smooth="yes"/>
      <point x="440" y="702"/>
      <point x="448" y="649"/>
      <point x="505" y="649" type="curve" smooth="yes"/>
      <point x="533" y="649"/>
      <point x="556" y="672"/>
      <point x="582" y="704" type="curve"/>
      <point x="646" y="620" type="line"/>
      <point x="623" y="583"/>
      <point x="554" y="530"/>
      <point x="488" y="530" type="curve" smooth="yes"/>
      <point x="433" y="530"/>
      <point x="403" y="586"/>
      <point x="352" y="586" type="curve" smooth="yes"/>
      <point x="315" y="586"/>
      <point x="300" y="550"/>
      <point x="297" y="535" type="curve"/>
    </contour>
  </outline>
</glyph>
<glyph name="adieresis" format="1">
  <advance width="630"/>
  <unicode hex="00E4"/>
  <outline>
    <contour>
      <point x="485" y="460" type="line"/>
      <point x="659" y="460" type="line"/>
      <point x="578" y="0" type="line"/>
      <point x="404" y="0" type="line"/>
    </contour>
    <contour>
      <point x="72" y="230" type="curve" smooth="yes"/>
      <point x="100" y="388"/>
      <point x="221" y="470"/>
      <point x="329" y="470" type="curve" smooth="yes"/>
      <point x="444" y="470"/>
      <point x="515" y="379"/>
      <point x="489" y="230" type="curve" smooth="yes"/>
      <point x="463" y="81"/>
      <point x="360" y="-10"/>
      <point x="245" y="-10" type="curve" smooth="yes"/>
      <point x="137" y="-10"/>
      <point x="44" y="72"/>
    </contour>
    <contour>
      <point x="254" y="230" type="curve" smooth="yes"/>
      <point x="243" y="168"/>
      <point x="280" y="126"/>
      <point x="332" y="126" type="curve" smooth="yes"/>
      <point x="378" y="126"/>
      <point x="433" y="164"/>
      <point x="445" y="230" type="curve" smooth="yes"/>
      <point x="457" y="296"/>
      <point x="414" y="334"/>
      <point x="368" y="334" type="curve" smooth="yes"/>
      <point x="316" y="334"/>
      <point x="265" y="292"/>
    </contour>
    <contour>
      <point x="456" y="620" type="curve" smooth="yes"/>
      <point x="465" y="674"/>
      <point x="516" y="710"/>
      <point x="570" y="710" type="curve" smooth="yes"/>
      <point x="624" y="710"/>
      <point x="661" y="674"/>
      <point x="652" y="620" type="curve" smooth="yes"/>
      <point x="643" y="566"/>
      <point x="593" y="530"/>
      <point x="539" y="530" type="curve" smooth="yes"/>
      <point x="485" y="530"/>
      <point x="447" y="566"/>
    </contour>
    <contour>
      <point x="199" y="620" type="curve" smooth="yes"/>
      <point x="208" y="674"/>
      <point x="259" y="710"/>
      <point x="313" y="710" type="curve" smooth="yes"/>
      <point x="367" y="710"/>
      <point x="404" y="674"/>
      <point x="395" y="620" type="curve" smooth="yes"/>
      <point x="386" y="566"/>
      <point x="336" y="530"/>
      <point x="282" y="530" type="curve" smooth="yes"/>
      <point x="228" y="530"/>
      <point x="190" y="566"/>
    </contour>
  </outline>
</glyph>
<glyph name="aring" format="1">
  <advance width="630"/>
  <unicode hex="00E5"/>
  <outline>
    <contour>
      <point x="485" y="460" type="line"/>
      <point x="659" y="460" type="line"/>
      <point x="578" y="0" type="line"/>
      <point x="404" y="0" type="line"/>
    </contour>
    <contour>
      <point x="72" y="230" type="curve" smooth="yes"/>
      <point x="100" y="388"/>
      <point x="221" y="470"/>
      <point x="329" y="470" type="curve" smooth="yes"/>
      <point x="444" y="470"/>
      <point x="515" y="379"/>
      <point x="489" y="230" type="curve" smooth="yes"/>
      <point x="463" y="81"/>
      <point x="360" y="-10"/>
      <point x="245" y="-10" type="curve" smooth="yes"/>
      <point x="137" y="-10"/>
      <point x="44" y="72"/>
    </contour>
    <contour>
      <point x="254" y="230" type="curve" smooth="yes"/>
      <point x="243" y="168"/>
      <point x="280" y="126"/>
      <point x="332" y="126" type="curve" smooth="yes"/>
      <point x="378" y="126"/>
      <point x="433" y="164"/>
      <point x="445" y="230" type="curve" smooth="yes"/>
      <point x="457" y="296"/>
      <point x="414" y="334"/>
      <point x="368" y="334" type="curve" smooth="yes"/>
      <point x="316" y="334"/>
      <point x="265" y="292"/>
    </contour>
    <contour>
      <point x="304" y="651" type="curve" smooth="yes"/>
      <point x="317" y="723"/>
      <point x="382" y="771"/>
      <point x="457" y="771" type="curve" smooth="yes"/>
      <point x="532" y="771"/>
      <point x="581" y="723"/>
      <point x="568" y="651" type="curve" smooth="yes"/>
      <point x="555" y="579"/>
      <point x="490" y="530"/>
      <point x="415" y="530" type="curve" smooth="yes"/>
      <point x="340" y="530"/>
      <point x="291" y="579"/>
    </contour>
    <contour>
      <point x="391" y="651" type="curve" smooth="yes"/>
      <point x="386" y="622"/>
      <point x="403" y="605"/>
      <point x="428" y="605" type="curve" smooth="yes"/>
      <point x="453" y="605"/>
      <point x="476" y="622"/>
      <point x="481" y="651" type="curve" smooth="yes"/>
      <point x="486" y="680"/>
      <point x="469" y="698"/>
      <point x="444" y="698" type="curve" smooth="yes"/>
      <point x="419" y="698"/>
      <point x="396" y="680"/>
    </contour>
  </outline>
</glyph>
<glyph name="ae" format="1">
  <advance width="917"/>
  <unicode hex="00E6"/>
  <outline>
    <contour>
      <point x="220" y="138" type="curve" smooth="yes"/>
      <point x="215" y="109"/>
      <point x="238" y="98"/>
      <point x="270" y="98" type="curve" smooth="yes"/>
      <point x="318" y="98"/>
      <point x="366" y="118"/>
      <point x="378" y="188" type="curve"/>
      <point x="446" y="130" type="line"/>
      <point x="430" y="41"/>
      <point x="355" y="-10"/>
      <point x="219" y="-10" type="curve" smooth="yes"/>
      <point x="95" y="-10"/>
      <point x="29" y="41"/>
      <point x="45" y="129" type="curve" smooth="yes"/>
      <point x="61" y="219"/>
      <point x="151" y="277"/>
      <point x="271" y="277" type="curve" smooth="yes"/>
      <point x="335" y="277"/>
      <point x="401" y="255"/>
      <point x="419" y="232" type="curve"/>
      <point x="405" y="152" type="line"/>
      <point x="378" y="176"/>
      <point x="350" y="188"/>
      <point x="300" y="188" type="curve" smooth="yes"/>
      <point x="257" y="188"/>
      <point x="225" y="168"/>
    </contour>
    <contour>
      <point x="174" y="308" type="curve"/>
      <point x="138" y="422" type="line"/>
      <point x="201" y="447"/>
      <point x="285" y="474"/>
      <point x="368" y="474" type="curve" smooth="yes"/>
      <point x="498" y="474"/>
      <point x="524" y="420"/>
      <point x="507" y="322" type="curve" smooth="yes"/>
      <point x="473" y="130" type="line"/>
      <point x="368" y="130" type="line"/>
      <point x="395" y="281" type="line" smooth="yes"/>
      <point x="402" y="318"/>
      <point x="379" y="346"/>
      <point x="329" y="346" type="curve" smooth="yes"/>
      <point x="263" y="346"/>
      <point x="198" y="320"/>
    </contour>
    <contour>
      <point x="456" y="194" type="line"/>
      <point x="472" y="283" type="line"/>
      <point x="916" y="283" type="line"/>
      <point x="916" y="194" type="line"/>
    </contour>
    <contour>
      <point x="744" y="242" type="line" smooth="yes"/>
      <point x="758" y="320"/>
      <point x="743" y="360"/>
      <point x="685" y="360" type="curve" smooth="yes"/>
      <point x="629" y="360"/>
      <point x="590" y="322"/>
      <point x="578" y="252" type="curve"/>
      <point x="572" y="230" type="line"/>
      <point x="556" y="140"/>
      <point x="595" y="110"/>
      <point x="645" y="110" type="curve" smooth="yes"/>
      <point x="695" y="110"/>
      <point x="734" y="128"/>
      <point x="759" y="162" type="curve"/>
      <point x="911" y="132" type="line"/>
      <point x="850" y="46"/>
      <point x="766" y="-10"/>
      <point x="630" y="-10" type="curve" smooth="yes"/>
      <point x="448" y="-10"/>
      <point x="416" y="91"/>
      <point x="441" y="230" type="curve" smooth="yes"/>
      <point x="444" y="247"/>
      <point x="449" y="263"/>
      <point x="455" y="279" type="curve" smooth="yes"/>
      <point x="494" y="392"/>
      <point x="591" y="470"/>
      <point x="735" y="470" type="curve" smooth="yes"/>
      <point x="877" y="470"/>
      <point x="951" y="383"/>
      <point x="925" y="238" type="curve" smooth="yes"/>
      <point x="924" y="230"/>
      <point x="921" y="212"/>
      <point x="916" y="194" type="curve"/>
      <point x="739" y="214" type="line"/>
    </contour>
  </outline>
</glyph>
<glyph name="ccedilla" format="1">
  <advance width="498"/>
  <unicode hex="00E7"/>
  <outline>
    <contour>
      <point x="249" y="230" type="curve" smooth="yes"/>
      <point x="237" y="162"/>
      <point x="280" y="124"/>
      <point x="342" y="124" type="curve" smooth="yes"/>
      <point x="392" y="124"/>
      <point x="445" y="144"/>
      <point x="482" y="188" type="curve"/>
      <point x="453" y="26" type="line"/>
      <point x="417" y="4"/>
      <point x="375" y="-10"/>
      <point x="303" y="-10" type="curve" smooth="yes"/>
      <point x="143" y="-10"/>
      <point x="45" y="82"/>
      <point x="71" y="230" type="curve" smooth="yes"/>
      <point x="97" y="378"/>
      <point x="227" y="470"/>
      <point x="387" y="470" type="curve" smooth="yes"/>
      <point x="459" y="470"/>
      <point x="496" y="454"/>
      <point x="525" y="436" type="curve"/>
      <point x="497" y="273" type="line"/>
      <point x="475" y="317"/>
      <point x="422" y="336"/>
      <point x="380" y="336" type="curve" smooth="yes"/>
      <point x="318" y="336"/>
      <point x="259" y="290"/>
    </contour>
    <contour>
      <point x="233" y="94" type="line"/>
      <point x="358" y="89" type="line"/>
      <point x="213" y="-68" type="line"/>
      <point x="109" y="-110" type="line"/>
    </contour>
    <contour>
      <point x="367" y="-136" type="curve"/>
      <point x="260" y="-125" type="line"/>
      <point x="265" y="-98"/>
      <point x="232" y="-94"/>
      <point x="202" y="-94" type="curve" smooth="yes"/>
      <point x="192" y="-94"/>
      <point x="151" y="-96"/>
      <point x="109" y="-110" type="curve"/>
      <point x="189" y="-64" type="line"/>
      <point x="221" y="-36"/>
      <point x="250" y="-32"/>
      <point x="288" y="-32" type="curve" smooth="yes"/>
      <point x="330" y="-32"/>
      <point x="380" y="-65"/>
    </contour>
    <contour>
      <point x="367" y="-136" type="line"/>
      <point x="354" y="-212"/>
      <point x="274" y="-250"/>
      <point x="208" y="-250" type="curve" smooth="yes"/>
      <point x="146" y="-250"/>
      <point x="102" y="-240"/>
      <point x="55" y="-210" type="curve"/>
      <point x="118" y="-133" type="line"/>
      <point x="142" y="-152"/>
      <point x="181" y="-158"/>
      <point x="199" y="-158" type="curve" smooth="yes"/>
      <point x="233" y="-158"/>
      <point x="256" y="-149"/>
      <point x="260" y="-125" type="curve"/>
    </contour>
  </outline>
</glyph>
<glyph name="edieresis" format="1">
  <advance width="586"/>
  <unicode hex="00EB"/>
  <outline>
    <contour>
      <point x="130" y="194" type="line"/>
      <point x="146" y="286" type="line"/>
      <point x="583" y="286" type="line"/>
      <point x="582" y="194" type="line"/>
    </contour>
    <contour>
      <point x="423" y="242" type="line" smooth="yes"/>
      <point x="436" y="317"/>
      <point x="418" y="354"/>
      <point x="358" y="354" type="curve" smooth="yes"/>
      <point x="300" y="354"/>
      <point x="259" y="319"/>
      <point x="247" y="252" type="curve"/>
      <point x="241" y="230" type="line"/>
      <point x="226" y="145"/>
      <point x="270" y="112"/>
      <point x="324" y="112" type="curve" smooth="yes"/>
      <point x="370" y="112"/>
      <point x="403" y="128"/>
      <point x="425" y="162" type="curve"/>
      <point x="571" y="126" type="line"/>
      <point x="516" y="45"/>
      <point x="434" y="-10"/>
      <point x="304" y="-10" type="curve" smooth="yes"/>
      <point x="132" y="-10"/>
      <point x="49" y="91"/>
      <point x="74" y="230" type="curve" smooth="yes"/>
      <point x="77" y="247"/>
      <point x="81" y="264"/>
      <point x="87" y="280" type="curve" smooth="yes"/>
      <point x="126" y="393"/>
      <point x="232" y="470"/>
      <point x="382" y="470" type="curve" smooth="yes"/>
      <point x="538" y="470"/>
      <point x="618" y="383"/>
      <point x="592" y="238" type="curve" smooth="yes"/>
      <point x="591" y="230"/>
      <point x="587" y="212"/>
      <point x="582" y="194" type="curve"/>
      <point x="418" y="214" type="line"/>
    </contour>
    <contour>
      <point x="439" y="620" type="curve" smooth="yes"/>
      <point x="448" y="674"/>
      <point x="499" y="710"/>
      <point x="553" y="710" type="curve" smooth="yes"/>
      <point x="607" y="710"/>
      <point x="644" y="674"/>
      <point x="635" y="620" type="curve" smooth="yes"/>
      <point x="626" y="566"/>
      <point x="576" y="530"/>
      <point x="522" y="530" type="curve" smooth="yes"/>
      <point x="468" y="530"/>
      <point x="430" y="566"/>
    </contour>
    <contour>
      <point x="182" y="620" type="curve" smooth="yes"/>
      <point x="191" y="674"/>
      <point x="242" y="710"/>
      <point x="296" y="710" type="curve" smooth="yes"/>
      <point x="350" y="710"/>
      <point x="387" y="674"/>
      <point x="378" y="620" type="curve" smooth="yes"/>
      <point x="369" y="566"/>
      <point x="319" y="530"/>
      <point x="265" y="530" type="curve" smooth="yes"/>
      <point x="211" y="530"/>
      <point x="173" y="566"/>
    </contour>
  </outline>
</glyph>
<glyph name="iacute" format="1">
  <advance width="281"/>
  <unicode hex="00ED"/>
  <outline>
    <contour>
      <point x="138" y="460" type="line"/>
      <point x="305" y="460" type="line"/>
      <point x="224" y="0" type="line"/>
      <point x="56" y="0" type="line"/>
    </contour>
    <contour>
      <point x="437" y="684" type="line"/>
      <point x="230" y="534" type="line"/>
      <point x="140" y="580" type="line"/>
      <point x="319" y="740" type="line"/>
    </contour>
  </outline>
</glyph>
<glyph name="icircumflex" format="1">
  <advance width="281"/>
  <unicode hex="00EE"/>
  <outline>
    <contour>
      <point x="138" y="460" type="line"/>
      <point x="305" y="460" type="line"/>
      <point x="224" y="0" type="line"/>
      <point x="56" y="0" type="line"/>
    </contour>
    <contour>
      <point x="249" y="616" type="line"/>
      <point x="148" y="532" type="line"/>
      <point x="39" y="614" type="line"/>
      <point x="273" y="754" type="line"/>
      <point x="457" y="614" type="line"/>
      <point x="319" y="532" type="line"/>
    </contour>
  </outline>
</glyph>
<glyph name="idieresis" format="1">
  <advance width="281"/>
  <unicode hex="00EF"/>
  <outline>
    <contour>
      <point x="138" y="460" type="line"/>
      <point x="305" y="460" type="line"/>
      <point x="224" y="0" type="line"/>
      <point x="56" y="0" type="line"/>
    </contour>
    <contour>
      <point x="280" y="620" type="curve" smooth="yes"/>
      <point x="289" y="674"/>
      <point x="340" y="710"/>
      <point x="394" y="710" type="curve" smooth="yes"/>
      <point x="448" y="710"/>
      <point x="485" y="674"/>
      <point x="476" y="620" type="curve" smooth="yes"/>
      <point x="467" y="566"/>
      <point x="416" y="530"/>
      <point x="362" y="530" type="curve" smooth="yes"/>
      <point x="308" y="530"/>
      <point x="271" y="566"/>
    </contour>
    <contour>
      <point x="23" y="620" type="curve" smooth="yes"/>
      <point x="32" y="674"/>
      <point x="83" y="710"/>
      <point x="137" y="710" type="curve" smooth="yes"/>
      <point x="191" y="710"/>
      <point x="228" y="674"/>
      <point x="219" y="620" type="curve" smooth="yes"/>
      <point x="210" y="566"/>
      <point x="159" y="530"/>
      <point x="105" y="530" type="curve" smooth="yes"/>
      <point x="51" y="530"/>
      <point x="14" y="566"/>
    </contour>
  </outline>
</glyph>
<glyph name="eth" format="1">
  <advance width="697"/>
  <unicode hex="00F0"/>
  <outline>
    <contour>
      <point x="499" y="250" type="curve" smooth="yes"/>
      <point x="510" y="314"/>
      <point x="472" y="356"/>
      <point x="412" y="356" type="curve" smooth="yes"/>
      <point x="352" y="356"/>
      <point x="299" y="314"/>
      <point x="288" y="250" type="curve" smooth="yes"/>
      <point x="277" y="186"/>
      <point x="315" y="146"/>
      <point x="375" y="146" type="curve" smooth="yes"/>
      <point x="435" y="146"/>
      <point x="488" y="186"/>
    </contour>
    <contour>
      <point x="486" y="696" type="line"/>
      <point x="636" y="460" type="line" smooth="yes"/>
      <point x="677" y="398"/>
      <point x="706" y="332"/>
      <point x="692" y="250" type="curve" smooth="yes"/>
      <point x="660" y="70"/>
      <point x="510" y="-18"/>
      <point x="346" y="-18" type="curve" smooth="yes"/>
      <point x="182" y="-18"/>
      <point x="62" y="70"/>
      <point x="94" y="250" type="curve" smooth="yes"/>
      <point x="120" y="396"/>
      <point x="251" y="478"/>
      <point x="353" y="478" type="curve" smooth="yes"/>
      <point x="405" y="478"/>
      <point x="432" y="470"/>
      <point x="466" y="433" type="curve"/>
      <point x="426" y="454" type="line"/>
      <point x="240" y="696" type="line"/>
    </contour>
    <contour>
      <point x="222" y="520" type="line"/>
      <point x="237" y="602" type="line"/>
      <point x="716" y="602" type="line"/>
      <point x="701" y="520" type="line"/>
    </contour>
  </outline>
</glyph>
<glyph name="ntilde" format="1">
  <advance width="590"/>
  <unicode hex="00F1"/>
  <outline>
    <contour>
      <point x="310" y="460" type="line"/>
      <point x="228" y="0" type="line"/>
      <point x="55" y="0" type="line"/>
      <point x="136" y="460" type="line"/>
    </contour>
    <contour>
      <point x="403" y="280" type="line" smooth="yes"/>
      <point x="411" y="328"/>
      <point x="404" y="355"/>
      <point x="359" y="355" type="curve" smooth="yes"/>
      <point x="317" y="355"/>
      <point x="287" y="330"/>
      <point x="278" y="280" type="curve"/>
      <point x="248" y="272" type="line"/>
      <point x="267" y="381"/>
      <point x="332" y="470"/>
      <point x="452" y="470" type="curve" smooth="yes"/>
      <point x="572" y="470"/>
      <point x="607" y="408"/>
      <point x="588" y="298" type="curve" smooth="yes"/>
      <point x="536" y="0" type="line"/>
      <point x="354" y="0" type="line"/>
    </contour>
    <contour>
      <point x="197" y="605" type="line"/>
      <point x="216" y="654"/>
      <point x="268" y="704"/>
      <point x="338" y="704" type="curve" smooth="yes"/>
      <point x="404" y="704"/>
      <point x="411" y="650"/>
      <point x="468" y="650" type="curve" smooth="yes"/>
      <point x="496" y="650"/>
      <point x="521" y="672"/>
      <point x="547" y="704" type="curve"/>
      <point x="610" y="621" type="line"/>
      <point x="587" y="584"/>
      <point x="518" y="532"/>
      <point x="452" y="532" type="curve" smooth="yes"/>
      <point x="397" y="532"/>
      <point x="368" y="587"/>
      <point x="317" y="587" type="curve" smooth="yes"/>
      <point x="280" y="587"/>
      <point x="264" y="551"/>
      <point x="261" y="536" type="curve"/>
    </contour>
  </outline>
</glyph>
<glyph name="ograve" format="1">
  <advance width="602"/>
  <unicode hex="00F2"/>
  <outline>
    <contour>
      <point x="72" y="230" type="curve" smooth="yes"/>
      <point x="98" y="378"/>
      <point x="229" y="470"/>
      <point x="384" y="470" type="curve" smooth="yes"/>
      <point x="539" y="470"/>
      <point x="639" y="378"/>
      <point x="613" y="230" type="curve" smooth="yes"/>
      <point x="587" y="82"/>
      <point x="455" y="-10"/>
      <point x="300" y="-10" type="curve" smooth="yes"/>
      <point x="145" y="-10"/>
      <point x="46" y="82"/>
    </contour>
    <contour>
      <point x="250" y="230" type="curve" smooth="yes"/>
      <point x="239" y="166"/>
      <point x="274" y="130"/>
      <point x="324" y="130" type="curve" smooth="yes"/>
      <point x="374" y="130"/>
      <point x="423" y="166"/>
      <point x="434" y="230" type="curve" smooth="yes"/>
      <point x="445" y="294"/>
      <point x="410" y="331"/>
      <point x="360" y="331" type="curve" smooth="yes"/>
      <point x="310" y="331"/>
      <point x="261" y="294"/>
    </contour>
    <contour>
      <point x="262" y="684" type="line"/>
      <point x="400" y="740" type="line"/>
      <point x="521" y="580" type="line"/>
      <point x="416" y="534" type="line"/>
    </contour>
  </outline>
</glyph>
<glyph name="otilde" format="1">
  <advance width="602"/>
  <unicode hex="00F5"/>
  <outline>
    <contour>
      <point x="72" y="230" type="curve" smooth="yes"/>
      <point x="98" y="378"/>
      <point x="229" y="470"/>
      <point x="384" y="470" type="curve" smooth="yes"/>
      <point x="539" y="470"/>
      <point x="639" y="378"/>
      <point x="613" y="230" type="curve" smooth="yes"/>
      <point x="587" y="82"/>
      <point x="455" y="-10"/>
      <point x="300" y="-10" type="curve" smooth="yes"/>
      <point x="145" y="-10"/>
      <point x="46" y="82"/>
    </contour>
    <contour>
      <point x="250" y="230" type="curve" smooth="yes"/>
      <point x="239" y="166"/>
      <point x="274" y="130"/>
      <point x="324" y="130" type="curve" smooth="yes"/>
      <point x="374" y="130"/>
      <point x="423" y="166"/>
      <point x="434" y="230" type="curve" smooth="yes"/>
      <point x="445" y="294"/>
      <point x="410" y="331"/>
      <point x="360" y="331" type="curve" smooth="yes"/>
      <point x="310" y="331"/>
      <point x="261" y="294"/>
    </contour>
    <contour>
      <point x="202" y="605" type="line"/>
      <point x="221" y="654"/>
      <point x="274" y="704"/>
      <point x="344" y="704" type="curve" smooth="yes"/>
      <point x="410" y="704"/>
      <point x="418" y="650"/>
      <point x="475" y="650" type="curve" smooth="yes"/>
      <point x="503" y="650"/>
      <point x="527" y="672"/>
      <point x="553" y="704" type="curve"/>
      <point x="616" y="621" type="line"/>
      <point x="593" y="584"/>
      <point x="524" y="532"/>
      <point x="458" y="532" type="curve" smooth="yes"/>
      <point x="403" y="532"/>
      <point x="374" y="587"/>
      <point x="323" y="587" type="curve" smooth="yes"/>
      <point x="286" y="587"/>
      <point x="270" y="551"/>
      <point x="267" y="536" type="curve"/>
    </contour>
  </outline>
</glyph>
<glyph name="odieresis" format="1">
  <advance width="602"/>
  <unicode hex="00F6"/>
  <outline>
    <contour>
      <point x="72" y="230" type="curve" smooth="yes"/>
      <point x="98" y="378"/>
      <point x="229" y="470"/>
      <point x="384" y="470" type="curve" smooth="yes"/>
      <point x="539" y="470"/>
      <point x="639" y="378"/>
      <point x="613" y="230" type="curve" smooth="yes"/>
      <point x="587" y="82"/>
      <point x="455" y="-10"/>
      <point x="300" y="-10" type="curve" smooth="yes"/>
      <point x="145" y="-10"/>
      <point x="46" y="82"/>
    </contour>
    <contour>
      <point x="250" y="230" type="curve" smooth="yes"/>
      <point x="239" y="166"/>
      <point x="274" y="130"/>
      <point x="324" y="130" type="curve" smooth="yes"/>
      <point x="374" y="130"/>
      <point x="423" y="166"/>
      <point x="434" y="230" type="curve" smooth="yes"/>
      <point x="445" y="294"/>
      <point x="410" y="331"/>
      <point x="360" y="331" type="curve" smooth="yes"/>
      <point x="310" y="331"/>
      <point x="261" y="294"/>
    </contour>
    <contour>
      <point x="441" y="620" type="curve" smooth="yes"/>
      <point x="450" y="674"/>
      <point x="501" y="710"/>
      <point x="555" y="710" type="curve" smooth="yes"/>
      <point x="609" y="710"/>
      <point x="646" y="674"/>
      <point x="637" y="620" type="curve" smooth="yes"/>
      <point x="628" y="566"/>
      <point x="578" y="530"/>
      <point x="524" y="530" type="curve" smooth="yes"/>
      <point x="470" y="530"/>
      <point x="432" y="566"/>
    </contour>
    <contour>
      <point x="184" y="620" type="curve" smooth="yes"/>
      <point x="193" y="674"/>
      <point x="244" y="710"/>
      <point x="298" y="710" type="curve" smooth="yes"/>
      <point x="352" y="710"/>
      <point x="389" y="674"/>
      <point x="380" y="620" type="curve" smooth="yes"/>
      <point x="371" y="566"/>
      <point x="321" y="530"/>
      <point x="267" y="530" type="curve" smooth="yes"/>
      <point x="213" y="530"/>
      <point x="175" y="566"/>
    </contour>
  </outline>
</glyph>
<glyph name="divide" format="1">
  <advance width="644"/>
  <unicode hex="00F7"/>
  <outline>
    <contour>
      <point x="319" y="584" type="curve" smooth="yes"/>
      <point x="329" y="640"/>
      <point x="382" y="688"/>
      <point x="444" y="688" type="curve" smooth="yes"/>
      <point x="506" y="688"/>
      <point x="541" y="640"/>
      <point x="531" y="584" type="curve" smooth="yes"/>
      <point x="521" y="528"/>
      <point x="469" y="480"/>
      <point x="407" y="480" type="curve" smooth="yes"/>
      <point x="345" y="480"/>
      <point x="309" y="528"/>
    </contour>
    <contour>
      <point x="235" y="106" type="curve" smooth="yes"/>
      <point x="245" y="162"/>
      <point x="298" y="210"/>
      <point x="360" y="210" type="curve" smooth="yes"/>
      <point x="422" y="210"/>
      <point x="457" y="162"/>
      <point x="447" y="106" type="curve" smooth="yes"/>
      <point x="437" y="50"/>
      <point x="385" y="3"/>
      <point x="323" y="3" type="curve" smooth="yes"/>
      <point x="261" y="3"/>
      <point x="225" y="50"/>
    </contour>
    <contour>
      <point x="63" y="270" type="line"/>
      <point x="90" y="423" type="line"/>
      <point x="704" y="423" type="line"/>
      <point x="677" y="270" type="line"/>
    </contour>
  </outline>
</glyph>
<glyph name="oslash" format="1">
  <advance width="546"/>
  <unicode hex="00F8"/>
  <outline>
    <contour>
      <point x="72" y="230" type="curve" smooth="yes"/>
      <point x="99" y="386"/>
      <point x="232" y="470"/>
      <point x="384" y="470" type="curve" smooth="yes"/>
      <point x="536" y="470"/>
      <point x="640" y="386"/>
      <point x="613" y="230" type="curve" smooth="yes"/>
      <point x="586" y="74"/>
      <point x="452" y="-10"/>
      <point x="300" y="-10" type="curve" smooth="yes"/>
      <point x="148" y="-10"/>
      <point x="45" y="74"/>
    </contour>
    <contour>
      <point x="234" y="230" type="curve" smooth="yes"/>
      <point x="221" y="158"/>
      <point x="265" y="122"/>
      <point x="323" y="122" type="curve" smooth="yes"/>
      <point x="381" y="122"/>
      <point x="437" y="158"/>
      <point x="450" y="230" type="curve" smooth="yes"/>
      <point x="461" y="294"/>
      <point x="419" y="338"/>
      <point x="361" y="338" type="curve" smooth="yes"/>
      <point x="303" y="338"/>
      <point x="245" y="294"/>
    </contour>
    <contour>
      <point x="550" y="508" type="line"/>
      <point x="605" y="472" type="line"/>
      <point x="122" y="-52" type="line"/>
      <point x="68" y="-16" type="line"/>
    </contour>
  </outline>
</glyph>
<glyph name="udieresis" format="1">
  <advance width="590"/>
  <unicode hex="00FC"/>
  <outline>
    <contour>
      <point x="362" y="0" type="line"/>
      <point x="443" y="460" type="line"/>
      <point x="617" y="460" type="line"/>
      <point x="536" y="0" type="line"/>
    </contour>
    <contour>
      <point x="268" y="180" type="line" smooth="yes"/>
      <point x="260" y="132"/>
      <point x="267" y="105"/>
      <point x="312" y="105" type="curve" smooth="yes"/>
      <point x="354" y="105"/>
      <point x="385" y="130"/>
      <point x="394" y="180" type="curve"/>
      <point x="421" y="188" type="line"/>
      <point x="402" y="79"/>
      <point x="339" y="-10"/>
      <point x="219" y="-10" type="curve" smooth="yes"/>
      <point x="99" y="-10"/>
      <point x="65" y="52"/>
      <point x="84" y="162" type="curve" smooth="yes"/>
      <point x="136" y="460" type="line"/>
      <point x="318" y="460" type="line"/>
    </contour>
    <contour>
      <point x="435" y="620" type="curve" smooth="yes"/>
      <point x="444" y="674"/>
      <point x="495" y="710"/>
      <point x="549" y="710" type="curve" smooth="yes"/>
      <point x="603" y="710"/>
      <point x="640" y="674"/>
      <point x="631" y="620" type="curve" smooth="yes"/>
      <point x="622" y="566"/>
      <point x="572" y="530"/>
      <point x="518" y="530" type="curve" smooth="yes"/>
      <point x="464" y="530"/>
      <point x="426" y="566"/>
    </contour>
    <contour>
      <point x="178" y="620" type="curve" smooth="yes"/>
      <point x="187" y="674"/>
      <point x="238" y="710"/>
      <point x="292" y="710" type="curve" smooth="yes"/>
      <point x="346" y="710"/>
      <point x="383" y="674"/>
      <point x="374" y="620" type="curve" smooth="yes"/>
      <point x="365" y="566"/>
      <point x="315" y="530"/>
      <point x="261" y="530" type="curve" smooth="yes"/>
      <point x="207" y="530"/>
      <point x="169" y="566"/>
    </contour>
  </outline>
</glyph>
<glyph name="thorn" format="1">
  <advance width="628"/>
  <unicode hex="00FE"/>
  <outline>
    <contour>
      <point x="186" y="-220" type="line"/>
      <point x="16" y="-220" type="line"/>
      <point x="192" y="780" type="line"/>
      <point x="362" y="780" type="line"/>
    </contour>
    <contour>
      <point x="638" y="230" type="curve" smooth="yes"/>
      <point x="610" y="73"/>
      <point x="490" y="-10"/>
      <point x="380" y="-10" type="curve" smooth="yes"/>
      <point x="265" y="-10"/>
      <point x="195" y="81"/>
      <point x="221" y="230" type="curve" smooth="yes"/>
      <point x="247" y="379"/>
      <point x="349" y="470"/>
      <point x="464" y="470" type="curve" smooth="yes"/>
      <point x="574" y="470"/>
      <point x="666" y="387"/>
    </contour>
    <contour>
      <point x="459" y="230" type="curve" smooth="yes"/>
      <point x="470" y="293"/>
      <point x="434" y="336"/>
      <point x="380" y="336" type="curve" smooth="yes"/>
      <point x="334" y="336"/>
      <point x="277" y="297"/>
      <point x="265" y="230" type="curve" smooth="yes"/>
      <point x="253" y="163"/>
      <point x="296" y="124"/>
      <point x="342" y="124" type="curve" smooth="yes"/>
      <point x="396" y="124"/>
      <point x="448" y="167"/>
    </contour>
  </outline>
</glyph>
<glyph name="ydieresis" format="1">
  <advance width="545"/>
  <unicode hex="00FF"/>
  <outline>
    <contour>
      <point x="639" y="460" type="line"/>
      <point x="219" y="-220" type="line"/>
      <point x="48" y="-220" type="line"/>
      <point x="199" y="28" type="line"/>
      <point x="69" y="460" type="line"/>
      <point x="258" y="460" type="line"/>
      <point x="341" y="88" type="line"/>
      <point x="250" y="88" type="line"/>
      <point x="464" y="460" type="line"/>
    </contour>
    <contour>
      <point x="412" y="620" type="curve" smooth="yes"/>
      <point x="421" y="674"/>
      <point x="472" y="710"/>
      <point x="526" y="710" type="curve" smooth="yes"/>
      <point x="580" y="710"/>
      <point x="617" y="674"/>
      <point x="608" y="620" type="curve" smooth="yes"/>
      <point x="599" y="566"/>
      <point x="549" y="530"/>
      <point x="495" y="530" type="curve" smooth="yes"/>
      <point x="441" y="530"/>
      <point x="403" y="566"/>
    </contour>
    <contour>
      <point x="155" y="620" type="curve" smooth="yes"/>
      <point x="164" y="674"/>
      <point x="215" y="710"/>
      <point x="269" y="710" type="curve" smooth="yes"/>
      <point x="323" y="710"/>
      <point x="360" y="674"/>
      <point x="351" y="620" type="curve" smooth="yes"/>
      <point x="342" y="566"/>
      <point x="292" y="530"/>
      <point x="238" y="530" type="curve" smooth="yes"/>
      <point x="184" y="530"/>
      <point x="146" y="566"/>
    </contour>
  </outline>
</glyph>
<glyph name="Amacron" format="1">
  <advance width="757"/>
  <unicode hex="0100"/>
  <outline>
    <contour>
      <point x="215" y="112" type="line"/>
      <point x="247" y="256" type="line"/>
      <point x="606" y="256" type="line"/>
      <point x="585" y="112" type="line"/>
    </contour>
    <contour>
      <point x="452" y="412" type="line"/>
      <point x="323" y="203" type="line"/>
      <point x="327" y="159" type="line"/>
      <point x="218" y="0" type="line"/>
      <point x="-4" y="0" type="line"/>
      <point x="511" y="747" type="line"/>
      <point x="760" y="0" type="line"/>
      <point x="540" y="0" type="line"/>
      <point x="487" y="152" type="line"/>
      <point x="507" y="202" type="line"/>
    </contour>
    <contour>
      <point x="332" y="807" type="line"/>
      <point x="358" y="956" type="line"/>
      <point x="736" y="956" type="line"/>
      <point x="710" y="807" type="line"/>
    </contour>
  </outline>
</glyph>
<glyph name="abreve" format="1">
  <advance width="630"/>
  <unicode hex="0103"/>
  <outline>
    <contour>
      <point x="485" y="460" type="line"/>
      <point x="659" y="460" type="line"/>
      <point x="578" y="0" type="line"/>
      <point x="404" y="0" type="line"/>
    </contour>
    <contour>
      <point x="72" y="230" type="curve" smooth="yes"/>
      <point x="100" y="388"/>
      <point x="221" y="470"/>
      <point x="329" y="470" type="curve" smooth="yes"/>
      <point x="444" y="470"/>
      <point x="515" y="379"/>
      <point x="489" y="230" type="curve" smooth="yes"/>
      <point x="463" y="81"/>
      <point x="360" y="-10"/>
      <point x="245" y="-10" type="curve" smooth="yes"/>
      <point x="137" y="-10"/>
      <point x="44" y="72"/>
    </contour>
    <contour>
      <point x="254" y="230" type="curve" smooth="yes"/>
      <point x="243" y="168"/>
      <point x="280" y="126"/>
      <point x="332" y="126" type="curve" smooth="yes"/>
      <point x="378" y="126"/>
      <point x="433" y="164"/>
      <point x="445" y="230" type="curve" smooth="yes"/>
      <point x="457" y="296"/>
      <point x="414" y="334"/>
      <point x="368" y="334" type="curve" smooth="yes"/>
      <point x="316" y="334"/>
      <point x="265" y="292"/>
    </contour>
    <contour>
      <point x="270" y="678" type="curve"/>
      <point x="378" y="678" type="line"/>
      <point x="371" y="640"/>
      <point x="396" y="624"/>
      <point x="426" y="624" type="curve" smooth="yes"/>
      <point x="456" y="624"/>
      <point x="488" y="640"/>
      <point x="495" y="678" type="curve"/>
      <point x="603" y="678" type="line"/>
      <point x="588" y="592"/>
      <point x="515" y="530"/>
      <point x="410" y="530" type="curve" smooth="yes"/>
      <point x="305" y="530"/>
      <point x="255" y="592"/>
    </contour>
  </outline>
</glyph>
<glyph name="aogonek" format="1">
  <advance width="630"/>
  <unicode hex="0105"/>
  <outline>
    <contour>
      <point x="485" y="460" type="line"/>
      <point x="659" y="460" type="line"/>
      <point x="578" y="0" type="line"/>
      <point x="404" y="0" type="line"/>
    </contour>
    <contour>
      <point x="72" y="230" type="curve" smooth="yes"/>
      <point x="100" y="388"/>
      <point x="221" y="470"/>
      <point x="329" y="470" type="curve" smooth="yes"/>
      <point x="444" y="470"/>
      <point x="515" y="379"/>
      <point x="489" y="230" type="curve" smooth="yes"/>
      <point x="463" y="81"/>
      <point x="360" y="-10"/>
      <point x="245" y="-10" type="curve" smooth="yes"/>
      <point x="137" y="-10"/>
      <point x="44" y="72"/>
    </contour>
    <contour>
      <point x="254" y="230" type="curve" smooth="yes"/>
      <point x="243" y="168"/>
      <point x="280" y="126"/>
      <point x="332" y="126" type="curve" smooth="yes"/>
      <point x="378" y="126"/>
      <point x="433" y="164"/>
      <point x="445" y="230" type="curve" smooth="yes"/>
      <point x="457" y="296"/>
      <point x="414" y="334"/>
      <point x="368" y="334" type="curve" smooth="yes"/>
      <point x="316" y="334"/>
      <point x="265" y="292"/>
    </contour>
    <contour>
      <point x="519" y="-106" type="curve"/>
      <point x="539" y="-180" type="line"/>
      <point x="520" y="-200"/>
      <point x="487" y="-220"/>
      <point x="427" y="-220" type="curve" smooth="yes"/>
      <point x="367" y="-220"/>
      <point x="318" y="-188"/>
      <point x="330" y="-120" type="curve"/>
      <point x="439" y="-92" type="line"/>
      <point x="435" y="-114"/>
      <point x="443" y="-126"/>
      <point x="465" y="-126" type="curve" smooth="yes"/>
      <point x="483" y="-126"/>
      <point x="503" y="-119"/>
    </contour>
    <contour>
      <point x="439" y="-92" type="curve"/>
      <point x="330" y="-120" type="line"/>
      <point x="342" y="-52"/>
      <point x="420" y="-11"/>
      <point x="496" y="25" type="curve"/>
      <point x="532" y="0" type="line"/>
      <point x="475" y="-30"/>
      <point x="444" y="-64"/>
    </contour>
  </outline>
</glyph>
<glyph name="Ccircumflex" format="1">
  <advance width="705"/>
  <unicode hex="0108"/>
  <outline>
    <contour>
      <point x="307" y="350" type="curve" smooth="yes"/>
      <point x="286" y="232"/>
      <point x="363" y="166"/>
      <point x="469" y="166" type="curve" smooth="yes"/>
      <point x="568" y="166"/>
      <point x="636" y="210"/>
      <point x="689" y="256" type="curve"/>
      <point x="652" y="50" type="line"/>
      <point x="589" y="10"/>
      <point x="525" y="-18"/>
      <point x="423" y="-18" type="curve" smooth="yes"/>
      <point x="189" y="-18"/>
      <point x="55" y="129"/>
      <point x="94" y="350" type="curve" smooth="yes"/>
      <point x="133" y="571"/>
      <point x="319" y="718"/>
      <point x="553" y="718" type="curve" smooth="yes"/>
      <point x="655" y="718"/>
      <point x="710" y="690"/>
      <point x="758" y="650" type="curve"/>
      <point x="722" y="444" type="line"/>
      <point x="685" y="490"/>
      <point x="633" y="534"/>
      <point x="534" y="534" type="curve" smooth="yes"/>
      <point x="428" y="534"/>
      <point x="328" y="468"/>
    </contour>
    <contour>
      <point x="578" y="861" type="line"/>
      <point x="478" y="778" type="line"/>
      <point x="369" y="859" type="line"/>
      <point x="603" y="999" type="line"/>
      <point x="787" y="859" type="line"/>
      <point x="650" y="778" type="line"/>
    </contour>
  </outline>
</glyph>
<glyph name="ccircumflex" format="1">
  <advance width="498"/>
  <unicode hex="0109"/>
  <outline>
    <contour>
      <point x="249" y="230" type="curve" smooth="yes"/>
      <point x="237" y="162"/>
      <point x="280" y="124"/>
      <point x="342" y="124" type="curve" smooth="yes"/>
      <point x="392" y="124"/>
      <point x="445" y="144"/>
      <point x="482" y="188" type="curve"/>
      <point x="453" y="26" type="line"/>
      <point x="417" y="4"/>
      <point x="375" y="-10"/>
      <point x="303" y="-10" type="curve" smooth="yes"/>
      <point x="143" y="-10"/>
      <point x="45" y="82"/>
      <point x="71" y="230" type="curve" smooth="yes"/>
      <point x="97" y="378"/>
      <point x="227" y="470"/>
      <point x="387" y="470" type="curve" smooth="yes"/>
      <point x="459" y="470"/>
      <point x="496" y="454"/>
      <point x="525" y="436" type="curve"/>
      <point x="497" y="273" type="line"/>
      <point x="475" y="317"/>
      <point x="422" y="336"/>
      <point x="380" y="336" type="curve" smooth="yes"/>
      <point x="318" y="336"/>
      <point x="259" y="290"/>
    </contour>
    <contour>
      <point x="372" y="614" type="line"/>
      <point x="272" y="530" type="line"/>
      <point x="163" y="612" type="line"/>
      <point x="397" y="752" type="line"/>
      <point x="580" y="612" type="line"/>
      <point x="443" y="530" type="line"/>
    </contour>
  </outline>
</glyph>
<glyph name="cdotaccent" format="1">
  <advance width="498"/>
  <unicode hex="010B"/>
  <outline>
    <contour>
      <point x="249" y="230" type="curve" smooth="yes"/>
      <point x="237" y="162"/>
      <point x="280" y="124"/>
      <point x="342" y="124" type="curve" smooth="yes"/>
      <point x="392" y="124"/>
      <point x="445" y="144"/>
      <point x="482" y="188" type="curve"/>
      <point x="453" y="26" type="line"/>
      <point x="417" y="4"/>
      <point x="375" y="-10"/>
      <point x="303" y="-10" type="curve" smooth="yes"/>
      <point x="143" y="-10"/>
      <point x="45" y="82"/>
      <point x="71" y="230" type="curve" smooth="yes"/>
      <point x="97" y="378"/>
      <point x="227" y="470"/>
      <point x="387" y="470" type="curve" smooth="yes"/>
      <point x="459" y="470"/>
      <point x="496" y="454"/>
      <point x="525" y="436" type="curve"/>
      <point x="497" y="273" type="line"/>
      <point x="475" y="317"/>
      <point x="422" y="336"/>
      <point x="380" y="336" type="curve" smooth="yes"/>
      <point x="318" y="336"/>
      <point x="259" y="290"/>
    </contour>
    <contour>
      <point x="282" y="626" type="curve" smooth="yes"/>
      <point x="291" y="680"/>
      <point x="342" y="716"/>
      <point x="396" y="716" type="curve" smooth="yes"/>
      <point x="450" y="716"/>
      <point x="487" y="680"/>
      <point x="478" y="626" type="curve" smooth="yes"/>
      <point x="469" y="572"/>
      <point x="418" y="536"/>
      <point x="364" y="536" type="curve" smooth="yes"/>
      <point x="310" y="536"/>
      <point x="273" y="572"/>
    </contour>
  </outline>
</glyph>
<glyph name="Dcroat" format="1">
  <advance width="749"/>
  <unicode hex="0110"/>
  <outline>
    <contour>
      <point x="297" y="530" type="line"/>
      <point x="327" y="700" type="line"/>
      <point x="458" y="700" type="line" smooth="yes"/>
      <point x="694" y="700"/>
      <point x="817" y="568"/>
      <point x="779" y="350" type="curve"/>
      <point x="576" y="350" type="line"/>
      <point x="602" y="496"/>
      <point x="513" y="530"/>
      <point x="420" y="530" type="curve" smooth="yes"/>
    </contour>
    <contour>
      <point x="334" y="0" type="curve" smooth="yes"/>
      <point x="204" y="0" type="line"/>
      <point x="234" y="170" type="line"/>
      <point x="356" y="170" type="line" smooth="yes"/>
      <point x="449" y="170"/>
      <point x="550" y="204"/>
      <point x="576" y="350" type="curve"/>
      <point x="779" y="350" type="line"/>
      <point x="741" y="132"/>
      <point x="570" y="0"/>
    </contour>
    <contour>
      <point x="195" y="700" type="line"/>
      <point x="397" y="700" type="line"/>
      <point x="274" y="0" type="line"/>
      <point x="72" y="0" type="line"/>
    </contour>
    <contour>
      <point x="57" y="294" type="line"/>
      <point x="76" y="402" type="line"/>
      <point x="432" y="402" type="line"/>
      <point x="413" y="294" type="line"/>
    </contour>
  </outline>
</glyph>
<glyph name="Edotaccent" format="1">
  <advance width="619"/>
  <unicode hex="0116"/>
  <outline>
    <contour>
      <point x="204" y="0" type="line"/>
      <point x="232" y="158" type="line"/>
      <point x="585" y="158" type="line"/>
      <point x="558" y="0" type="line"/>
    </contour>
    <contour>
      <point x="300" y="542" type="line"/>
      <point x="327" y="700" type="line"/>
      <point x="681" y="700" type="line"/>
      <point x="653" y="542" type="line"/>
    </contour>
    <contour>
      <point x="255" y="288" type="line"/>
      <point x="282" y="440" type="line"/>
      <point x="615" y="440" type="line"/>
      <point x="588" y="288" type="line"/>
    </contour>
    <contour>
      <point x="195" y="700" type="line"/>
      <point x="382" y="700" type="line"/>
      <point x="258" y="0" type="line"/>
      <point x="72" y="0" type="line"/>
    </contour>
    <contour>
      <point x="370" y="868" type="curve" smooth="yes"/>
      <point x="379" y="922"/>
      <point x="429" y="958"/>
      <point x="483" y="958" type="curve" smooth="yes"/>
      <point x="537" y="958"/>
      <point x="575" y="922"/>
      <point x="566" y="868" type="curve" smooth="yes"/>
      <point x="557" y="814"/>
      <point x="506" y="778"/>
      <point x="452" y="778" type="curve" smooth="yes"/>
      <point x="398" y="778"/>
      <point x="361" y="814"/>
    </contour>
  </outline>
</glyph>
<glyph name="edotaccent" format="1">
  <advance width="586"/>
  <unicode hex="0117"/>
  <outline>
    <contour>
      <point x="130" y="194" type="line"/>
      <point x="146" y="286" type="line"/>
      <point x="583" y="286" type="line"/>
      <point x="582" y="194" type="line"/>
    </contour>
    <contour>
      <point x="423" y="242" type="line" smooth="yes"/>
      <point x="436" y="317"/>
      <point x="418" y="354"/>
      <point x="358" y="354" type="curve" smooth="yes"/>
      <point x="300" y="354"/>
      <point x="259" y="319"/>
      <point x="247" y="252" type="curve"/>
      <point x="241" y="230" type="line"/>
      <point x="226" y="145"/>
      <point x="270" y="112"/>
      <point x="324" y="112" type="curve" smooth="yes"/>
      <point x="370" y="112"/>
      <point x="403" y="128"/>
      <point x="425" y="162" type="curve"/>
      <point x="571" y="126" type="line"/>
      <point x="516" y="45"/>
      <point x="434" y="-10"/>
      <point x="304" y="-10" type="curve" smooth="yes"/>
      <point x="132" y="-10"/>
      <point x="49" y="91"/>
      <point x="74" y="230" type="curve" smooth="yes"/>
      <point x="77" y="247"/>
      <point x="81" y="264"/>
      <point x="87" y="280" type="curve" smooth="yes"/>
      <point x="126" y="393"/>
      <point x="232" y="470"/>
      <point x="382" y="470" type="curve" smooth="yes"/>
      <point x="538" y="470"/>
      <point x="618" y="383"/>
      <point x="592" y="238" type="curve" smooth="yes"/>
      <point x="591" y="230"/>
      <point x="587" y="212"/>
      <point x="582" y="194" type="curve"/>
      <point x="418" y="214" type="line"/>
    </contour>
    <contour>
      <point x="311" y="620" type="curve" smooth="yes"/>
      <point x="320" y="674"/>
      <point x="371" y="710"/>
      <point x="425" y="710" type="curve" smooth="yes"/>
      <point x="479" y="710"/>
      <point x="516" y="674"/>
      <point x="507" y="620" type="curve" smooth="yes"/>
      <point x="498" y="566"/>
      <point x="447" y="530"/>
      <point x="393" y="530" type="curve" smooth="yes"/>
      <point x="339" y="530"/>
      <point x="302" y="566"/>
    </contour>
  </outline>
</glyph>
<glyph name="Eogonek" format="1">
  <advance width="619"/>
  <unicode hex="0118"/>
  <outline>
    <contour>
      <point x="204" y="0" type="line"/>
      <point x="232" y="158" type="line"/>
      <point x="585" y="158" type="line"/>
      <point x="558" y="0" type="line"/>
    </contour>
    <contour>
      <point x="300" y="542" type="line"/>
      <point x="327" y="700" type="line"/>
      <point x="681" y="700" type="line"/>
      <point x="653" y="542" type="line"/>
    </contour>
    <contour>
      <point x="255" y="288" type="line"/>
      <point x="282" y="440" type="line"/>
      <point x="615" y="440" type="line"/>
      <point x="588" y="288" type="line"/>
    </contour>
    <contour>
      <point x="195" y="700" type="line"/>
      <point x="382" y="700" type="line"/>
      <point x="258" y="0" type="line"/>
      <point x="72" y="0" type="line"/>
    </contour>
    <contour>
      <point x="509" y="-104" type="curve"/>
      <point x="529" y="-178" type="line"/>
      <point x="510" y="-198"/>
      <point x="478" y="-218"/>
      <point x="418" y="-218" type="curve" smooth="yes"/>
      <point x="358" y="-218"/>
      <point x="308" y="-186"/>
      <point x="320" y="-118" type="curve"/>
      <point x="429" y="-90" type="line"/>
      <point x="425" y="-112"/>
      <point x="433" y="-124"/>
      <point x="455" y="-124" type="curve" smooth="yes"/>
      <point x="473" y="-124"/>
      <point x="493" y="-117"/>
    </contour>
    <contour>
      <point x="429" y="-90" type="curve"/>
      <point x="320" y="-118" type="line"/>
      <point x="332" y="-50"/>
      <point x="410" y="-9"/>
      <point x="486" y="27" type="curve"/>
      <point x="523" y="2" type="line"/>
      <point x="466" y="-28"/>
      <point x="434" y="-62"/>
    </contour>
  </outline>
</glyph>
<glyph name="eogonek" format="1">
  <advance width="591"/>
  <unicode hex="0119"/>
  <outline>
    <contour>
      <point x="130" y="194" type="line"/>
      <point x="146" y="283" type="line"/>
      <point x="590" y="283" type="line"/>
      <point x="590" y="194" type="line"/>
    </contour>
    <contour>
      <point x="418" y="242" type="line" smooth="yes"/>
      <point x="432" y="320"/>
      <point x="417" y="360"/>
      <point x="359" y="360" type="curve" smooth="yes"/>
      <point x="303" y="360"/>
      <point x="264" y="322"/>
      <point x="252" y="252" type="curve"/>
      <point x="246" y="230" type="line"/>
      <point x="230" y="140"/>
      <point x="269" y="110"/>
      <point x="319" y="110" type="curve" smooth="yes"/>
      <point x="369" y="110"/>
      <point x="408" y="128"/>
      <point x="433" y="162" type="curve"/>
      <point x="585" y="132" type="line"/>
      <point x="524" y="46"/>
      <point x="440" y="-10"/>
      <point x="304" y="-10" type="curve" smooth="yes"/>
      <point x="122" y="-10"/>
      <point x="47" y="91"/>
      <point x="72" y="230" type="curve" smooth="yes"/>
      <point x="75" y="247"/>
      <point x="78" y="263"/>
      <point x="84" y="279" type="curve" smooth="yes"/>
      <point x="123" y="392"/>
      <point x="222" y="470"/>
      <point x="382" y="470" type="curve" smooth="yes"/>
      <point x="552" y="470"/>
      <point x="625" y="383"/>
      <point x="599" y="238" type="curve" smooth="yes"/>
      <point x="598" y="230"/>
      <point x="595" y="212"/>
      <point x="590" y="194" type="curve"/>
      <point x="413" y="214" type="line"/>
    </contour>
    <contour>
      <point x="324" y="-112" type="curve"/>
      <point x="344" y="-186" type="line"/>
      <point x="325" y="-206"/>
      <point x="293" y="-226"/>
      <point x="233" y="-226" type="curve" smooth="yes"/>
      <point x="173" y="-226"/>
      <point x="123" y="-194"/>
      <point x="135" y="-126" type="curve"/>
      <point x="245" y="-98" type="line"/>
      <point x="241" y="-120"/>
      <point x="249" y="-132"/>
      <point x="271" y="-132" type="curve" smooth="yes"/>
      <point x="289" y="-132"/>
      <point x="308" y="-125"/>
    </contour>
    <contour>
      <point x="245" y="-98" type="curve"/>
      <point x="135" y="-126" type="line"/>
      <point x="147" y="-58"/>
      <point x="225" y="-17"/>
      <point x="301" y="19" type="curve"/>
      <point x="337" y="-6" type="line"/>
      <point x="280" y="-36"/>
      <point x="250" y="-70"/>
    </contour>
  </outline>
</glyph>
<glyph name="Ecaron" format="1">
  <advance width="619"/>
  <unicode hex="011A"/>
  <outline>
    <contour>
      <point x="204" y="0" type="line"/>
      <point x="232" y="158" type="line"/>
      <point x="585" y="158" type="line"/>
      <point x="558" y="0" type="line"/>
    </contour>
    <contour>
      <point x="300" y="542" type="line"/>
      <point x="327" y="700" type="line"/>
      <point x="681" y="700" type="line"/>
      <point x="653" y="542" type="line"/>
    </contour>
    <contour>
      <point x="255" y="288" type="line"/>
      <point x="282" y="440" type="line"/>
      <point x="615" y="440" type="line"/>
      <point x="588" y="288" type="line"/>
    </contour>
    <contour>
      <point x="195" y="700" type="line"/>
      <point x="382" y="700" type="line"/>
      <point x="258" y="0" type="line"/>
      <point x="72" y="0" type="line"/>
    </contour>
    <contour>
      <point x="476" y="916" type="line"/>
      <point x="576" y="999" type="line"/>
      <point x="685" y="918" type="line"/>
      <point x="451" y="778" type="line"/>
      <point x="267" y="918" type="line"/>
      <point x="405" y="999" type="line"/>
    </contour>
  </outline>
</glyph>
<glyph name="Gcircumflex" format="1">
  <advance width="826"/>
  <unicode hex="011C"/>
  <outline>
    <contour>
      <point x="468" y="246" type="line"/>
      <point x="494" y="392" type="line"/>
      <point x="858" y="392" type="line"/>
      <point x="732" y="246" type="line"/>
    </contour>
    <contour>
      <point x="858" y="392" type="line"/>
      <point x="833" y="162"/>
      <point x="665" y="-26"/>
      <point x="419" y="-26" type="curve" smooth="yes"/>
      <point x="191" y="-26"/>
      <point x="54" y="124"/>
      <point x="94" y="350" type="curve" smooth="yes"/>
      <point x="134" y="576"/>
      <point x="330" y="718"/>
      <point x="558" y="718" type="curve" smooth="yes"/>
      <point x="712" y="718"/>
      <point x="800" y="644"/>
      <point x="851" y="547" type="curve"/>
      <point x="658" y="462" type="line"/>
      <point x="639" y="512"/>
      <point x="603" y="552"/>
      <point x="529" y="552" type="curve" smooth="yes"/>
      <point x="421" y="552"/>
      <point x="320" y="480"/>
      <point x="297" y="350" type="curve" smooth="yes"/>
      <point x="274" y="220"/>
      <point x="340" y="140"/>
      <point x="456" y="140" type="curve" smooth="yes"/>
      <point x="608" y="140"/>
      <point x="663" y="256"/>
      <point x="687" y="390" type="curve"/>
    </contour>
    <contour>
      <point x="583" y="861" type="line"/>
      <point x="483" y="778" type="line"/>
      <point x="374" y="859" type="line"/>
      <point x="608" y="999" type="line"/>
      <point x="791" y="859" type="line"/>
      <point x="654" y="778" type="line"/>
    </contour>
  </outline>
</glyph>
<glyph name="Gdotaccent" format="1">
  <advance width="826"/>
  <unicode hex="0120"/>
  <outline>
    <contour>
      <point x="468" y="246" type="line"/>
      <point x="494" y="392" type="line"/>
      <point x="858" y="392" type="line"/>
      <point x="732" y="246" type="line"/>
    </contour>
    <contour>
      <point x="858" y="392" type="line"/>
      <point x="833" y="162"/>
      <point x="665" y="-26"/>
      <point x="419" y="-26" type="curve" smooth="yes"/>
      <point x="191" y="-26"/>
      <point x="54" y="124"/>
      <point x="94" y="350" type="curve" smooth="yes"/>
      <point x="134" y="576"/>
      <point x="330" y="718"/>
      <point x="558" y="718" type="curve" smooth="yes"/>
      <point x="712" y="718"/>
      <point x="800" y="644"/>
      <point x="851" y="547" type="curve"/>
      <point x="658" y="462" type="line"/>
      <point x="639" y="512"/>
      <point x="603" y="552"/>
      <point x="529" y="552" type="curve" smooth="yes"/>
      <point x="421" y="552"/>
      <point x="320" y="480"/>
      <point x="297" y="350" type="curve" smooth="yes"/>
      <point x="274" y="220"/>
      <point x="340" y="140"/>
      <point x="456" y="140" type="curve" smooth="yes"/>
      <point x="608" y="140"/>
      <point x="663" y="256"/>
      <point x="687" y="390" type="curve"/>
    </contour>
    <contour>
      <point x="487" y="868" type="curve" smooth="yes"/>
      <point x="496" y="922"/>
      <point x="546" y="958"/>
      <point x="600" y="958" type="curve" smooth="yes"/>
      <point x="654" y="958"/>
      <point x="692" y="922"/>
      <point x="683" y="868" type="curve" smooth="yes"/>
      <point x="674" y="814"/>
      <point x="623" y="778"/>
      <point x="569" y="778" type="curve" smooth="yes"/>
      <point x="515" y="778"/>
      <point x="478" y="814"/>
    </contour>
  </outline>
</glyph>
<glyph name="Hcircumflex" format="1">
  <advance width="808"/>
  <unicode hex="0124"/>
  <outline>
    <contour>
      <point x="167" y="279" type="line"/>
      <point x="198" y="452" type="line"/>
      <point x="744" y="452" type="line"/>
      <point x="713" y="279" type="line"/>
    </contour>
    <contour>
      <point x="665" y="700" type="line"/>
      <point x="859" y="700" type="line"/>
      <point x="736" y="0" type="line"/>
      <point x="542" y="0" type="line"/>
    </contour>
    <contour>
      <point x="195" y="700" type="line"/>
      <point x="389" y="700" type="line"/>
      <point x="266" y="0" type="line"/>
      <point x="72" y="0" type="line"/>
    </contour>
    <contour>
      <point x="556" y="861" type="line"/>
      <point x="455" y="778" type="line"/>
      <point x="347" y="859" type="line"/>
      <point x="580" y="999" type="line"/>
      <point x="764" y="859" type="line"/>
      <point x="627" y="778" type="line"/>
    </contour>
  </outline>
</glyph>
<glyph name="itilde" format="1">
  <advance width="281"/>
  <unicode hex="0129"/>
  <outline>
    <contour>
      <point x="137" y="460" type="line"/>
      <point x="305" y="460" type="line"/>
      <point x="224" y="0" type="line"/>
      <point x="56" y="0" type="line"/>
    </contour>
    <contour>
      <point x="42" y="605" type="line"/>
      <point x="61" y="654"/>
      <point x="112" y="704"/>
      <point x="182" y="704" type="curve" smooth="yes"/>
      <point x="248" y="704"/>
      <point x="257" y="650"/>
      <point x="314" y="650" type="curve" smooth="yes"/>
      <point x="342" y="650"/>
      <point x="366" y="672"/>
      <point x="392" y="704" type="curve"/>
      <point x="455" y="621" type="line"/>
      <point x="432" y="584"/>
      <point x="363" y="532"/>
      <point x="297" y="532" type="curve" smooth="yes"/>
      <point x="242" y="532"/>
      <point x="213" y="587"/>
      <point x="162" y="587" type="curve" smooth="yes"/>
      <point x="125" y="587"/>
      <point x="110" y="551"/>
      <point x="107" y="536" type="curve"/>
    </contour>
  </outline>
</glyph>
<glyph name="Imacron" format="1">
  <advance width="342"/>
  <unicode hex="012A"/>
  <outline>
    <contour>
      <point x="195" y="700" type="line"/>
      <point x="393" y="700" type="line"/>
      <point x="270" y="0" type="line"/>
      <point x="72" y="0" type="line"/>
    </contour>
    <contour>
      <point x="119" y="778" type="line"/>
      <point x="145" y="926" type="line"/>
      <point x="523" y="926" type="line"/>
      <point x="497" y="778" type="line"/>
    </contour>
  </outline>
</glyph>
<glyph name="ibreve" format="1">
  <advance width="281"/>
  <unicode hex="012D"/>
  <outline>
    <contour>
      <point x="137" y="460" type="line"/>
      <point x="305" y="460" type="line"/>
      <point x="224" y="0" type="line"/>
      <point x="56" y="0" type="line"/>
    </contour>
    <contour>
      <point x="94" y="679" type="curve"/>
      <point x="201" y="679" type="line"/>
      <point x="194" y="641"/>
      <point x="220" y="624"/>
      <point x="250" y="624" type="curve" smooth="yes"/>
      <point x="280" y="624"/>
      <point x="311" y="641"/>
      <point x="318" y="679" type="curve"/>
      <point x="426" y="679" type="line"/>
      <point x="411" y="593"/>
      <point x="338" y="530"/>
      <point x="233" y="530" type="curve" smooth="yes"/>
      <point x="128" y="530"/>
      <point x="79" y="593"/>
    </contour>
  </outline>
</glyph>
<glyph name="Idotaccent" format="1">
  <advance width="342"/>
  <unicode hex="0130"/>
  <outline>
    <contour>
      <point x="195" y="700" type="line"/>
      <point x="394" y="700" type="line"/>
      <point x="270" y="0" type="line"/>
      <point x="72" y="0" type="line"/>
    </contour>
    <contour>
      <point x="226" y="868" type="curve" smooth="yes"/>
      <point x="235" y="922"/>
      <point x="286" y="958"/>
      <point x="340" y="958" type="curve" smooth="yes"/>
      <point x="394" y="958"/>
      <point x="431" y="922"/>
      <point x="422" y="868" type="curve" smooth="yes"/>
      <point x="413" y="814"/>
      <point x="362" y="778"/>
      <point x="308" y="778" type="curve" smooth="yes"/>
      <point x="254" y="778"/>
      <point x="217" y="814"/>
    </contour>
  </outline>
</glyph>
<glyph name="dotlessi" format="1">
  <advance width="281"/>
  <unicode hex="0131"/>
  <outline>
    <contour>
      <point x="137" y="460" type="line"/>
      <point x="305" y="460" type="line"/>
      <point x="224" y="0" type="line"/>
      <point x="56" y="0" type="line"/>
    </contour>
  </outline>
</glyph>
<glyph name="ij" format="1">
  <advance width="555"/>
  <unicode hex="0133"/>
  <outline>
    <contour>
      <point x="427" y="627" type="curve" smooth="yes"/>
      <point x="437" y="681"/>
      <point x="487" y="717"/>
      <point x="541" y="717" type="curve" smooth="yes"/>
      <point x="595" y="717"/>
      <point x="634" y="681"/>
      <point x="624" y="627" type="curve" smooth="yes"/>
      <point x="614" y="573"/>
      <point x="564" y="537"/>
      <point x="510" y="537" type="curve" smooth="yes"/>
      <point x="456" y="537"/>
      <point x="417" y="573"/>
    </contour>
    <contour>
      <point x="226" y="-66" type="line"/>
      <point x="237" y="-82"/>
      <point x="250" y="-91"/>
      <point x="268" y="-91" type="curve" smooth="yes"/>
      <point x="298" y="-91"/>
      <point x="320" y="-72"/>
      <point x="327" y="-30" type="curve" smooth="yes"/>
      <point x="413" y="460" type="line"/>
      <point x="579" y="460" type="line"/>
      <point x="485" y="-76" type="line" smooth="yes"/>
      <point x="467" y="-176"/>
      <point x="393" y="-244"/>
      <point x="269" y="-244" type="curve" smooth="yes"/>
      <point x="193" y="-244"/>
      <point x="158" y="-210"/>
      <point x="138" y="-190" type="curve"/>
    </contour>
    <contour>
      <point x="153" y="627" type="curve" smooth="yes"/>
      <point x="163" y="681"/>
      <point x="212" y="717"/>
      <point x="266" y="717" type="curve" smooth="yes"/>
      <point x="320" y="717"/>
      <point x="359" y="681"/>
      <point x="349" y="627" type="curve" smooth="yes"/>
      <point x="339" y="573"/>
      <point x="289" y="537"/>
      <point x="235" y="537" type="curve" smooth="yes"/>
      <point x="181" y="537"/>
      <point x="143" y="573"/>
    </contour>
    <contour>
      <point x="137" y="460" type="line"/>
      <point x="305" y="460" type="line"/>
      <point x="224" y="0" type="line"/>
      <point x="56" y="0" type="line"/>
    </contour>
  </outline>
</glyph>
<glyph name="uni0136" format="1">
  <advance width="740"/>
  <unicode hex="0136"/>
  <outline>
    <contour>
      <point x="195" y="700" type="line"/>
      <point x="398" y="700" type="line"/>
      <point x="275" y="0" type="line"/>
      <point x="72" y="0" type="line"/>
    </contour>
    <contour>
      <point x="624" y="700" type="line"/>
      <point x="851" y="700" type="line"/>
      <point x="516" y="372" type="line"/>
      <point x="744" y="0" type="line"/>
      <point x="508" y="0" type="line"/>
      <point x="283" y="366" type="line"/>
    </contour>
    <contour>
      <point x="321" y="-60" type="line"/>
      <point x="490" y="-93" type="line"/>
      <point x="315" y="-343" type="line"/>
      <point x="188" y="-319" type="line"/>
    </contour>
  </outline>
</glyph>
<glyph name="kgreenlandic" format="1">
  <advance width="618"/>
  <unicode hex="0138"/>
  <outline>
    <contour>
      <point x="135" y="460" type="line"/>
      <point x="300" y="460" type="line"/>
      <point x="219" y="0" type="line"/>
      <point x="54" y="0" type="line"/>
    </contour>
    <contour>
      <point x="467" y="460" type="line"/>
      <point x="671" y="460" type="line"/>
      <point x="442" y="270" type="line"/>
      <point x="610" y="0" type="line"/>
      <point x="409" y="0" type="line"/>
      <point x="238" y="270" type="line"/>
    </contour>
  </outline>
</glyph>
<glyph name="Lacute" format="1">
  <advance width="551"/>
  <unicode hex="0139"/>
  <outline>
    <contour>
      <point x="204" y="0" type="line"/>
      <point x="233" y="166" type="line"/>
      <point x="579" y="166" type="line"/>
      <point x="550" y="0" type="line"/>
    </contour>
    <contour>
      <point x="195" y="700" type="line"/>
      <point x="389" y="700" type="line"/>
      <point x="266" y="0" type="line"/>
      <point x="72" y="0" type="line"/>
    </contour>
    <contour>
      <point x="645" y="928" type="line"/>
      <point x="438" y="778" type="line"/>
      <point x="348" y="824" type="line"/>
      <point x="527" y="984" type="line"/>
    </contour>
  </outline>
</glyph>
<glyph name="lacute" format="1">
  <advance width="282"/>
  <unicode hex="013A"/>
  <outline>
    <contour>
      <point x="193" y="780" type="line"/>
      <point x="366" y="780" type="line"/>
      <point x="228" y="0" type="line"/>
      <point x="55" y="0" type="line"/>
    </contour>
    <contour>
      <point x="487" y="990" type="line"/>
      <point x="280" y="840" type="line"/>
      <point x="190" y="886" type="line"/>
      <point x="368" y="1046" type="line"/>
    </contour>
  </outline>
</glyph>
<glyph name="uni013B" format="1">
  <advance width="551"/>
  <unicode hex="013B"/>
  <outline>
    <contour>
      <point x="204" y="0" type="line"/>
      <point x="233" y="166" type="line"/>
      <point x="579" y="166" type="line"/>
      <point x="550" y="0" type="line"/>
    </contour>
    <contour>
      <point x="195" y="700" type="line"/>
      <point x="389" y="700" type="line"/>
      <point x="266" y="0" type="line"/>
      <point x="72" y="0" type="line"/>
    </contour>
    <contour>
      <point x="257" y="-60" type="line"/>
      <point x="426" y="-93" type="line"/>
      <point x="252" y="-343" type="line"/>
      <point x="124" y="-319" type="line"/>
    </contour>
  </outline>
</glyph>
<glyph name="lcaron" format="1">
  <advance width="282"/>
  <unicode hex="013E"/>
  <outline>
    <contour>
      <point x="193" y="780" type="line"/>
      <point x="366" y="780" type="line"/>
      <point x="228" y="0" type="line"/>
      <point x="55" y="0" type="line"/>
    </contour>
    <contour>
      <point x="504" y="780" type="line"/>
      <point x="672" y="747" type="line"/>
      <point x="498" y="497" type="line"/>
      <point x="370" y="521" type="line"/>
    </contour>
  </outline>
</glyph>
<glyph name="ldot" format="1">
  <advance width="508"/>
  <unicode hex="0140"/>
  <outline>
    <contour>
      <point x="193" y="780" type="line"/>
      <point x="366" y="780" type="line"/>
      <point x="228" y="0" type="line"/>
      <point x="55" y="0" type="line"/>
    </contour>
    <contour>
      <point x="335" y="406" type="curve" smooth="yes"/>
      <point x="345" y="462"/>
      <point x="398" y="510"/>
      <point x="460" y="510" type="curve" smooth="yes"/>
      <point x="522" y="510"/>
      <point x="558" y="462"/>
      <point x="548" y="406" type="curve" smooth="yes"/>
      <point x="538" y="350"/>
      <point x="485" y="303"/>
      <point x="423" y="303" type="curve" smooth="yes"/>
      <point x="361" y="303"/>
      <point x="325" y="350"/>
    </contour>
  </outline>
</glyph>
<glyph name="Lslash" format="1">
  <advance width="555"/>
  <unicode hex="0141"/>
  <outline>
    <contour>
      <point x="58" y="301" type="line"/>
      <point x="28" y="380" type="line"/>
      <point x="462" y="644" type="line"/>
      <point x="492" y="565" type="line"/>
    </contour>
    <contour>
      <point x="225" y="0" type="line"/>
      <point x="254" y="162" type="line"/>
      <point x="575" y="162" type="line"/>
      <point x="546" y="0" type="line"/>
    </contour>
    <contour>
      <point x="195" y="700" type="line"/>
      <point x="386" y="700" type="line"/>
      <point x="263" y="0" type="line"/>
      <point x="72" y="0" type="line"/>
    </contour>
  </outline>
</glyph>
<glyph name="lslash" format="1">
  <advance width="280"/>
  <unicode hex="0142"/>
  <outline>
    <contour>
      <point x="43" y="301" type="line"/>
      <point x="13" y="380" type="line"/>
      <point x="406" y="616" type="line"/>
      <point x="436" y="537" type="line"/>
    </contour>
    <contour>
      <point x="193" y="780" type="line"/>
      <point x="363" y="780" type="line"/>
      <point x="226" y="0" type="line"/>
      <point x="56" y="0" type="line"/>
    </contour>
  </outline>
</glyph>
<glyph name="Nacute" format="1">
  <advance width="799"/>
  <unicode hex="0143"/>
  <outline>
    <contour>
      <point x="165" y="500" type="line"/>
      <point x="202" y="735" type="line"/>
      <point x="758" y="200" type="line"/>
      <point x="721" y="-35" type="line"/>
    </contour>
    <contour>
      <point x="664" y="700" type="line"/>
      <point x="851" y="700" type="line"/>
      <point x="721" y="-35" type="line"/>
      <point x="571" y="172" type="line"/>
    </contour>
    <contour>
      <point x="202" y="735" type="line"/>
      <point x="352" y="528" type="line"/>
      <point x="258" y="0" type="line"/>
      <point x="72" y="0" type="line"/>
    </contour>
    <contour>
      <point x="699" y="915" type="line"/>
      <point x="493" y="765" type="line"/>
      <point x="403" y="812" type="line"/>
      <point x="581" y="972" type="line"/>
    </contour>
  </outline>
</glyph>
<glyph name="nacute" format="1">
  <advance width="590"/>
  <unicode hex="0144"/>
  <outline>
    <contour>
      <point x="310" y="460" type="line"/>
      <point x="228" y="0" type="line"/>
      <point x="55" y="0" type="line"/>
      <point x="136" y="460" type="line"/>
    </contour>
    <contour>
      <point x="403" y="280" type="line" smooth="yes"/>
      <point x="411" y="328"/>
      <point x="404" y="355"/>
      <point x="359" y="355" type="curve" smooth="yes"/>
      <point x="317" y="355"/>
      <point x="287" y="330"/>
      <point x="278" y="280" type="curve"/>
      <point x="248" y="272" type="line"/>
      <point x="267" y="381"/>
      <point x="332" y="470"/>
      <point x="452" y="470" type="curve" smooth="yes"/>
      <point x="572" y="470"/>
      <point x="607" y="408"/>
      <point x="588" y="298" type="curve" smooth="yes"/>
      <point x="536" y="0" type="line"/>
      <point x="354" y="0" type="line"/>
    </contour>
    <contour>
      <point x="585" y="680" type="line"/>
      <point x="379" y="530" type="line"/>
      <point x="289" y="577" type="line"/>
      <point x="467" y="737" type="line"/>
    </contour>
  </outline>
</glyph>
<glyph name="uni0145" format="1">
  <advance width="799"/>
  <unicode hex="0145"/>
  <outline>
    <contour>
      <point x="164" y="500" type="line"/>
      <point x="202" y="735" type="line"/>
      <point x="757" y="200" type="line"/>
      <point x="722" y="-35" type="line"/>
    </contour>
    <contour>
      <point x="664" y="700" type="line"/>
      <point x="851" y="700" type="line"/>
      <point x="722" y="-35" type="line"/>
      <point x="571" y="172" type="line"/>
    </contour>
    <contour>
      <point x="202" y="735" type="line"/>
      <point x="351" y="528" type="line"/>
      <point x="258" y="0" type="line"/>
      <point x="72" y="0" type="line"/>
    </contour>
    <contour>
      <point x="342" y="-60" type="line"/>
      <point x="509" y="-92" type="line"/>
      <point x="336" y="-342" type="line"/>
      <point x="209" y="-318" type="line"/>
    </contour>
  </outline>
</glyph>
<glyph name="uni0146" format="1">
  <advance width="590"/>
  <unicode hex="0146"/>
  <outline>
    <contour>
      <point x="309" y="460" type="line"/>
      <point x="228" y="0" type="line"/>
      <point x="55" y="0" type="line"/>
      <point x="136" y="460" type="line"/>
    </contour>
    <contour>
      <point x="403" y="280" type="line" smooth="yes"/>
      <point x="411" y="328"/>
      <point x="404" y="355"/>
      <point x="359" y="355" type="curve" smooth="yes"/>
      <point x="317" y="355"/>
      <point x="286" y="330"/>
      <point x="277" y="280" type="curve"/>
      <point x="248" y="272" type="line"/>
      <point x="267" y="381"/>
      <point x="333" y="470"/>
      <point x="453" y="470" type="curve" smooth="yes"/>
      <point x="573" y="470"/>
      <point x="608" y="408"/>
      <point x="589" y="298" type="curve" smooth="yes"/>
      <point x="536" y="0" type="line"/>
      <point x="354" y="0" type="line"/>
    </contour>
    <contour>
      <point x="241" y="-60" type="line"/>
      <point x="410" y="-93" type="line"/>
      <point x="236" y="-343" type="line"/>
      <point x="108" y="-319" type="line"/>
    </contour>
  </outline>
</glyph>
<glyph name="Ncaron" format="1">
  <advance width="799"/>
  <unicode hex="0147"/>
  <outline>
    <contour>
      <point x="164" y="500" type="line"/>
      <point x="202" y="735" type="line"/>
      <point x="757" y="200" type="line"/>
      <point x="722" y="-35" type="line"/>
    </contour>
    <contour>
      <point x="664" y="700" type="line"/>
      <point x="851" y="700" type="line"/>
      <point x="722" y="-35" type="line"/>
      <point x="571" y="172" type="line"/>
    </contour>
    <contour>
      <point x="202" y="735" type="line"/>
      <point x="351" y="528" type="line"/>
      <point x="258" y="0" type="line"/>
      <point x="72" y="0" type="line"/>
    </contour>
    <contour>
      <point x="528" y="908" type="line"/>
      <point x="628" y="992" type="line"/>
      <point x="736" y="910" type="line"/>
      <point x="504" y="770" type="line"/>
      <point x="319" y="910" type="line"/>
      <point x="457" y="992" type="line"/>
    </contour>
  </outline>
</glyph>
<glyph name="Obreve" format="1">
  <advance width="830"/>
  <unicode hex="014E"/>
  <outline>
    <contour>
      <point x="300" y="350" type="curve" smooth="yes"/>
      <point x="280" y="236"/>
      <point x="335" y="159"/>
      <point x="443" y="159" type="curve" smooth="yes"/>
      <point x="551" y="159"/>
      <point x="634" y="236"/>
      <point x="654" y="350" type="curve" smooth="yes"/>
      <point x="674" y="464"/>
      <point x="622" y="541"/>
      <point x="510" y="541" type="curve" smooth="yes"/>
      <point x="402" y="541"/>
      <point x="320" y="464"/>
    </contour>
    <contour>
      <point x="94" y="350" type="curve" smooth="yes"/>
      <point x="133" y="570"/>
      <point x="326" y="718"/>
      <point x="542" y="718" type="curve" smooth="yes"/>
      <point x="762" y="718"/>
      <point x="900" y="570"/>
      <point x="861" y="350" type="curve" smooth="yes"/>
      <point x="822" y="130"/>
      <point x="634" y="-26"/>
      <point x="410" y="-26" type="curve" smooth="yes"/>
      <point x="186" y="-26"/>
      <point x="55" y="130"/>
    </contour>
    <contour>
      <point x="412" y="926" type="curve"/>
      <point x="520" y="926" type="line"/>
      <point x="513" y="888"/>
      <point x="539" y="872"/>
      <point x="569" y="872" type="curve" smooth="yes"/>
      <point x="599" y="872"/>
      <point x="630" y="888"/>
      <point x="637" y="926" type="curve"/>
      <point x="745" y="926" type="line"/>
      <point x="730" y="840"/>
      <point x="657" y="778"/>
      <point x="552" y="778" type="curve" smooth="yes"/>
      <point x="447" y="778"/>
      <point x="397" y="840"/>
    </contour>
  </outline>
</glyph>
<glyph name="obreve" format="1">
  <advance width="602"/>
  <unicode hex="014F"/>
  <outline>
    <contour>
      <point x="72" y="230" type="curve" smooth="yes"/>
      <point x="98" y="378"/>
      <point x="230" y="470"/>
      <point x="385" y="470" type="curve" smooth="yes"/>
      <point x="540" y="470"/>
      <point x="639" y="378"/>
      <point x="613" y="230" type="curve" smooth="yes"/>
      <point x="587" y="82"/>
      <point x="455" y="-10"/>
      <point x="300" y="-10" type="curve" smooth="yes"/>
      <point x="145" y="-10"/>
      <point x="46" y="82"/>
    </contour>
    <contour>
      <point x="251" y="230" type="curve" smooth="yes"/>
      <point x="240" y="166"/>
      <point x="275" y="130"/>
      <point x="325" y="130" type="curve" smooth="yes"/>
      <point x="375" y="130"/>
      <point x="424" y="166"/>
      <point x="435" y="230" type="curve" smooth="yes"/>
      <point x="446" y="294"/>
      <point x="410" y="331"/>
      <point x="360" y="331" type="curve" smooth="yes"/>
      <point x="310" y="331"/>
      <point x="262" y="294"/>
    </contour>
    <contour>
      <point x="255" y="679" type="curve"/>
      <point x="363" y="679" type="line"/>
      <point x="356" y="641"/>
      <point x="382" y="624"/>
      <point x="412" y="624" type="curve" smooth="yes"/>
      <point x="442" y="624"/>
      <point x="473" y="641"/>
      <point x="480" y="679" type="curve"/>
      <point x="588" y="679" type="line"/>
      <point x="573" y="593"/>
      <point x="500" y="530"/>
      <point x="395" y="530" type="curve" smooth="yes"/>
      <point x="290" y="530"/>
      <point x="240" y="593"/>
    </contour>
  </outline>
</glyph>
<glyph name="OE" format="1">
  <advance width="985"/>
  <unicode hex="0152"/>
  <outline>
    <contour>
      <point x="613" y="288" type="line"/>
      <point x="640" y="440" type="line"/>
      <point x="1018" y="440" type="line"/>
      <point x="991" y="288" type="line"/>
    </contour>
    <contour>
      <point x="592" y="670" type="line"/>
      <point x="779" y="670" type="line"/>
      <point x="666" y="30" type="line"/>
      <point x="479" y="30" type="line"/>
    </contour>
    <contour>
      <point x="988" y="158" type="line"/>
      <point x="960" y="0" type="line"/>
      <point x="390" y="0" type="line" smooth="yes"/>
      <point x="187" y="0"/>
      <point x="57" y="141"/>
      <point x="94" y="350" type="curve" smooth="yes"/>
      <point x="131" y="559"/>
      <point x="309" y="700"/>
      <point x="513" y="700" type="curve" smooth="yes"/>
      <point x="1083" y="700" type="line"/>
      <point x="1056" y="542" type="line"/>
      <point x="664" y="542" type="line"/>
      <point x="644" y="530" type="line"/>
      <point x="523" y="530" type="line" smooth="yes"/>
      <point x="389" y="530"/>
      <point x="319" y="472"/>
      <point x="297" y="350" type="curve" smooth="yes"/>
      <point x="275" y="228"/>
      <point x="328" y="170"/>
      <point x="460" y="170" type="curve" smooth="yes"/>
      <point x="578" y="170" type="line"/>
      <point x="600" y="158" type="line"/>
    </contour>
  </outline>
</glyph>
<glyph name="rcaron" format="1">
  <advance width="432"/>
  <unicode hex="0159"/>
  <outline>
    <contour>
      <point x="305" y="460" type="line"/>
      <point x="224" y="0" type="line"/>
      <point x="55" y="0" type="line"/>
      <point x="136" y="460" type="line"/>
    </contour>
    <contour>
      <point x="405" y="282" type="line"/>
      <point x="394" y="298"/>
      <point x="378" y="310"/>
      <point x="352" y="310" type="curve" smooth="yes"/>
      <point x="312" y="310"/>
      <point x="273" y="277"/>
      <point x="261" y="211" type="curve"/>
      <point x="237" y="280" type="line"/>
      <point x="256" y="389"/>
      <point x="347" y="472"/>
      <point x="429" y="472" type="curve" smooth="yes"/>
      <point x="462" y="472"/>
      <point x="494" y="454"/>
      <point x="504" y="432" type="curve"/>
    </contour>
    <contour>
      <point x="359" y="670" type="line"/>
      <point x="459" y="752" type="line"/>
      <point x="568" y="672" type="line"/>
      <point x="335" y="532" type="line"/>
      <point x="150" y="672" type="line"/>
      <point x="289" y="752" type="line"/>
    </contour>
  </outline>
</glyph>
<glyph name="Sacute" format="1">
  <advance width="648"/>
  <unicode hex="015A"/>
  <outline>
    <contour>
      <point x="211" y="258" type="line"/>
      <point x="247" y="178"/>
      <point x="286" y="142"/>
      <point x="356" y="142" type="curve" smooth="yes"/>
      <point x="404" y="142"/>
      <point x="434" y="158"/>
      <point x="441" y="196" type="curve" smooth="yes"/>
      <point x="450" y="246"/>
      <point x="393" y="259"/>
      <point x="319" y="291" type="curve" smooth="yes"/>
      <point x="255" y="319"/>
      <point x="140" y="373"/>
      <point x="165" y="515" type="curve" smooth="yes"/>
      <point x="187" y="637"/>
      <point x="307" y="718"/>
      <point x="461" y="718" type="curve" smooth="yes"/>
      <point x="623" y="718"/>
      <point x="686" y="634"/>
      <point x="701" y="563" type="curve"/>
      <point x="542" y="482" type="line"/>
      <point x="521" y="532"/>
      <point x="488" y="556"/>
      <point x="441" y="556" type="curve" smooth="yes"/>
      <point x="399" y="556"/>
      <point x="368" y="537"/>
      <point x="363" y="509" type="curve" smooth="yes"/>
      <point x="356" y="467"/>
      <point x="430" y="448"/>
      <point x="507" y="418" type="curve" smooth="yes"/>
      <point x="606" y="382"/>
      <point x="667" y="316"/>
      <point x="646" y="198" type="curve" smooth="yes"/>
      <point x="620" y="48"/>
      <point x="495" y="-26"/>
      <point x="323" y="-26" type="curve" smooth="yes"/>
      <point x="191" y="-26"/>
      <point x="85" y="48"/>
      <point x="61" y="163" type="curve"/>
    </contour>
    <contour>
      <point x="678" y="928" type="line"/>
      <point x="471" y="778" type="line"/>
      <point x="382" y="824" type="line"/>
      <point x="560" y="984" type="line"/>
    </contour>
  </outline>
</glyph>
<glyph name="scircumflex" format="1">
  <advance width="472"/>
  <unicode hex="015D"/>
  <outline>
    <contour>
      <point x="112" y="178" type="line"/>
      <point x="186" y="117"/>
      <point x="237" y="108"/>
      <point x="261" y="108" type="curve" smooth="yes"/>
      <point x="281" y="108"/>
      <point x="297" y="112"/>
      <point x="300" y="130" type="curve" smooth="yes"/>
      <point x="305" y="160"/>
      <point x="233" y="166"/>
      <point x="183" y="192" type="curve" smooth="yes"/>
      <point x="129" y="221"/>
      <point x="83" y="251"/>
      <point x="97" y="332" type="curve" smooth="yes"/>
      <point x="113" y="424"/>
      <point x="208" y="470"/>
      <point x="314" y="470" type="curve" smooth="yes"/>
      <point x="396" y="470"/>
      <point x="458" y="442"/>
      <point x="510" y="408" type="curve"/>
      <point x="439" y="293" type="line"/>
      <point x="405" y="330"/>
      <point x="343" y="350"/>
      <point x="306" y="350" type="curve" smooth="yes"/>
      <point x="276" y="350"/>
      <point x="264" y="344"/>
      <point x="261" y="328" type="curve" smooth="yes"/>
      <point x="257" y="304"/>
      <point x="315" y="291"/>
      <point x="371" y="269" type="curve" smooth="yes"/>
      <point x="432" y="245"/>
      <point x="488" y="214"/>
      <point x="473" y="130" type="curve" smooth="yes"/>
      <point x="454" y="22"/>
      <point x="382" y="-22"/>
      <point x="266" y="-22" type="curve" smooth="yes"/>
      <point x="164" y="-22"/>
      <point x="89" y="10"/>
      <point x="27" y="60" type="curve"/>
    </contour>
    <contour>
      <point x="356" y="614" type="line"/>
      <point x="256" y="530" type="line"/>
      <point x="147" y="612" type="line"/>
      <point x="381" y="752" type="line"/>
      <point x="564" y="612" type="line"/>
      <point x="427" y="530" type="line"/>
    </contour>
  </outline>
</glyph>
<glyph name="Scedilla" format="1">
  <advance width="648"/>
  <unicode hex="015E"/>
  <outline>
    <contour>
      <point x="211" y="258" type="line"/>
      <point x="247" y="178"/>
      <point x="286" y="142"/>
      <point x="356" y="142" type="curve" smooth="yes"/>
      <point x="404" y="142"/>
      <point x="434" y="158"/>
      <point x="441" y="196" type="curve" smooth="yes"/>
      <point x="450" y="246"/>
      <point x="393" y="259"/>
      <point x="319" y="291" type="curve" smooth="yes"/>
      <point x="255" y="319"/>
      <point x="140" y="373"/>
      <point x="165" y="515" type="curve" smooth="yes"/>
      <point x="187" y="637"/>
      <point x="307" y="718"/>
      <point x="461" y="718" type="curve" smooth="yes"/>
      <point x="623" y="718"/>
      <point x="686" y="634"/>
      <point x="701" y="563" type="curve"/>
      <point x="542" y="482" type="line"/>
      <point x="521" y="532"/>
      <point x="488" y="556"/>
      <point x="441" y="556" type="curve" smooth="yes"/>
      <point x="399" y="556"/>
      <point x="368" y="537"/>
      <point x="363" y="509" type="curve" smooth="yes"/>
      <point x="356" y="467"/>
      <point x="430" y="448"/>
      <point x="507" y="418" type="curve" smooth="yes"/>
      <point x="606" y="382"/>
      <point x="667" y="316"/>
      <point x="646" y="198" type="curve" smooth="yes"/>
      <point x="620" y="48"/>
      <point x="495" y="-26"/>
      <point x="323" y="-26" type="curve" smooth="yes"/>
      <point x="191" y="-26"/>
      <point x="85" y="48"/>
      <point x="61" y="163" type="curve"/>
    </contour>
    <contour>
      <point x="299" y="62" type="line"/>
      <point x="423" y="56" type="line"/>
      <point x="278" y="-100" type="line"/>
      <point x="176" y="-142" type="line"/>
    </contour>
    <contour>
      <point x="433" y="-168" type="curve"/>
      <point x="326" y="-157" type="line"/>
      <point x="331" y="-130"/>
      <point x="298" y="-126"/>
      <point x="268" y="-126" type="curve" smooth="yes"/>
      <point x="258" y="-126"/>
      <point x="218" y="-128"/>
      <point x="176" y="-142" type="curve"/>
      <point x="255" y="-96" type="line"/>
      <point x="287" y="-68"/>
      <point x="316" y="-64"/>
      <point x="354" y="-64" type="curve" smooth="yes"/>
      <point x="396" y="-64"/>
      <point x="446" y="-97"/>
    </contour>
    <contour>
      <point x="433" y="-168" type="line"/>
      <point x="420" y="-244"/>
      <point x="340" y="-282"/>
      <point x="274" y="-282" type="curve" smooth="yes"/>
      <point x="212" y="-282"/>
      <point x="168" y="-272"/>
      <point x="121" y="-242" type="curve"/>
      <point x="184" y="-165" type="line"/>
      <point x="208" y="-184"/>
      <point x="246" y="-190"/>
      <point x="264" y="-190" type="curve" smooth="yes"/>
      <point x="298" y="-190"/>
      <point x="322" y="-181"/>
      <point x="326" y="-157" type="curve"/>
    </contour>
  </outline>
</glyph>
<glyph name="scedilla" format="1">
  <advance width="472"/>
  <unicode hex="015F"/>
  <outline>
    <contour>
      <point x="112" y="178" type="line"/>
      <point x="186" y="117"/>
      <point x="237" y="108"/>
      <point x="261" y="108" type="curve" smooth="yes"/>
      <point x="281" y="108"/>
      <point x="297" y="112"/>
      <point x="300" y="130" type="curve" smooth="yes"/>
      <point x="305" y="160"/>
      <point x="233" y="166"/>
      <point x="183" y="192" type="curve" smooth="yes"/>
      <point x="129" y="221"/>
      <point x="83" y="251"/>
      <point x="97" y="332" type="curve" smooth="yes"/>
      <point x="113" y="424"/>
      <point x="208" y="470"/>
      <point x="314" y="470" type="curve" smooth="yes"/>
      <point x="396" y="470"/>
      <point x="458" y="442"/>
      <point x="510" y="408" type="curve"/>
      <point x="439" y="293" type="line"/>
      <point x="405" y="330"/>
      <point x="343" y="350"/>
      <point x="306" y="350" type="curve" smooth="yes"/>
      <point x="276" y="350"/>
      <point x="264" y="344"/>
      <point x="261" y="328" type="curve" smooth="yes"/>
      <point x="257" y="304"/>
      <point x="315" y="291"/>
      <point x="371" y="269" type="curve" smooth="yes"/>
      <point x="432" y="245"/>
      <point x="488" y="214"/>
      <point x="473" y="130" type="curve" smooth="yes"/>
      <point x="454" y="22"/>
      <point x="382" y="-22"/>
      <point x="266" y="-22" type="curve" smooth="yes"/>
      <point x="164" y="-22"/>
      <point x="89" y="10"/>
      <point x="27" y="60" type="curve"/>
    </contour>
    <contour>
      <point x="227" y="74" type="line"/>
      <point x="353" y="68" type="line"/>
      <point x="207" y="-88" type="line"/>
      <point x="104" y="-129" type="line"/>
    </contour>
    <contour>
      <point x="361" y="-156" type="curve"/>
      <point x="255" y="-144" type="line"/>
      <point x="260" y="-117"/>
      <point x="226" y="-114"/>
      <point x="196" y="-114" type="curve" smooth="yes"/>
      <point x="186" y="-114"/>
      <point x="146" y="-115"/>
      <point x="104" y="-129" type="curve"/>
      <point x="184" y="-84" type="line"/>
      <point x="216" y="-56"/>
      <point x="244" y="-52"/>
      <point x="282" y="-52" type="curve" smooth="yes"/>
      <point x="324" y="-52"/>
      <point x="374" y="-85"/>
    </contour>
    <contour>
      <point x="361" y="-156" type="line"/>
      <point x="348" y="-232"/>
      <point x="269" y="-270"/>
      <point x="203" y="-270" type="curve" smooth="yes"/>
      <point x="141" y="-270"/>
      <point x="96" y="-260"/>
      <point x="49" y="-230" type="curve"/>
      <point x="112" y="-152" type="line"/>
      <point x="136" y="-171"/>
      <point x="175" y="-178"/>
      <point x="193" y="-178" type="curve" smooth="yes"/>
      <point x="227" y="-178"/>
      <point x="251" y="-168"/>
      <point x="255" y="-144" type="curve"/>
    </contour>
  </outline>
</glyph>
<glyph name="Ydieresis" format="1">
  <advance width="690"/>
  <unicode hex="0178"/>
  <outline>
    <contour>
      <point x="309" y="360" type="line"/>
      <point x="508" y="360" type="line"/>
      <point x="444" y="0" type="line"/>
      <point x="246" y="0" type="line"/>
    </contour>
    <contour>
      <point x="591" y="700" type="line"/>
      <point x="817" y="700" type="line"/>
      <point x="365" y="111" type="line"/>
      <point x="120" y="700" type="line"/>
      <point x="345" y="700" type="line"/>
      <point x="425" y="456" type="line"/>
    </contour>
    <contour>
      <point x="555" y="876" type="curve" smooth="yes"/>
      <point x="564" y="930"/>
      <point x="615" y="966"/>
      <point x="669" y="966" type="curve" smooth="yes"/>
      <point x="723" y="966"/>
      <point x="760" y="930"/>
      <point x="751" y="876" type="curve" smooth="yes"/>
      <point x="742" y="822"/>
      <point x="691" y="786"/>
      <point x="637" y="786" type="curve" smooth="yes"/>
      <point x="583" y="786"/>
      <point x="546" y="822"/>
    </contour>
    <contour>
      <point x="248" y="876" type="curve" smooth="yes"/>
      <point x="257" y="930"/>
      <point x="308" y="966"/>
      <point x="362" y="966" type="curve" smooth="yes"/>
      <point x="416" y="966"/>
      <point x="453" y="930"/>
      <point x="444" y="876" type="curve" smooth="yes"/>
      <point x="435" y="822"/>
      <point x="384" y="786"/>
      <point x="330" y="786" type="curve" smooth="yes"/>
      <point x="276" y="786"/>
      <point x="239" y="822"/>
    </contour>
  </outline>
</glyph>
<glyph name="Zacute" format="1">
  <advance width="642"/>
  <unicode hex="0179"/>
  <outline>
    <contour>
      <point x="157" y="526" type="line"/>
      <point x="187" y="700" type="line"/>
      <point x="753" y="700" type="line"/>
      <point x="339" y="166" type="line"/>
      <point x="619" y="166" type="line"/>
      <point x="590" y="0" type="line"/>
      <point x="6" y="0" type="line"/>
      <point x="414" y="526" type="line"/>
    </contour>
    <contour>
      <point x="679.93" y="928" type="line"/>
      <point x="473.93" y="778" type="line"/>
      <point x="383.93" y="824" type="line"/>
      <point x="561.93" y="984" type="line"/>
    </contour>
  </outline>
</glyph>
<glyph name="zacute" format="1">
  <advance width="541"/>
  <unicode hex="017A"/>
  <outline>
    <contour>
      <point x="297" y="304" type="line"/>
      <point x="116" y="304" type="line"/>
      <point x="143" y="460" type="line"/>
      <point x="607" y="460" type="line"/>
      <point x="342" y="156" type="line"/>
      <point x="518" y="156" type="line"/>
      <point x="490" y="0" type="line"/>
      <point x="15" y="0" type="line"/>
    </contour>
    <contour>
      <point x="583.52" y="680" type="line"/>
      <point x="377.52" y="530" type="line"/>
      <point x="287.52" y="576" type="line"/>
      <point x="465.52" y="736" type="line"/>
    </contour>
  </outline>
</glyph>
<glyph name="Zdotaccent" format="1">
  <advance width="642"/>
  <unicode hex="017B"/>
  <outline>
    <contour>
      <point x="157" y="526" type="line"/>
      <point x="187" y="700" type="line"/>
      <point x="753" y="700" type="line"/>
      <point x="339" y="166" type="line"/>
      <point x="619" y="166" type="line"/>
      <point x="590" y="0" type="line"/>
      <point x="6" y="0" type="line"/>
      <point x="414" y="526" type="line"/>
    </contour>
    <contour>
      <point x="391.799" y="868" type="curve" smooth="yes"/>
      <point x="400.799" y="922"/>
      <point x="451.799" y="958"/>
      <point x="505.799" y="958" type="curve" smooth="yes"/>
      <point x="559.799" y="958"/>
      <point x="596.799" y="922"/>
      <point x="587.799" y="868" type="curve" smooth="yes"/>
      <point x="578.799" y="814"/>
      <point x="527.799" y="778"/>
      <point x="473.799" y="778" type="curve" smooth="yes"/>
      <point x="419.799" y="778"/>
      <point x="382.799" y="814"/>
    </contour>
  </outline>
</glyph>
<glyph name="zdotaccent" format="1">
  <advance width="541"/>
  <unicode hex="017C"/>
  <outline>
    <contour>
      <point x="297" y="304" type="line"/>
      <point x="116" y="304" type="line"/>
      <point x="143" y="460" type="line"/>
      <point x="607" y="460" type="line"/>
      <point x="342" y="156" type="line"/>
      <point x="518" y="156" type="line"/>
      <point x="490" y="0" type="line"/>
      <point x="15" y="0" type="line"/>
    </contour>
    <contour>
      <point x="295.389" y="630" type="curve" smooth="yes"/>
      <point x="304.389" y="684"/>
      <point x="355.389" y="720"/>
      <point x="409.389" y="720" type="curve" smooth="yes"/>
      <point x="463.389" y="720"/>
      <point x="500.389" y="684"/>
      <point x="491.389" y="630" type="curve" smooth="yes"/>
      <point x="482.389" y="576"/>
      <point x="431.389" y="540"/>
      <point x="377.389" y="540" type="curve" smooth="yes"/>
      <point x="323.389" y="540"/>
      <point x="286.389" y="576"/>
    </contour>
  </outline>
</glyph>
<glyph name="uni0219" format="1">
  <advance width="472"/>
  <unicode hex="0219"/>
  <outline>
    <contour>
      <point x="111" y="178" type="line"/>
      <point x="185" y="117"/>
      <point x="237" y="108"/>
      <point x="261" y="108" type="curve" smooth="yes"/>
      <point x="281" y="108"/>
      <point x="298" y="112"/>
      <point x="301" y="130" type="curve" smooth="yes"/>
      <point x="306" y="160"/>
      <point x="233" y="166"/>
      <point x="184" y="192" type="curve" smooth="yes"/>
      <point x="129" y="221"/>
      <point x="83" y="251"/>
      <point x="97" y="332" type="curve" smooth="yes"/>
      <point x="113" y="424"/>
      <point x="209" y="470"/>
      <point x="315" y="470" type="curve" smooth="yes"/>
      <point x="397" y="470"/>
      <point x="458" y="442"/>
      <point x="510" y="408" type="curve"/>
      <point x="439" y="293" type="line"/>
      <point x="406" y="330"/>
      <point x="343" y="350"/>
      <point x="306" y="350" type="curve" smooth="yes"/>
      <point x="276" y="350"/>
      <point x="264" y="344"/>
      <point x="261" y="328" type="curve" smooth="yes"/>
      <point x="257" y="304"/>
      <point x="315" y="291"/>
      <point x="371" y="269" type="curve" smooth="yes"/>
      <point x="432" y="245"/>
      <point x="488" y="214"/>
      <point x="473" y="130" type="curve" smooth="yes"/>
      <point x="454" y="22"/>
      <point x="382" y="-22"/>
      <point x="266" y="-22" type="curve" smooth="yes"/>
      <point x="164" y="-22"/>
      <point x="89" y="10"/>
      <point x="27" y="60" type="curve"/>
    </contour>
    <contour>
      <point x="183" y="-66" type="line"/>
      <point x="350" y="-100" type="line"/>
      <point x="176" y="-350" type="line"/>
      <point x="50" y="-325" type="line"/>
    </contour>
  </outline>
</glyph>
<glyph name="uni0237" format="1">
  <advance width="278"/>
  <unicode hex="0237"/>
  <outline>
    <contour>
      <point x="-50" y="-66" type="line"/>
      <point x="-39" y="-82"/>
      <point x="-26" y="-91"/>
      <point x="-8" y="-91" type="curve" smooth="yes"/>
      <point x="22" y="-91"/>
      <point x="44" y="-72"/>
      <point x="51" y="-30" type="curve" smooth="yes"/>
      <point x="137" y="460" type="line"/>
      <point x="302" y="460" type="line"/>
      <point x="208" y="-76" type="line" smooth="yes"/>
      <point x="190" y="-176"/>
      <point x="117" y="-244"/>
      <point x="-7" y="-244" type="curve" smooth="yes"/>
      <point x="-83" y="-244"/>
      <point x="-118" y="-210"/>
      <point x="-138" y="-190" type="curve"/>
    </contour>
  </outline>
</glyph>
<glyph name="circumflex" format="1">
  <advance width="480"/>
  <unicode hex="02C6"/>
  <outline>
    <contour>
      <point x="350" y="625" type="line"/>
      <point x="250" y="542" type="line"/>
      <point x="141" y="622" type="line"/>
      <point x="374" y="762" type="line"/>
      <point x="559" y="622" type="line"/>
      <point x="422" y="542" type="line"/>
    </contour>
  </outline>
</glyph>
<glyph name="breve" format="1">
  <advance width="546"/>
  <unicode hex="02D8"/>
  <outline>
    <contour>
      <point x="256" y="850" type="curve"/>
      <point x="364" y="850" type="line"/>
      <point x="357" y="812"/>
      <point x="383" y="795"/>
      <point x="413" y="795" type="curve" smooth="yes"/>
      <point x="443" y="795"/>
      <point x="474" y="812"/>
      <point x="481" y="850" type="curve"/>
      <point x="589" y="850" type="line"/>
      <point x="574" y="764"/>
      <point x="502" y="702"/>
      <point x="397" y="702" type="curve" smooth="yes"/>
      <point x="292" y="702"/>
      <point x="241" y="764"/>
    </contour>
  </outline>
</glyph>
<glyph name="dotaccent" format="1">
  <advance width="300"/>
  <unicode hex="02D9"/>
  <outline>
    <contour>
      <point x="197" y="821" type="curve" smooth="yes"/>
      <point x="206" y="875"/>
      <point x="257" y="911"/>
      <point x="311" y="911" type="curve" smooth="yes"/>
      <point x="365" y="911"/>
      <point x="402" y="875"/>
      <point x="393" y="821" type="curve" smooth="yes"/>
      <point x="384" y="767"/>
      <point x="333" y="731"/>
      <point x="279" y="731" type="curve" smooth="yes"/>
      <point x="225" y="731"/>
      <point x="188" y="767"/>
    </contour>
  </outline>
</glyph>
<glyph name="ring" format="1">
  <advance width="343"/>
  <unicode hex="02DA"/>
  <outline>
    <contour>
      <point x="175" y="765" type="curve" smooth="yes"/>
      <point x="188" y="837"/>
      <point x="252" y="885"/>
      <point x="327" y="885" type="curve" smooth="yes"/>
      <point x="402" y="885"/>
      <point x="452" y="837"/>
      <point x="439" y="765" type="curve" smooth="yes"/>
      <point x="426" y="693"/>
      <point x="360" y="644"/>
      <point x="285" y="644" type="curve" smooth="yes"/>
      <point x="210" y="644"/>
      <point x="162" y="693"/>
    </contour>
    <contour>
      <point x="261" y="765" type="curve" smooth="yes"/>
      <point x="256" y="736"/>
      <point x="273" y="719"/>
      <point x="298" y="719" type="curve" smooth="yes"/>
      <point x="323" y="719"/>
      <point x="346" y="736"/>
      <point x="351" y="765" type="curve" smooth="yes"/>
      <point x="356" y="794"/>
      <point x="339" y="812"/>
      <point x="314" y="812" type="curve" smooth="yes"/>
      <point x="289" y="812"/>
      <point x="266" y="794"/>
    </contour>
  </outline>
</glyph>
<glyph name="ogonek" format="1">
  <advance width="260"/>
  <unicode hex="02DB"/>
  <outline>
    <contour>
      <point x="175" y="-106" type="curve"/>
      <point x="195" y="-180" type="line"/>
      <point x="176" y="-200"/>
      <point x="143" y="-220"/>
      <point x="83" y="-220" type="curve" smooth="yes"/>
      <point x="23" y="-220"/>
      <point x="-25" y="-188"/>
      <point x="-13" y="-120" type="curve"/>
      <point x="96" y="-92" type="line"/>
      <point x="92" y="-114"/>
      <point x="100" y="-126"/>
      <point x="122" y="-126" type="curve" smooth="yes"/>
      <point x="140" y="-126"/>
      <point x="159" y="-119"/>
    </contour>
    <contour>
      <point x="96" y="-92" type="curve"/>
      <point x="-13" y="-120" type="line"/>
      <point x="-1" y="-52"/>
      <point x="76" y="-11"/>
      <point x="152" y="25" type="curve"/>
      <point x="189" y="0" type="line"/>
      <point x="132" y="-30"/>
      <point x="101" y="-64"/>
    </contour>
  </outline>
</glyph>
<glyph name="tilde" format="1">
  <advance width="530"/>
  <unicode hex="02DC"/>
  <outline>
    <contour>
      <point x="181" y="642" type="line"/>
      <point x="200" y="691"/>
      <point x="252" y="740"/>
      <point x="322" y="740" type="curve" smooth="yes"/>
      <point x="388" y="740"/>
      <point x="396" y="686"/>
      <point x="453" y="686" type="curve" smooth="yes"/>
      <point x="481" y="686"/>
      <point x="504" y="708"/>
      <point x="530" y="740" type="curve"/>
      <point x="595" y="656" type="line"/>
      <point x="572" y="619"/>
      <point x="502" y="568"/>
      <point x="436" y="568" type="curve" smooth="yes"/>
      <point x="381" y="568"/>
      <point x="352" y="622"/>
      <point x="301" y="622" type="curve" smooth="yes"/>
      <point x="264" y="622"/>
      <point x="248" y="587"/>
      <point x="245" y="572" type="curve"/>
    </contour>
  </outline>
</glyph>
<glyph name="pi" format="1">
  <advance width="621"/>
  <unicode hex="03C0"/>
  <outline>
    <contour>
      <point x="166" y="430" type="line"/>
      <point x="327" y="430" type="line"/>
      <point x="251" y="0" type="line"/>
      <point x="90" y="0" type="line"/>
    </contour>
    <contour>
      <point x="111" y="460" type="line"/>
      <point x="662" y="460" type="line"/>
      <point x="637" y="320" type="line"/>
      <point x="86" y="320" type="line"/>
    </contour>
    <contour>
      <point x="416" y="430" type="line"/>
      <point x="577" y="430" type="line"/>
      <point x="535" y="190" type="line" smooth="yes"/>
      <point x="523" y="124"/>
      <point x="545" y="120"/>
      <point x="575" y="120" type="curve"/>
      <point x="552" y="-9" type="line"/>
      <point x="411" y="-9"/>
      <point x="339" y="-5"/>
      <point x="361" y="121" type="curve" smooth="yes"/>
    </contour>
  </outline>
</glyph>
<glyph name="uni1E9E" format="1">
  <advance width="935"/>
  <unicode hex="1E9E"/>
  <outline>
    <contour>
      <point x="143" y="354" type="line"/>
      <point x="328" y="324" type="line"/>
      <point x="271" y="0" type="line"/>
      <point x="80" y="0" type="line"/>
    </contour>
    <contour>
      <point x="593" y="345" type="curve"/>
      <point x="606" y="420" type="line"/>
      <point x="680" y="420"/>
      <point x="729" y="448"/>
      <point x="738" y="498" type="curve" smooth="yes"/>
      <point x="745" y="540"/>
      <point x="707" y="566"/>
      <point x="607" y="566" type="curve" smooth="yes"/>
      <point x="482" y="566"/>
      <point x="359" y="497"/>
      <point x="328" y="324" type="curve"/>
      <point x="143" y="354" type="line"/>
      <point x="181" y="568"/>
      <point x="370" y="710"/>
      <point x="624" y="710" type="curve" smooth="yes"/>
      <point x="850" y="710"/>
      <point x="958" y="632"/>
      <point x="938" y="518" type="curve" smooth="yes"/>
      <point x="919" y="409"/>
      <point x="783" y="345"/>
    </contour>
    <contour>
      <point x="603" y="-18" type="curve" smooth="yes"/>
      <point x="395" y="-18"/>
      <point x="342" y="123"/>
      <point x="361" y="232" type="curve"/>
      <point x="525" y="232" type="line"/>
      <point x="515" y="174"/>
      <point x="547" y="132"/>
      <point x="609" y="132" type="curve" smooth="yes"/>
      <point x="673" y="132"/>
      <point x="706" y="158"/>
      <point x="715" y="210" type="curve" smooth="yes"/>
      <point x="726" y="272"/>
      <point x="676" y="302"/>
      <point x="586" y="302" type="curve"/>
      <point x="600" y="380" type="line"/>
      <point x="790" y="380"/>
      <point x="925" y="324"/>
      <point x="900" y="185" type="curve" smooth="yes"/>
      <point x="879" y="66"/>
      <point x="757" y="-18"/>
    </contour>
  </outline>
</glyph>
<glyph name="quoteleft" format="1">
  <advance width="348"/>
  <unicode hex="2018"/>
  <outline>
    <contour>
      <point x="323" y="438" type="line"/>
      <point x="147" y="438" type="line"/>
      <point x="297" y="700" type="line"/>
      <point x="421" y="700" type="line"/>
    </contour>
  </outline>
</glyph>
<glyph name="quotedblleft" format="1">
  <advance width="588"/>
  <unicode hex="201C"/>
  <outline>
    <contour>
      <point x="323" y="438" type="line"/>
      <point x="147" y="438" type="line"/>
      <point x="297" y="700" type="line"/>
      <point x="421" y="700" type="line"/>
    </contour>
    <contour>
      <point x="563" y="438" type="line"/>
      <point x="387" y="438" type="line"/>
      <point x="537" y="700" type="line"/>
      <point x="661" y="700" type="line"/>
    </contour>
  </outline>
</glyph>
<glyph name="dagger" format="1">
  <advance width="651"/>
  <unicode hex="2020"/>
  <outline>
    <contour>
      <point x="185" y="540" type="line"/>
      <point x="656" y="540" type="line"/>
      <point x="632" y="400" type="line"/>
      <point x="161" y="400" type="line"/>
    </contour>
    <contour>
      <point x="368" y="700" type="line"/>
      <point x="529" y="700" type="line"/>
      <point x="380" y="-150" type="line"/>
      <point x="219" y="-150" type="line"/>
    </contour>
  </outline>
</glyph>
<glyph name="ellipsis" format="1">
  <advance width="932"/>
  <unicode hex="2026"/>
  <outline>
    <contour>
      <point x="71" y="76" type="curve" smooth="yes"/>
      <point x="81" y="132"/>
      <point x="134" y="180"/>
      <point x="196" y="180" type="curve" smooth="yes"/>
      <point x="258" y="180"/>
      <point x="294" y="132"/>
      <point x="284" y="76" type="curve" smooth="yes"/>
      <point x="274" y="20"/>
      <point x="221" y="-27"/>
      <point x="159" y="-27" type="curve" smooth="yes"/>
      <point x="97" y="-27"/>
      <point x="61" y="20"/>
    </contour>
    <contour>
      <point x="371" y="76" type="curve" smooth="yes"/>
      <point x="381" y="132"/>
      <point x="434" y="180"/>
      <point x="496" y="180" type="curve" smooth="yes"/>
      <point x="558" y="180"/>
      <point x="594" y="132"/>
      <point x="584" y="76" type="curve" smooth="yes"/>
      <point x="574" y="20"/>
      <point x="521" y="-27"/>
      <point x="459" y="-27" type="curve" smooth="yes"/>
      <point x="397" y="-27"/>
      <point x="361" y="20"/>
    </contour>
    <contour>
      <point x="671" y="76" type="curve" smooth="yes"/>
      <point x="681" y="132"/>
      <point x="734" y="180"/>
      <point x="796" y="180" type="curve" smooth="yes"/>
      <point x="858" y="180"/>
      <point x="894" y="132"/>
      <point x="884" y="76" type="curve" smooth="yes"/>
      <point x="874" y="20"/>
      <point x="821" y="-27"/>
      <point x="759" y="-27" type="curve" smooth="yes"/>
      <point x="697" y="-27"/>
      <point x="661" y="20"/>
    </contour>
  </outline>
</glyph>
<glyph name="perthousand" format="1">
  <advance width="1447"/>
  <unicode hex="2030"/>
  <outline>
    <contour>
      <point x="1062" y="171" type="curve" smooth="yes"/>
      <point x="1081" y="277"/>
      <point x="1182" y="364"/>
      <point x="1294" y="364" type="curve" smooth="yes"/>
      <point x="1406" y="364"/>
      <point x="1478" y="277"/>
      <point x="1459" y="171" type="curve" smooth="yes"/>
      <point x="1440" y="65"/>
      <point x="1338" y="-22"/>
      <point x="1226" y="-22" type="curve" smooth="yes"/>
      <point x="1114" y="-22"/>
      <point x="1043" y="65"/>
    </contour>
    <contour>
      <point x="1202" y="171" type="curve" smooth="yes"/>
      <point x="1196" y="139"/>
      <point x="1217" y="114"/>
      <point x="1250" y="114" type="curve" smooth="yes"/>
      <point x="1283" y="114"/>
      <point x="1312" y="139"/>
      <point x="1318" y="171" type="curve" smooth="yes"/>
      <point x="1324" y="203"/>
      <point x="1303" y="228"/>
      <point x="1270" y="228" type="curve" smooth="yes"/>
      <point x="1237" y="228"/>
      <point x="1208" y="203"/>
    </contour>
    <contour>
      <point x="111" y="530" type="curve" smooth="yes"/>
      <point x="130" y="636"/>
      <point x="233" y="722"/>
      <point x="345" y="722" type="curve" smooth="yes"/>
      <point x="457" y="722"/>
      <point x="528" y="636"/>
      <point x="509" y="530" type="curve" smooth="yes"/>
      <point x="490" y="424"/>
      <point x="390" y="338"/>
      <point x="278" y="338" type="curve" smooth="yes"/>
      <point x="166" y="338"/>
      <point x="92" y="424"/>
    </contour>
    <contour>
      <point x="253" y="530" type="curve" smooth="yes"/>
      <point x="247" y="498"/>
      <point x="268" y="472"/>
      <point x="301" y="472" type="curve" smooth="yes"/>
      <point x="334" y="472"/>
      <point x="362" y="498"/>
      <point x="368" y="530" type="curve" smooth="yes"/>
      <point x="374" y="562"/>
      <point x="355" y="587"/>
      <point x="322" y="587" type="curve" smooth="yes"/>
      <point x="289" y="587"/>
      <point x="259" y="562"/>
    </contour>
    <contour>
      <point x="584" y="171" type="curve" smooth="yes"/>
      <point x="603" y="277"/>
      <point x="705" y="364"/>
      <point x="817" y="364" type="curve" smooth="yes"/>
      <point x="929" y="364"/>
      <point x="1001" y="277"/>
      <point x="982" y="171" type="curve" smooth="yes"/>
      <point x="963" y="65"/>
      <point x="861" y="-22"/>
      <point x="749" y="-22" type="curve" smooth="yes"/>
      <point x="637" y="-22"/>
      <point x="565" y="65"/>
    </contour>
    <contour>
      <point x="726" y="171" type="curve" smooth="yes"/>
      <point x="720" y="139"/>
      <point x="740" y="114"/>
      <point x="773" y="114" type="curve" smooth="yes"/>
      <point x="806" y="114"/>
      <point x="834" y="139"/>
      <point x="840" y="171" type="curve" smooth="yes"/>
      <point x="846" y="203"/>
      <point x="826" y="228"/>
      <point x="793" y="228" type="curve" smooth="yes"/>
      <point x="760" y="228"/>
      <point x="732" y="203"/>
    </contour>
    <contour>
      <point x="799" y="700" type="line"/>
      <point x="981" y="700" type="line"/>
      <point x="294" y="0" type="line"/>
      <point x="113" y="0" type="line"/>
    </contour>
  </outline>
</glyph>
